<svg version="1.1" id="map" xmlns="http://www.w3.org/2000/svg" xmlns:xlink="http://www.w3.org/1999/xlink" x="0px" y="0px"
	 viewBox="0 0 145 200" style="enable-background:new 0 0 145 200;" xml:space="preserve">
<path id="A8"  d="
	M88.75,94.09l0.12,0.06l0.84,1.13l0.01,0.01l0.05,0.07l0.06,0.07l0.07,0.1l0.12,0.15l0.32,0.42l0.09,0.12l0.28,0.36l0.07,0.1h0.01
	l0.23,0.31l0.19,0.25l0.01,0.02l0.24,0.3l0.1,0.13l0.05,0.07l0.08,0.1L91.8,98l0.14,0.19l0.08,0.11l0.13,0.16l0.22,0.3l0.11,0.13
	l0.04,0.06l0.06,0.07l0.54,0.71l0.03,0.05l0.14,0.18l0.3,0.39l0.49,0.64l0.03,0.04l0.08,0.1l0.28,0.37l0.09,0.11v0.01l0.05,0.06
	l0.04,0.05l0.02,0.03l0.06,0.08l0.02,0.02l0.04,0.05l0.22,0.29l0.04,0.06l0.02,0.02l0.07,0.1l0.32,0.42l0.15,0.19l0.15,0.19
	l0.15,0.2l0.12,0.16l0.09,0.12l0.07,0.09l0.1,0.13l0.08,0.11l0.03,0.03l0.16,0.21l0.03,0.04l0.03,0.04l0.07,0.1l0.09,0.11l0.13,0.17
	l0.1,0.13l0.13,0.17l0.06,0.08l0.04,0.05l0.21,0.27l0.44,0.58l0.01,0.01l0.06,0.08l0.21,0.27l0.03,0.05l0.16,0.21l0.02,0.02
	l0.14,0.19l0.17,0.22l0.14,0.18l0.15,0.2l0.2,0.26l0.03,0.04l0.12,0.15l0.16,0.21l0.07,0.1l0.15,0.26l0.09,0.12l0.09,0.11l0.08,0.11
	l0.16,0.21l0.15,0.19l0.1,0.13l0.1,0.13l0.2,0.27l0.2,0.25l0.11,0.15l0.07,0.09l0.11,0.15l0.14,0.18l0.11,0.15l0.12,0.15l0.11,0.14
	l0.11,0.15l0.12,0.15l0.11,0.15l0.02,0.03l0.1,0.13l0.3,0.39l0.02,0.03l0.16,0.2l0.08,0.11l0.02,0.03l0.34,0.43l0.18,0.24l0.11,0.15
	l0.45,0.49l0.35,0.47l0.06,0.07l2.02,2.7l4.95-3.26v-0.01l12.08-6.81l7.13-7.16l2.49-7.61l-0.06-0.11l1.12-6.61l0.06-0.17l0.48-1.53
	l0.8-2.19l0.09-0.27l0.57-1.34l2.01-3.93l1.49-2.88l0.4-1.18l0.14-0.53l0.3-1.21l0.59-2.89l0.29-1.88l0.04-0.23l0.3-2.4l0.19-2.21
	l0.16-2.95l0.13-2.63l0.01-0.14l0,0v-0.22l-0.05-0.46l-0.03-0.43l-0.01-0.5l0.01-0.44l-0.04-0.45l-0.02-0.44l-0.29-1.54l-0.15-0.77
	l-0.09-0.35l-0.15-0.55l-0.13-0.37l-0.14-0.37l-0.15-0.48l-0.31-1.44l-1.29-5.87l-0.16-0.75l-0.52-3.32l-0.48-3.05l-0.93-3.05
	l-1.8-5.84l-0.46-1.32l-2.09-5.98l-0.15-0.37l-0.51-1.54l-0.15-0.44l-0.78-2.3l-1.04-3.07l-0.14-0.39l-0.5-1.49l-0.51-1.46
	l-3.94,1.55l0.02,0.17l-0.14,0.51l-0.21,0.49l-0.29,0.38L124.06,9l-0.4,0.2l-0.42,0.05l-0.4-0.13l-0.32-0.24L122.3,8.6l-0.31-0.44
	l-0.26-0.26l-0.26-0.18l-0.39-0.16l-0.72-0.17l-0.73,0.27l-0.53,0.27l-0.22,0.12l-0.12,0.05l-0.2,0.11l-0.21,0.16l-0.18,0.18
	l-0.28,0.25l-0.18,0.11l-0.14,0.1l-0.31,0.15l-0.24,0.11l-0.3,0.09l-0.25,0.07l-0.28,0.07l-0.28,0.05l-0.27,0.02h-0.23l-0.15-0.01
	l-0.38-0.06l-0.13-0.04l-0.24-0.04l-0.14-0.04l-0.05-0.03l-0.16-0.1l-0.18-0.07l-0.22-0.11l-0.09-0.05l-0.52-0.23l-0.18-0.05
	l-0.12-0.03l-0.06-0.01h-0.1l-0.13-0.01l-0.25,0.07l-0.18,0.09l-0.1,0.06l-0.4,0.31l-0.11,0.16l-0.12,0.21l-0.29,0.6l-0.06,0.16
	L111,10.44l-0.08,0.13l-0.08,0.15l-0.17,0.13l-0.19,0.11l-0.23,0.09l-0.23,0.06h-0.09h-0.11l-0.24-0.04l-0.17-0.03l-0.19-0.06
	l-0.13-0.06l-0.1-0.03l-0.18-0.05l-0.07-0.01l-0.07-0.01l-0.1-0.01l-0.13-0.01h-0.16l-0.16,0.01l-0.19,0.02l-0.24,0.04l-0.16,0.03
	l-0.17,0.03l-0.18,0.02l-0.14,0.01h-0.13l-0.17,0.01l-0.16,0.01L106.44,11h-0.28l-0.14-0.02l-0.19-0.06l-0.12-0.04l-0.2-0.07
	l-0.29-0.16l-0.14-0.08l-0.21-0.11l-0.12-0.04l-0.13-0.03l-0.24-0.04l-0.25-0.02h-0.28l-0.36,0.02l-0.07,0.01h-0.06l-0.31-0.01
	l-0.22-0.03l-0.2-0.01l-0.28-0.04l-0.33-0.06l-0.15-0.02l-0.2-0.02l-0.25-0.01l-0.28,0.01h-0.25h-0.21l-0.33,0.02l-0.14,0.02
	l-0.1,0.01l-0.04,0.01l-0.09,0.01l-0.16,0.03l-0.12,0.02l-0.11,0.03l-0.13,0.03l-0.07,0.02l-0.04,0.01l-0.08,0.02L99,10.49
	l-0.23,0.08l-0.13,0.05l-0.05,0.03l-0.08,0.04l0.52,1.27l0.48,1.2l0.54,1.34l0.01,0.02l0.01,0.02v0.02l0.01,0.02v0.01v0.02v0.02
	v0.02v0.02l-0.01,0.02v0.02l-0.01,0.02l-0.01,0.02l-0.01,0.03l-0.01,0.02l-0.02,0.02L100,14.83L99.85,15l-0.22,0.09H99.6h-0.03
	h-0.06h-0.1l-0.06-0.01h-0.03l-0.11-0.01h-0.02h-0.06h-0.02h-0.02l-0.04,0.01l-0.04,0.01l-0.03,0.02h-0.01l-0.01,0.01l-0.02,0.01
	l-0.01,0.01l-0.01,0.01l-0.02,0.01l0,0l-0.02,0.04l-0.02,0.02l-0.01,0.02l-0.01,0.03l-0.01,0.02l-0.01,0.03v0.02l-0.01,0.03v0.02
	v0.03l-0.01,0.03v0.03v0.03l-0.01,0.06v0.03l0,0v0.03l-0.01,0.03v0.03l-0.01,0.03l-0.01,0.03l-0.01,0.03l-0.02,0.02l-0.01,0.03
	l-0.02,0.02l-0.02,0.02l-0.02,0.03l-0.07,0.06l-0.02,0.02l-0.1,0.08l-0.06,0.04l-0.05,0.03l-0.06,0.03l-0.03,0.01l-0.03,0.01
	l-0.06,0.03l-0.06,0.02l-0.07,0.02l-0.14,0.02h-0.07h-0.08l-0.07-0.01l-0.07-0.01l-0.06-0.02l-0.38-0.13l-0.06-0.01l-0.05-0.01
	h-0.09l-0.05,0.01l-0.02,0.01l-0.03,0.01l-0.04,0.03l-0.28,0.27l-0.03,0.02l-0.02,0.01l-0.04,0.02l-0.03,0.01H96.4l-0.06,0.01
	l-0.06-0.01l-0.04-0.01l-0.22-0.08l-0.06-0.01H95.9h-0.02h-0.01l-0.03,0.01l-0.02,0.01H95.8l-0.03,0.01l-0.02,0.01l-0.02,0.01
	l-0.02,0.01l-0.03,0.01l-0.02,0.01l-0.02,0.01l-0.01,0.01h-0.02l-0.01,0.01l-0.02,0.01h-0.02l-0.02,0.01h-0.01l-0.02,0.01h-0.04
	l-0.01-0.01l-0.18-0.03h-0.01l-0.03-0.01h-0.01h-0.02l-0.03-0.01h-0.03h-0.02h-0.01h-0.08l-0.29,0.02h-0.03l-0.05,0.01l-0.03,0.02
	l-0.01,0.01l-0.03,0.04l-0.02,0.03l-0.1,0.25l-0.01,0.02l-0.02,0.03l-0.02,0.03l-0.01,0.02l-0.04,0.04l-0.03,0.02l-0.03,0.02
	l-0.07,0.04l-0.04,0.02l-0.04,0.01l-0.04,0.01l-0.04,0.01h-0.08h-0.04l-0.08-0.02l-0.18-0.05l-0.08-0.02l-0.26-0.08l-0.08-0.03
	l-0.09-0.03l-0.02-0.01l-0.03-0.01h-0.03l-0.02-0.01l-0.03-0.01h-0.03l-0.03-0.01h-0.03l-0.02-0.01h-0.03h-0.02l-0.02-0.01
	l-0.11-0.01l-0.11-0.01h-0.02l-0.02-0.01h-0.01l-0.09-0.01h-0.01l-0.01-0.01H92.5h-0.02h-0.02l-0.01-0.01h-0.02h-0.01H92.4
	l-0.03-0.01h-0.04l-0.09-0.01l-0.1-0.01h-0.02h-0.05h-0.05l-0.01-0.01H92h-0.01l-0.05-0.01l-0.05-0.01l-0.1-0.03l-0.03-0.04
	l-0.05-0.02l-0.04-0.02l-0.13-0.02l-0.15-0.25l-0.22,0.06l-0.1,0.05l-0.13,0.01h-0.15l-0.16-0.01l-0.14-0.01l-0.22-0.01l-0.1,0.32
	l-0.03,0.05l-0.01,0.06l0.01,0.04l0.01,0.05l0.02,0.04l0.03,0.06v0.05v0.05l0.01,0.25l-0.02,0.02l-0.03,0.1l-0.02,0.1l-0.03,0.08
	l-0.03,0.09l-0.02,0.1v0.13v0.07l-0.01,0.08l-0.2,0.56l-0.02,0.05l-0.08,0.05l-0.33,0.08l-0.16-0.02l-0.25-0.04l-0.16-0.01
	l-0.05,0.01l-0.06-0.01l-0.37,0.01l-0.99-0.06l-0.4-0.1l-0.18-0.16l0.01-0.25l0.59-1.03V17.2v-0.01l0,0v-0.01v-0.01v-0.01v-0.01
	l-0.01-0.01v-0.01l0,0v-0.01l-0.01-0.01l0,0V17.1l-0.01-0.01l0,0l-0.01-0.01l0,0l-0.27-0.16l-0.17-0.08h-0.01H86.9l-0.01-0.01h-0.01
	h-0.01h-0.01h-0.01h-0.01h-0.01l-0.01,0.01l-0.7,0.31l0.1,2.89l0.02,0.61l0.03,0.29v0.16l0.68,20.39l-0.01,0.12l0.03,0.77l0.01,0.22
	l0.09,2.56l0.08,2.44l0.04,1.5l0.1,2.7l0.08,2.21l0.01,0.41l0.01,0.25l0.02,0.66l0.04,1.02l0.54,15.87l0.05,1.59l0.07,1.52
	l0.04,1.34l0.04,1.11l0.05,1.89l0.08,2.3l0.04,1.14l0.02,0.58l0.02,0.43v0.24l0.01,0.33l0.01,0.16l0.01,0.3v0.16l0.01,0.17v0.14
	l0.01,0.18l0.01,0.2l0.01,0.33v0.31v0.07l0.02,0.16l0.01,0.3v0.18v0.12l0.02,0.44h0.01l0.01,0.43l0.01,0.06l0.01,0.45l0.02,0.38
	l0.01,0.28v0.05v0.13l0.01,0.16l0,0v0.04l0.01,0.15l0.01,0.16h-0.01l0.01,0.18l0.01,0.21l0.01,0.48v0.08l0.01,0.08v0.16l0.01,0.14
	v0.24v0.16l0.01,0.15v0.06l0.01,0.16l0,0l0.01,0.28l0.01,0.25v0.21l0.05,0.89V94.09z"/>
<path id="A7"  d="
	M65.08,114.88L65.08,114.88l-0.06,0.1l0.35,0.33l0.06,0.07l0.15,0.14l0.1,0.11l0.11,0.11l0.26,0.26l0.12,0.12l0.07,0.08l0.08,0.08
	l0.09,0.09l0.07,0.06l0.08,0.08l0.17,0.18l0.08,0.08l0.08,0.08l0.08,0.08l0.08,0.09l0.09,0.08l0.08,0.08l0.09,0.1l0.09,0.08
	l0.07,0.08l0.07,0.07l0.05,0.05l0.07,0.07l0.07,0.07l0.09,0.09l0.07,0.07l0.12,0.12l0.13,0.14l0.06,0.05l0.14,0.15l0.13,0.13
	l0.06,0.06l0.08,0.08l0.05,0.05l0.12,0.12l0.79,0.5l0.15,0.09l0.11,0.07l0.22,0.13l0.11,0.06l0.11,0.07l0.14,0.08l0.14,0.08
	l0.23,0.14l0.06,0.04l0.18,0.11l0.1,0.07l0.1,0.06l0.11,0.06l0.09,0.06l0.1,0.07l0.08,0.04l0.02,0.02l0.11,0.07l0.08,0.05l0.1,0.06
	l0.09,0.05l0.17,0.11l0.17,0.11l0.21,0.13l0.04,0.02l0.11,0.08l0.11,0.06l0.09,0.06l0,0l0.05,0.03l0,0l0.06,0.04l0,0h0.01l0,0l0,0
	l0.09,0.06l0.14,0.09l0.09,0.05h0.01l0,0l0.06,0.04l0,0l0,0v0.01l0.13,0.08l0.21,0.13l0.14,0.08l0.13,0.08l0.14,0.09l0.11,0.07
	l0.08,0.05l0.08,0.05l0.08,0.04l0.08,0.05l0.06,0.04l0.04,0.03l0.11,0.06l0.08,0.05l0.09,0.06l0.09,0.05l0.09,0.06l0.12,0.08
	l0.09,0.07l0.09,0.06l0.1,0.07l0.13,0.1l0.08,0.06l0.09,0.06l0.09,0.07l0.15,0.1l0.14,0.1l0.09,0.06l0.09,0.06l0.1,0.08l0.01-0.01
	l0.08,0.05l-0.01,0.01l0.02,0.02l0.16,0.1l0.64,0.45l0.1,0.07l0.07,0.06l0.08,0.05l0.08,0.06l0.21,0.14l0.08,0.05l0.01,0.02
	l0.06,0.06l0.16,0.18l0.04,0.05l0.04,0.04l0.11,0.11l0.07,0.09l0.08,0.08l0.07,0.08l0.08,0.09l0.07,0.08l0.15,0.17l0.06,0.05
	l0.05,0.06l0.09,0.1l0.08,0.09l0.11,0.12l0.07,0.08l0.1,0.1l0.07,0.09l0.11,0.11l0.09,0.11l0.1,0.1l0.07,0.09l0.07,0.07l0.08,0.08
	l0.08,0.09l0.12,0.14l0.08,0.09l0.08,0.08l0.09,0.09l0.1,0.12l0.05,0.05l0.06,0.07l0.06,0.07l0.06,0.07l0.06,0.06l0.07,0.08
	l0.06,0.07l0.03,0.03l0.84,0.92l0.18,0.2l0.07,0.08l0.07,0.08l0.17,0.18l0.17,0.19l0.14,0.15l0.12,0.14l0.06,0.06l0.08,0.09
	l0.1,0.11l0.05,0.06l0.07,0.08l0.09,0.09l0.09,0.11l0.13,0.14l0.06,0.07l0.12,0.12l0.15,0.17l0,0v0.01h-0.01v0.01v0.01h-0.01v0.01
	l0,0v0.01h-0.01v0.01l-0.01,0.01v0.01v0.01h-0.01v0.01v0.01l-0.01,0.01v0.01l0,0l-0.01,0.01v0.01l0,0v0.01v0.01l-0.01,0.01l0,0v0.01
	v0.01l0,0v0.01v0.01h-0.01v0.01v0.01l0,0v0.01v0.01l0,0v0.01v0.01l0,0v0.01v0.01l0,0v0.01v0.01v0.01v0.01l0.01,0.01v0.01v0.01v0.01
	v0.01v0.01l0.01,0.01v0.01v0.01v0.01l0.01,0.01v0.01v0.01l0.01,0.01v0.01v0.01h0.01v0.01v0.01v0.01l0.01,0.01l0.01,0.01l0,0v0.01
	l0.01,0.01l0,0v0.01l0.01,0.01l0,0v0.01h0.01v0.01l0.01,0.01l0,0v0.01l0.01,0.01l0,0l0.01,0.01v0.01h0.01l0.43,0.26l0,0h0.01
	l0.01,0.01h0.01h0.01h0.01h0.01h0.01l0.01-0.01h0.02h0.01h0.02h0.01l0.02-0.01h0.01h0.02l0.01-0.01h0.02l0.3-0.28l0.01-0.01v-0.01
	l0.01-0.01v-0.01v-0.01l0.01-0.01v-0.01v-0.01v-0.01l0.01-0.01v-0.01v-0.01v-0.01v-0.01l0.01-0.01v-0.01v-0.01v-0.01l0.22-0.01
	l0.28-0.02l0.24,0.06l0.26-0.03l0.16-0.01l0.17-0.02l0.16-0.01l0.15-0.01l0.19-0.02l-0.04-0.44v-0.01v-0.02l0.01-0.01v-0.01v-0.01
	v-0.02v-0.01V131v-0.01v-0.01l0.01-0.01v-0.01v-0.01v-0.01v-0.01v-0.01l0.01-0.01v-0.01v-0.02v-0.01l0.01-0.02v-0.01v-0.02
	l0.01-0.01v-0.02v-0.01l0.01-0.02v-0.02l0,0l0.01-0.01l0,0v-0.02l0.01-0.01l0,0v-0.01v-0.01v-0.01h0.01v-0.01v-0.01l0.01-0.01v-0.01
	l0.01-0.01v-0.02l0.01-0.01v-0.02l0.01-0.01l0.01-0.01v-0.02l0.01-0.01l0.08-0.17l0.01-0.01l0.01-0.01l0.01-0.01l0.01-0.02v-0.01
	l0.01-0.01l0.01-0.01l0.01-0.01l0.01-0.02l0.01-0.01l0,0l0.01-0.01v-0.01l0,0l0.01-0.01l0,0l0.01-0.01v-0.01h0.01v-0.01h0.01v-0.01
	l0,0l0.01-0.01l0,0l0.01-0.01l0.01-0.01l0.01-0.01l0.01-0.01l0.01-0.02l0.01-0.01l0.01-0.01l0.01-0.01l0.01-0.01l0.01-0.01l0,0
	l0.01-0.01l0.01-0.01l0,0h0.01l0.01-0.01l0.01-0.02l0.02-0.01l0.01-0.01l0.01-0.01l0.02-0.01l0.01-0.01l0.01-0.01l0.02-0.01
	l0.17-0.12h0.01l0,0l0.01-0.01h0.01v-0.01h0.01h0.01l0.01-0.01l0,0h0.01v-0.01h0.01h0.01v-0.01h0.01h0.01v-0.01h0.01h0.01v-0.01
	h0.01h0.01l0.01-0.01l0,0h0.01l0.01-0.01h0.01l0,0l0.01-0.01l0,0h0.01h0.01l0,0l0.01-0.01l0,0h0.01h0.01l0.01-0.01h0.01l0.02-0.01
	h0.01h0.01l0.01-0.01h0.01h0.02l0.01-0.01l0,0h0.01l0.01-0.01h0.01h0.01h0.01l0.01-0.01h0.01l0.43-0.1l-0.12-1.44l0.19-0.02
	l0.2-0.02l0.16-0.01l0.17-0.02l0.16-0.01l0.17-0.02l0.22-0.02l0.19-0.01l0.23-0.02l0.18-0.02l0.13-0.01l0.22-0.02l0.24-0.02
	l0.12-0.01l0.25-0.02l0.21-0.02l0.18-0.02l0.19-0.01l0.19-0.02l0.17-0.02l0.16-0.01l0.16-0.01l0.23-0.03l0.19-0.01l0.41-0.04
	l4.85-0.29l0.56-2.21l2.25-3.64l5-4.4l0.36-0.24l-2.02-2.7l-0.06-0.07l-0.35-0.47l-0.45-0.49l-0.11-0.15l-0.18-0.24l-0.34-0.43
	l-0.02-0.03l-0.08-0.11l-0.16-0.2l-0.02-0.03l-0.3-0.39l-0.1-0.13l-0.02-0.03l-0.11-0.15l-0.12-0.15l-0.11-0.15l-0.11-0.14
	l-0.12-0.15l-0.11-0.15l-0.14-0.18l-0.11-0.15l-0.07-0.09l-0.11-0.15l-0.2-0.25l-0.2-0.27l-0.1-0.13l-0.1-0.13l-0.15-0.19
	l-0.16-0.21l-0.08-0.11l-0.09-0.11l-0.09-0.12l-0.15-0.26l-0.07-0.1l-0.16-0.21l-0.12-0.15l-0.03-0.04l-0.2-0.26l-0.15-0.2
	l-0.14-0.18l-0.17-0.22l-0.14-0.19l-0.02-0.02l-0.16-0.21l-0.03-0.05l-0.21-0.27l-0.06-0.08l-0.01-0.01l-0.44-0.58l-0.21-0.27
	l-0.04-0.05l-0.06-0.08l-0.13-0.17l-0.1-0.13l-0.13-0.17l-0.09-0.11l-0.07-0.1l-0.03-0.04l-0.03-0.04l-0.16-0.21l-0.03-0.03
	l-0.08-0.11l-0.1-0.13l-0.07-0.09l-0.09-0.12l-0.12-0.16l-0.15-0.2l-0.15-0.19l-0.15-0.19l-0.32-0.42l-0.07-0.1l-0.02-0.02
	l-0.04-0.06l-0.22-0.29l-0.04-0.05l-0.02-0.02l-0.06-0.08l-0.02-0.03l-0.04-0.05l-0.05-0.06v-0.01l-0.09-0.11l-0.28-0.37l-0.08-0.1
	l-0.03-0.04l-0.49-0.64l-0.3-0.39l-0.14-0.18l-0.03-0.05l-0.54-0.71l-0.06-0.07l-0.04-0.06l-0.11-0.13l-0.22-0.3l-0.13-0.16
	l-0.08-0.11L91.8,98l-0.11-0.14l-0.08-0.1l-0.05-0.07l-0.1-0.13l-0.24-0.3l-0.01-0.02l-0.19-0.25l-0.23-0.31h-0.01l-0.07-0.1
	l-0.28-0.36l-0.09-0.12l-0.32-0.42l-0.12-0.15l-0.07-0.1l-0.06-0.07l-0.05-0.07l-0.01-0.01l-0.84-1.13l-0.12-0.06l-0.06,0.03
	l-0.2,0.1l-0.71,0.35l-0.17,0.09l-0.11,0.05l-0.1,0.05l-0.11,0.06l-0.12,0.06l-0.1,0.05L86.91,95l-0.16,0.09l-0.15,0.07l-0.16,0.08
	l-0.11,0.05l-0.05,0.03l-0.13,0.06l-0.04,0.02l-0.1,0.06l-0.11,0.05l-0.1,0.05l-0.14,0.07l-0.1,0.05l-0.08,0.04l-0.1,0.05l-0.1,0.05
	l-0.18,0.09l-0.12,0.06l-0.72,0.35l-0.08,0.04l-0.14,0.07l-0.12,0.06l-0.13,0.07l-0.14,0.07l-0.05,0.02l-0.09,0.05l-0.09,0.04
	L83.3,96.8l-0.11,0.06l-0.12,0.06l-0.14,0.07l-0.17,0.08l-0.13,0.07l-0.14,0.07l-0.15,0.07l-0.16,0.08l-0.14,0.08l-0.18,0.08
	l-0.14,0.07l-0.14,0.07l-0.14,0.08l-0.61,0.29l-0.06,0.03l-0.14,0.07l-0.14,0.07l-0.02,0.01l-0.07,0.04l-0.1,0.05l-0.11,0.05
	l-0.11,0.06l-0.13,0.06l-0.09,0.04l-0.05,0.03l-0.08,0.04l-0.08,0.04l-0.09,0.04l-0.04,0.02l-0.04,0.02l-0.19,0.09l-0.03,0.02
	l-0.07,0.04l-0.17,0.08l-0.03,0.01l-0.3,0.15l-0.14,0.07l-0.25,0.13h-0.02l-0.1,0.05l-0.15,0.08l-0.08,0.04l-0.18,0.09l-0.17,0.08
	L76.87,100l-2.05,1.02l-0.18,0.09h-0.01l-0.23,0.12l-0.29,0.15l-0.2,0.1l-0.07,0.05l-0.08,0.04l-0.22,0.14l-0.24,0.17l-0.1,0.07
	l-0.1,0.08l-0.14,0.11l-0.17,0.15l-0.11,0.09l-0.17,0.17l-0.06,0.06l-0.25,0.28l-0.13,0.15l-0.11,0.15l-0.14,0.19l-0.09,0.13
	l-0.08,0.13l-0.38,0.65l-0.07,0.12l-0.21,0.35l-0.36,0.61l-0.38,0.66l-0.04,0.06l-0.74,1.27l-0.04,0.07l-0.04,0.07l-0.13,0.22
	l-0.1,0.18l-0.12,0.2l-0.14,0.23l-0.23,0.41l-0.08,0.12l-0.11,0.2l-0.12,0.21l-0.07,0.11l-0.1,0.18l-0.02,0.04l-0.04,0.06
	l-0.07,0.12l-0.18,0.31l-0.1,0.17l-0.06,0.09l-0.09,0.17l-0.09,0.14l-0.15,0.27l-0.08,0.14l-0.1,0.16l-0.08,0.14l-0.08,0.13
	l-0.08,0.13l-0.1,0.18l-0.06,0.11l-0.05,0.09l-0.1,0.17l-0.09,0.14l-0.05,0.1l-0.05,0.07l-0.08,0.14l-0.02,0.04l-0.12,0.2l-0.1,0.17
	l-0.08,0.14l-0.08,0.14l-0.08,0.14l-0.18,0.3l-0.12,0.2l-0.1,0.19l-0.09,0.14l-0.04,0.08l-0.06,0.09l-0.06,0.11l-0.1,0.16
	L65.08,114.88z"/>
<path id="A6"  d="
	M64.37,116.09l-0.92-0.32l-0.08-0.02l-0.07-0.03l-0.12-0.04l-0.09-0.04l-0.19-0.09l-0.2-0.1l-0.34-0.17l-0.29-0.14l-0.26-0.12
	l-0.28-0.12l-0.5-0.18l-0.71-0.25l-0.41-0.15l-0.15-0.07l-0.22-0.11l-0.09-0.04l-0.14-0.07l-0.11-0.05l-0.44-0.22l-0.3-0.15
	l-0.21-0.12l-0.14-0.11l-0.19-0.15l-0.28-0.22l-0.15-0.12l-0.26-0.22l-0.2-0.16l-0.19-0.14l-0.29-0.21l-0.12-0.09l-0.24-0.19
	l-0.18-0.14l-0.19-0.13l-0.1-0.08l-0.42-0.48l-0.08-0.09l-0.25-0.28l-0.07-0.08l-0.15-0.16l-0.19-0.19l-0.5-0.41l-0.05-0.05
	l-0.11-0.1l-0.13-0.11l-0.09-0.07l-0.03-0.03l-0.03-0.03l-0.1-0.11l-0.06-0.06l-0.03-0.04l-0.01-0.01l-0.06-0.06l-0.04-0.04
	l-0.01-0.01l-0.02-0.03l-0.23-0.29l-0.18-0.22l-0.17-0.21l-0.03-0.04l-0.09-0.09l-0.07-0.08l-0.01-0.01l-0.03-0.03l-0.04-0.04
	l-0.08-0.06l-0.03-0.03l-0.04-0.03l-0.06-0.05l-0.25-0.2l-0.12-0.11l-0.08-0.06l-0.17-0.14l-0.22-0.18l-0.16-0.13l-0.15-0.12
	l-0.05-0.04l-0.09-0.07l-0.03-0.03l-0.15-0.12l-0.24-0.2l-0.08-0.06l-0.11-0.09l-0.13-0.1l-0.19-0.16l-0.17-0.14l-0.12-0.1
	l-0.26-0.21l-0.44-0.36l-0.22-0.17l-0.15-0.13l-0.64-0.55l-0.16-0.14l-0.16-0.14l-0.24-0.19l-0.03-0.03l-0.15-0.11l-0.07-0.04
	l-0.18-0.13l-0.91-0.59L45.95,103l-0.16-0.08l-0.35-0.12l-1.03-0.23l-0.19-0.04l-0.34-0.06l-0.09-0.02l-0.16-0.05l-0.06-0.02
	l-0.14-0.05l-0.52-0.22l-0.14-0.06l-0.45-0.15l-0.11-0.02L42,101.83l-0.22-0.05l-0.07-0.01l-1.16-0.26l-0.16-0.08l-0.3-0.13
	l-0.05-0.02l-0.24-0.1l-0.24-0.15l-0.08-0.06l-0.05-0.04l-0.1-0.08l-0.1-0.09l-0.11-0.1l-0.43-0.4l-0.38-0.35l-0.37-0.39l-0.44-0.44
	l-0.22-0.2l-0.26-0.24l-0.44-0.38l-0.07-0.07l-0.22-0.18l-0.34-0.26l-0.3-0.23l-0.3-0.18l-0.16-0.1L35,97.11l-0.17-0.1l-0.15-0.09
	L34.5,96.8l-0.36-0.22L34,96.49l-0.27-0.18l-0.26-0.15l-0.22-0.15l-0.17-0.1l-0.23-0.15l-0.24-0.15l-0.33-0.21l-0.39-0.28
	l-0.09-0.08l-0.27-0.25l-0.07-0.09l-0.19-0.23l-0.2-0.24L30.87,94l-0.71-0.93l-0.09-0.12l-0.06-0.08l-0.06-0.06l-0.08-0.1
	l-0.44-0.61l-0.64-0.79l-0.1-0.14l-0.27-0.29l-0.13-0.16l-0.23-0.28l-0.15-0.18l-0.23-0.27l-0.15-0.15l-0.06-0.07l-0.03-0.03
	l-0.24-0.25l-0.06-0.06l-0.78-0.8l-0.59-0.61l-0.68-0.7l-0.6-0.63l-0.36-0.36l-0.3-0.32l-1.15-1.19l-0.26-0.31l-1.36-1.41
	l-0.36-0.34l-0.07-0.08l-1.79-1.85l-0.08,0.11l-0.86,2.59l-0.18,0.56l-0.15,0.48l-0.81,2.5v0.02l-0.5,1.55l-0.01,0.04l-0.01,0.03
	v0.02l-0.02,0.06v0.01l-0.15,0.47l0,0l-0.16,0.47l-0.06,0.18l-0.16,0.24l-0.08,0.11l-0.06,0.09l-0.36,0.5l-0.75,1.04l-0.1,0.14
	l0.43,0.14l0.06,0.03l0.07,0.03l0.09,0.03l0.17,0.07l0.05,0.01l0.09,0.04l0.11,0.04l0.09,0.05l0.16,0.06l0.14,0.06l0.15,0.06
	l0.06,0.03l0.06,0.03l0.08,0.04l0.07,0.04l0.1,0.05l0.08,0.05l0.09,0.04l0.1,0.06l0.24,0.14l0.04,0.05l0.04,0.04l0.21,0.22
	l0.08,0.07l0.08,0.09l0.05,0.06l0.19,0.17l0.32,0.36l-0.22,0.55l-0.03,0.09l-0.06,0.1l-0.07,0.08l-0.19,0.22l-0.1,0.12l-0.09,0.13
	l-0.32,0.41l-0.15,0.19l-0.07,0.13l-0.49,0.62l0,0l-0.1,0.12l-0.21,0.26l-0.18,0.25l-0.2,0.25l-0.05,0.07l-0.2,0.28L15,98.21
	l-0.22-0.12l-0.24-0.13l-0.02-0.01l-0.14-0.08l-0.08-0.05l-0.23-0.13l-0.24-0.13l-0.21-0.12l-0.19-0.1l-0.03-0.02l-0.12-0.06
	l-0.17,0.28l-0.38,0.62l-0.02,0.09l-0.12,0.15l-0.34,0.4l-0.2,0.24l-0.11,0.13l-0.05,0.07l-0.53,0.63l-0.14,0.16l-0.06,0.08
	l-0.15,0.19l-0.07,0.07l-0.04,0.06l-0.13,0.14l-0.08-0.02l-1.01-0.23l-0.1-0.01l-0.07-0.02l-0.74-0.17l-0.21-0.05l-0.21,0.52
	l-0.02,0.06l-0.06,0.14l-0.05,0.13l-0.01,0.03l-0.04,0.1l-0.06,0.14l-0.06,0.15l0.3,0.08l0.21,0.06l-0.07,0.15l-0.14,0.31
	l-0.13,0.29l-0.13,0.29l-0.13,0.29l-0.02,0.03l0.11,0.07l0.16,0.1l0.04,0.03l0.06,0.03l0.15,0.09l0.13,0.07l0.12,0.08h0.01
	l0.14,0.08l0.01-0.03l0.08,0.05l0.04,0.02l-0.07,0.13h0.01l0.12,0.08l0.12,0.08h0.01l0.15,0.1l0.02,0.01l0.06-0.01h0.04l0.06-0.01
	l0.2-0.02l0.07,0.04l0.15,0.09h0.01l0.02,0.01l0.02,0.02l0.08,0.04L10.05,104l-0.26,0.36l-0.01,0.02l-0.09,0.13l-0.13,0.19
	l-0.05,0.07l-0.08,0.11l-0.14,0.18l-0.13,0.19l-0.08,0.12l-0.05,0.06l-0.05,0.07l-0.08,0.12l-0.02,0.03l-0.05,0.08l-0.06,0.07
	l-0.04,0.06l-0.09,0.13l-0.13,0.18l-0.15,0.21l-0.1,0.14l-0.05,0.08l-0.2,0.27l0.3,0.16l0.24,0.11l0.23,0.12l0.23,0.11l0.28,0.13
	l-0.22,0.08l-0.15,0.05l-0.08,0.03l-0.35,0.08l0.4,0.18l0.55,0.23l0.03,0.01l0.15,0.06l0.31,0.13l-0.36,0.99l-0.04,0.1l-0.08,0.24
	l-0.09,0.23l-0.06,0.16l0.16-0.04l0.15,0.07l0.43-0.08l0.06-0.08l0.18,0.08l0.71,0.35l-0.27,1.02l-0.26,0.97l-0.07,0.28l-0.01,0.04
	l-0.16-0.02l-0.13-0.01l-0.11-0.01H9.96l-0.08-0.01l-0.16-0.02l-0.11-0.01H9.59l-0.02,0.14l-0.03,0.11l-0.01,0.06l-0.05,0.26
	l-0.01,0.09v0.01l-0.04,0.23l-0.03,0.22l-0.04,0.22l0.01,0.22l-0.01,0.22l-0.01,0.21v0.13l0.01,0.09h0.01v0.22l0.02,0.22v0.26
	l-0.03,0.23v0.05l-0.01,0.1l0.05,0.01l0.1,0.04l1.12,0.39l1.87,0.4l0.58-0.02v-0.06l0.12-0.02h0.03l0.12-0.01l0.73-0.04l0.02-0.09
	l1.64,0.58l-0.03,0.09l-0.08,0.2l-0.16,0.46l-0.24,0.74l-0.1,0.25l-0.03,0.05l-0.13,0.39l-0.09,0.28l-0.09,0.26l-0.05,0.15
	l-0.08,0.22l-0.01,0.02l-0.01-0.01l-0.01,0.02l-0.11,0.26v0.01l-0.1,0.26l-0.07,0.18l-0.08,0.21l-0.08,0.18l-0.1,0.26l-0.07,0.19
	l-0.08,0.18l-0.01,0.02l-0.08,0.17l-0.07,0.17v0.02l-0.1,0.23l-0.01,0.02l-0.02,0.03l0.25,0.16h0.01l0.05,0.03l0.13,0.08l0.09,0.05
	l0.26,0.17l0.05,0.02l0.09,0.07l0.06,0.05l-0.05,0.12l-0.03,0.06l-0.05,0.11v0.01l-0.05,0.11v0.02l-0.05,0.1l-0.01,0.02l-0.04,0.1
	l-0.01,0.02l-0.01,0.02l-0.01,0.04l-0.01,0.02l-0.19,0.42l0.17,0.2l-0.02,0.01l-0.09,0.17l-0.03,0.06l0,0l0.01,0.03l0.1,0.14
	l0.02,0.02l-0.04,0.05l-0.03,0.06l-0.1,0.14l-0.09,0.14l-0.09,0.14l-0.06,0.09l-0.04,0.07l-0.26,0.38l-0.08,0.13l1.98,0.31
	l0.07,0.11l0.05,0.09l0.27,0.07l0.11,0.03l0.62,0.45l0.07,0.04l0.13,0.09l0.19,0.13l0.14,0.08l0.13,0.09l0.13,0.08l0.02,0.01
	l-0.01,0.02l-0.32,0.63L17,128.6l-0.06,0.16l-0.01,0.02l-0.09,0.26l-0.44,1.46l0.68,0.22l0.39,0.12l0.03,0.01l0.1,0.04l0.09,0.02
	l0.08,0.03l0.14,0.05l0.06,0.02l0.14,0.04l0.1,0.03l0.04,0.02l0.42,0.13v0.01l0,0l0.01,0.04l0.1,0.65l0.07,0.38l0.01,0.07l0.04,0.26
	l0.04,0.22l0.01,0.09l0.04,0.21l0.07,0.45l0.02,0.1l0.03,0.18l0.05,0.37l0.17,1.03l0.04,0.24l0.01,0.07l0.02,0.09l0.01,0.04
	l0.02,0.16l0.03,0.56v0.02l-0.04,0.15v0.1l0.05,0.06l0.01,0.02l0.32,0.53l0.43,0.03l0,0l0.01,0.07l0.01,0.03l0.05,0.27l0.06,0.33
	l0.03,0.08l0.02,0.08v0.02l0.02,0.08l0.01,0.06l0.07,0.22l0.15,0.22v0.01l0.14,0.23l0.03,0.04l0.13,0.16l0.05,0.06l0.11,0.14
	l0.07,0.08l0.12,0.16l-0.03,0.09l0.16,0.06l0.58,0.18l0.29,0.05h0.05l0.15,0.03l0.34,0.05l0.15,0.03h0.02l0.06,0.01l0.21,0.03
	l0.2,0.03h0.06l0.13,0.03h0.01l0.24,0.03l0.16,0.02l0.06,0.01l0.05,0.01l0.11,0.02l0.24,0.03l0.09,0.01l0.11,0.02h0.05l0.16,0.02
	l0.2,0.03l0.05,0.01h0.01l0.14,0.02h0.07l0.04,0.01l0.32,0.04l0.02,0.01l0.15,0.02l0.15,0.01l0.01,0.01l0.14,0.01l0.07,0.01v0.01
	l0.21,0.02l0.04,0.01h0.03l0.13,0.02l0.06,0.01h0.04l0.42,0.06l0.16,0.01h0.01l0.15,0.01h0.02h0.09h0.03h0.06h0.19h0.04h0.11h0.02
	h0.03h0.1h0.11h0.11h0.12h0.02h0.51l0.24-0.01h0.14h0.13l0.13-0.01h0.07h0.22h0.02h0.14h0.02l0.14-0.01h0.08h0.32l0.25-0.01h0.08
	l0.08,0.01l0.31,0.05l0.19,0.02l0.07,0.01l0.06,0.01l0.11,0.01l0.1,0.01l0.21,0.02l0.18,0.02l0.15,0.03l0.09,0.01l0.25,0.04
	l0.4,0.05l0.12,0.01l0.16,0.01l0.21,0.02l0.16,0.01l0.23,0.02l0.23,0.02l0.16,0.01l0.32,0.03l0.11,0.01l0.12,0.01l0.56,0.05
	l1.26,0.21l0.3,0.05l0.08,0.01l0.1,0.01l0.06,0.01l0.5,0.09l0.15,0.02h0.13h0.16l0.17-0.01h0.09h0.08h0.12h0.2h0.06h0.12h0.07h0.07
	h0.05h0.06h0.18l0.14,0.01h0.04h0.06l0.02,0.01l0.09,0.01l0.2,0.03l0.2,0.03l0.19,0.03l0.02,0.01l0.06,0.01l0.12,0.01l0.15,0.03
	l0.05,0.01l0.06,0.01l0.23,0.03l0.08,0.02l0.22,0.04l0.21,0.04l0.07,0.01l0.11,0.02l0.12,0.02l0.08,0.02h0.03l0.1,0.02l0.15,0.03
	l0.08,0.02l0.18,0.04l0.2,0.04l0.05,0.01l0.16,0.06l0.08,0.03l0.08,0.03l0.05,0.02l0.03,0.01l0.04,0.02l0,0l0.06,0.02l0.07,0.04
	l0.08,0.03l0.07,0.04l0.04,0.02l0.08,0.03l0.01,0.01l0.02,0.01l0.05,0.02l0.01,0.01l0.05,0.02l0.02,0.01l0.06,0.03l0.04,0.02
	l0.04,0.02l0.07,0.04h0.01l0.03,0.02l0.1,0.07l0.05,0.03l0.06,0.05l0.03,0.02l0.1,0.06l0.01,0.02l0.05,0.03l0.04,0.04l0.1,0.08
	l0.05,0.04l0.08,0.07l0.01,0.01l0.02,0.01l0.04,0.03l0.03,0.03l0.1,0.06l0.12,0.08l0.05,0.03l0.12,0.07l0.04,0.03l0.18,0.11
	l0.04,0.02l0.04,0.03l0.06,0.03l0.08,0.04l0.04,0.03l0.03,0.01l0.02,0.01l0.05,0.03l0.07,0.04l0.01,0.01l0.03,0.01l0.03,0.03
	l0.03,0.01l0.11,0.07l0.07,0.04l0.05,0.04l0.04,0.02l0.03,0.02l0.35,0.24l0.22,0.01l0.1,0.06l0.04,0.03l0.1,0.06l0.08,0.05
	l0.08,0.05l0.08,0.05l0.12,0.06l0.06,0.03l0.16,0.08l0.03,0.02l0.08,0.04l0.08,0.03l0.15,0.07l0.25,0.12l0.05,0.02l0.07,0.03
	l0.06,0.03l0.06,0.02l0.06,0.03l0.07,0.02l0.16,0.05l0.08,0.02l0.11,0.03l0.15,0.03l0.09,0.02l0.13,0.03l0.09,0.02l0.16,0.04
	l0.14,0.03l0.1,0.02l0.11,0.03l0.13,0.03l0.14,0.03l0.15,0.04l0.11,0.02l0.05,0.01l0.1,0.02l0.1,0.03l0.04,0.01l0.14,0.03l0.04,0.01
	l0.13,0.01l0.09,0.01h0.05l0.1,0.01h0.05l0.08,0.01l0.1,0.01l0.14,0.01l0.19,0.01l0.14-0.02l0.17-0.03l0.11-0.01l0.18-0.03
	l0.12-0.02l0.13-0.03l0.07-0.02l0.13-0.04l0.1-0.03l0.14-0.04l0.15-0.04l0.09-0.03l0.16-0.04l0.13-0.04l0.17-0.09h0.09l0.48-0.03
	l0.09-0.01h0.1l0.08-0.01h0.04l0.17-0.01h0.02l0.1,0.01h0.01h0.11l0.11,0.01h0.12h0.08l0.14,0.01h0.08h0.1l0.14,0.01h0.14l0.1,0.01
	h0.14l0.12,0.01h0.16l-0.03-1.73l-0.04-1.45l0.01-0.11l-0.06-1.79l-0.04-1.3l-0.02-2.2l-0.01-0.84l-0.05-1.17l0.02-1.06l0.03-0.29
	l0.09-0.36l0.62-1.95l0.49-1.45l0.16-0.47l0.25-0.74l0.35-1.01l0.92-2.83l1.69-2.89l1.13-1.97l1.71-2.88l0.46-0.84L64.37,116.09z"/>
<path id="A5"  d="
	M46.83,144.45l-0.74,0.11l-0.13,0.01l-0.2,0.03h-0.07l-0.31,0.03h-0.09l-0.24,0.02l-0.06,0.01l-0.22,0.03l-0.05,0.01l-0.28,0.07
	l-0.1,0.06l-0.24,0.13l-0.16,0.27l-0.06,0.1l-0.01,0.03l-0.02,0.03l-0.06,0.11l-0.15,0.27l-0.03,0.05l-0.04,0.07l-0.03,0.06
	L43.51,146l-0.04,0.06l-0.03,0.06l-0.05,0.1l-0.04,0.09l-0.04,0.08l-0.09,0.23l-0.06,0.15l-0.02,0.06l-0.07,0.15l-0.02-0.01
	L43,147.1l-0.04,0.12l-0.02,0.05l-0.06,0.18l-0.07,0.15l-0.03,0.08l-0.01,0.01l-0.04,0.1l-0.05,0.12l-0.08,0.18l-0.1,0.24
	l-0.09,0.21l-0.08,0.17l-0.07,0.17l-0.03,0.05l0.03,0.01l-0.09,0.23l-0.04,0.01l-0.05-0.02h-0.01l-0.05-0.02l-0.06-0.02l-0.18-0.07
	l-0.03-0.01l-0.03,0.07l-0.04,0.08l-0.04,0.08l-0.04,0.09l-0.1,0.21l-0.1,0.23l-0.03,0.06l-0.06,0.13l-0.04,0.09l-0.06,0.13
	l-0.02,0.04l-0.06,0.13l-0.04,0.09l-0.05,0.1l-0.12,0.15l-0.09,0.1l-0.1,0.11l-0.07,0.06l-0.13,0.08l-0.08,0.05l-0.13,0.07
	l-0.13,0.06l-0.1,0.06l-0.07,0.03l-0.15,0.09l-0.14,0.07l-0.14,0.08l-0.16,0.11l-0.14,0.09l-0.13,0.11l-0.1,0.09l-0.33,0.26
	l-0.26,0.23l-0.1,0.15l-0.11,0.14l-0.03,0.05l-0.04,0.05L38.11,153l-0.08,0.12l-0.12,0.21l-0.03,0.04l-0.04,0.06l-0.03,0.06
	l-0.03,0.05l-0.02,0.05l-0.04,0.08l-0.04,0.09l-0.05,0.14l-0.02,0.1l-0.03,0.19l-0.04,0.26l-0.03,0.18l-0.02,0.2l-0.06,0.41
	l-0.04,0.24v0.03l-0.01,0.09l-0.02,0.12l-0.01,0.02v0.03l-0.02,0.11l-0.01,0.11l-0.01,0.04l-0.01,0.08l-0.01,0.09l-0.02,0.07
	l-0.01,0.09l-0.01,0.1l-0.02,0.1l-0.02,0.11l-0.01,0.06l-0.01,0.1l0.01,0.1v0.1l0.03,0.14l0.03,0.11l0.13,0.53l0.01,0.07l0.16,0.6
	l0.07,0.2l0.04,0.13l0.05,0.13l0.1,0.31l0.04,0.12l0.03,0.08l0.03,0.09l0.03,0.09l0.09,0.22l0.03,0.08l0.06,0.16l0.04,0.09
	l0.08,0.22l0.11,0.52l0.05,0.46l0.02,0.14l0.08,0.56l0.01,0.05l0.02,0.14l0.03,0.34v0.04l-0.01,0.03l-0.25,0.05l-0.11,0.02
	l-0.24,0.04h-0.21h-0.36l-0.24,0.09l0.08,0.13l-0.07,0.21l-0.03,0.1l-0.03,0.11l-0.03,0.1l-0.03,0.1l-0.02,0.06l-0.07,0.22
	l-0.18,0.64l-0.05,0.15l-0.02,0.06l-0.03,0.11l-0.08,0.05h-0.25h-0.22h-0.17h-0.06l-0.22,0.01l-0.15,0.01l-0.02,0.18l-0.07,0.87
	l-0.02,0.42v0.08l-0.02,0.39l-0.02,0.2l-0.06,0.93l-0.01,0.24l-0.01,0.15l-0.01,0.18l-0.03,0.37l0.1,0.13l0.13-0.04l0.63-0.15
	l0.07-0.02l0.14-0.03l0.22-0.05l0.24,0.03l0.17,0.02l0.09,0.02l0.58,0.13h0.02l0.01,0.01v0.02l-0.04,0.29l-0.01,0.1l-0.02,0.17
	l-0.01,0.06l-0.01,0.08l-0.01,0.13l0.06,0.21l0,0l0.09-0.02h0.02l0.05-0.01l0.04-0.02l0.09-0.02l1.18-0.51h0.08l0.07-0.02h0.01
	l0.26,0.04l0.46,0.23l0.22,0.03l0.31,0.1h0.01l0.02,0.01l0.4,0.2l0.01-0.01h0.03l0.02,0.01l0.03,0.01l0.03,0.02l0.01,0.03h0.01
	l0.03,0.07l0.02,0.09l0.02,0.09l0.01,0.07l0.25,0.24l0.62-0.21l0.05,0.02l0.24,0.15l0.1,0.11l0.02,0.04l0.2,0.31l0.26,0.41
	l0.07,0.11l0.25,0.39l0.06,0.1l0.16,0.29l0.25-0.1l0.31-0.12l0.3-0.1l0.04-0.02l0.01,0.02l0.07-0.01l0.07-0.02l0.13-0.04h0.03
	l0.42-0.11l0.13-0.03l0.07-0.02l0.34-0.09l0.14-0.05l0.06,0.02l0.04,0.01l0.11,0.22l0.12,0.23l0.07,0.15l0.04,0.08l0.05,0.11
	l0.05,0.09l0.01,0.03l0.08,0.21l0.1,0.19l0.01-0.01l0.11,0.23l0.08,0.15l0.13,0.26l0.09,0.18l0.12,0.25l0.04,0.07l0.07,0.14
	l0.04,0.08l0.15,0.31l0.13,0.27l0.13,0.26l0.18,0.38l0.13-0.06l0.29-0.13l0.01,0.01l0.1-0.03l0.28-0.1l0.25-0.09l-0.01-0.03
	l0.09-0.02l0.04-0.02l0.07-0.02l0.05-0.02l0.01,0.03l0.11-0.04l0.07,0.03l0.01,0.02l0.1,0.31l0.13,0.36l0.09,0.26l0.06,0.18
	l0.11,0.34l0.08,0.25l0.12,0.34h-0.01l0.1,0.27l0.09,0.26l0.04,0.13l0.07,0.2l0.03,0.09l0.21-0.12l0.12-0.05l0.07-0.03l0.13-0.06
	l0.07-0.03l0.06-0.03l0.17-0.06l0.15-0.06l0.13-0.04l0.09-0.03l0.05-0.02l0.07-0.01l0.06-0.02l0.14-0.03l0.35-0.09l0.36-0.07
	l0.1-0.02l0.41-0.03l0.23-0.02l0.18-0.01l0.15,0.02l0.12,0.03l0.12,0.04l0.38,0.09l0.04,0.01l0.14,0.03l0,0l0.08,0.02l0.1,0.02
	l0.2,0.03h0.07l0.27-0.04l0.08-0.06l0.07-0.05l0.07-0.05l0.12-0.08l0.07-0.05l0.06-0.04l0.08-0.06l0.12-0.1l0.12-0.1l0.11-0.09
	l0.16-0.13l0.12-0.07h0.01l0.26-0.15l0.23-0.13l0.02-0.01l0.08-0.05l0.1-0.05l0.09-0.05l0.12-0.06l0.1-0.05l0.18-0.09l0.08-0.05
	l0.09-0.06l0,0l0.06-0.04l0.08-0.05l0.1-0.07l0.07-0.04l0.19-0.13l0.03-0.02l0.11-0.08l0.18-0.12l0.13-0.09l0.13-0.09l0.12-0.08
	l0.13-0.08l0.15-0.08l0.16-0.09l0.09-0.05l0.14-0.07l0.09-0.06l0.11-0.08l0.09-0.07l0.13-0.1l0.1-0.11l0.08-0.08l0.18-0.19
	l0.31-0.31l0.3-0.31l0.35-0.35l0.09-0.07l0.12-0.11l0.11-0.09l0.08-0.08l0.13-0.11l0.05-0.04l0.16-0.14l0.07-0.07l0.12-0.14
	l0.01-0.01l0.01-0.03l0.05-0.05l0.01-0.01l0.02-0.03l0.03-0.04l0.04-0.07l0.04-0.07l0.04-0.07l0.04-0.06l0.05-0.08l0.02-0.03
	l0.02-0.04l0.04-0.06l0.05-0.08l0.04-0.07l0.04-0.08l0.05-0.08l0.04-0.08l0.04-0.07l0.01-0.02l0.04-0.06l0.04-0.09l0.04-0.08
	l0.05-0.11l0.02-0.06l0.05-0.1l0.03-0.08l0.09-0.2l0.04-0.07l0.06-0.12l0.07-0.13l0.12-0.13l0.08-0.06l0.08-0.05l0.11-0.08l0.14-0.1
	l0.04-0.03l0.18-0.13l0.1-0.07l0.09-0.06l0.08-0.06l0.09-0.06l0.1-0.07l0.03-0.02l0.29-0.2l0.35-0.24l0.06-0.05l0.09-0.05l0.09-0.07
	l0.1-0.07l0.28-0.19l0.11-0.08l0.03-0.02l0.04-0.03l0.06-0.04l0.14-0.12l0.11-0.09l0.05-0.03l0.07-0.06l0.11-0.09l0.11-0.09
	l0.16-0.13l0.03-0.03l0.1-0.08l0.15-0.13l0.11-0.06l0.12-0.09l0.08-0.05l0.14-0.11l0.15-0.1l0.18-0.13l0.1-0.06l0.19-0.12l0.21-0.36
	l0.02-0.01l0.14-0.1l0.1-0.07l0.08-0.06l0.08-0.06l0.07-0.06l0.14-0.11l0.1-0.08l0.11-0.09l0.07-0.05l0.03-0.03l0.03-0.02l0.11-0.09
	l0.15-0.13l0.09-0.08l0.06-0.04l0.12-0.12l0.1-0.09l0.07-0.07l0.07-0.07l0.07-0.06l0.08-0.07l0.08-0.08l0.08-0.08l0.12-0.11
	l0.12-0.11l0.07-0.07l0.03-0.02l0.05-0.05l0.06-0.06l0.1-0.09l0.03-0.03l0.08-0.07l0.1-0.1l0.05-0.04l0.02-0.02l0.08-0.07l0.05-0.05
	l0.1-0.09l0.06-0.06l0.04-0.03l0.16-0.15l0.18-0.16l0.13-0.08l0.14-0.08l0.09-0.06l0.05-0.03l0.53-0.3l0.17-0.1l0.1-0.06l0.15-0.09
	l0.1-0.06l0.09-0.06l0.1-0.05l0.09-0.06l0.1-0.06l0.1-0.05l0.1-0.06l0.1-0.06l0.19-0.11l0.2-0.12l0.11-0.07l0.09-0.05l0.16-0.09
	l0.02-0.02l0.16-0.09l0.29-0.18l0.09-0.05l0.06-0.04l0.08-0.04l0.1-0.06l0.11-0.07l0.09-0.06l0.15-0.1l0.09-0.05l0.09-0.06
	l0.09-0.06l0.07-0.04l0.07-0.04l0.07-0.05l0.08-0.05l0.15-0.09l0.07-0.04l0.08-0.05l0.11-0.07l0.11-0.07l0.1-0.05l0.16-0.1
	l0.09-0.06l0.09-0.06l0.18-0.13l0.08-0.06l0.09-0.06l0.08-0.06l0.14-0.09l0.14-0.11l0.09-0.06l0.06-0.04l0.06-0.05l0.06-0.04
	l0.07-0.05l0.08-0.05l0.09-0.06l0.07-0.05l0.3-0.19l0.1-0.07l0.09-0.06l0.08-0.05l0.09-0.06l0.09-0.05l0.12-0.08l0.08-0.06l0.16-0.1
	v0.01l0.1-0.06l0.07-0.05l0.11-0.06l0.09-0.05l0.08-0.04l0.08-0.05l0.09-0.05l0.21-0.11l0.11-0.05l0.08-0.04l0.07-0.03l0.07-0.04
	l0.05-0.03l0.13-0.07l0.04-0.01l0.13-0.05l0.13-0.04l0.1-0.04l0.04-0.01l0.09-0.04l0.12-0.04l0.16-0.05l0.36-0.11l0.17-0.05
	l0.11,0.04l0.27,0.1l0.4,0.01h0.11l0.11,0.01h0.11h0.11h0.11l0.11,0.01h0.12h0.42l-0.08-0.04l-0.08-0.03l-0.07-0.1l-0.05-0.14
	l-0.04-0.13l-0.01-0.15l-0.01-0.11l-0.01-0.11l-0.01-0.12l0.01-0.11v-0.11v-0.11v-0.11v-0.19l0.02-0.3l0.01-0.2v-0.11l0.01-0.12
	v-0.11l0.01-0.12v-0.1l0.01-0.19l0.01-0.05l0.07-0.1l0.11-0.14l0.04-0.06l0.1-0.13l0.06-0.08l0.06-0.08l0.08-0.1l0.25-0.34
	l0.01-0.01v-0.01l0.14-0.19l0.2-0.24l0.08-0.09l0.07-0.08l0.14-0.16l0.07-0.08l0.08-0.09l0.12-0.17l0.06-0.1l0.05-0.08l0.05-0.08
	l0.05-0.08l0.07-0.11l0.06-0.12l0.04-0.07l0.04-0.08H86.4l0.11-0.19l0.06-0.12l0.05-0.11l0.05-0.08l0.04-0.1l0.04-0.06l0.03-0.06
	l0.06-0.13l0.05-0.1l0.06-0.15l0.15-0.37l0.01-0.02l-0.24,0.01h-0.01h-0.07l-0.07,0.01l-0.16,0.01l-0.11,0.01l-0.19,0.01l-0.11,0.01
	l-0.11,0.01h-0.09l-0.13,0.01l-0.05,0.01l-0.25,0.01l-0.13,0.01l-0.25,0.02l-0.19,0.02L84.82,150l-0.14,0.01l-0.14,0.01l-0.16,0.01
	h-0.06l0,0l-0.12,0.01l-0.11,0.01l-0.11,0.01l-0.11,0.01l-0.1,0.01h-0.06l-0.07,0.01l-0.1,0.01l-0.34,0.02l-0.26,0.02l-0.66,0.05
	h-0.05l-0.31,0.02l-0.2,0.02h-0.03l-0.31,0.02l-0.05,0.01l-0.66,0.05l-0.2-1.01l-0.15-0.8h0.01l-0.04-0.19l-0.02-0.08l-0.07-0.38
	l-0.04-0.19l-0.02-0.12l-0.02-0.12l-0.03-0.12l-0.02-0.15l-0.03-0.12v-0.02l-0.01-0.02v-0.01l-0.02-0.14l-1.75,0.58l-0.42,0.14
	l-0.35,0.12l-0.14,0.05l-0.26,0.1l-0.14,0.04l-0.13,0.05l-0.14,0.05l-0.13,0.05l-0.14,0.04l-0.05,0.02l-0.52,0.22l-0.98,0.35
	l-0.06,0.02l-0.07,0.03l-1.54,0.55L73,149.32l-0.16,0.05l-0.15,0.05l-0.14,0.05l-0.15,0.06l-0.15,0.05l-0.15,0.06l-0.15,0.05
	l-0.12,0.04l-0.07,0.03l-0.1,0.03l-0.14,0.06l-0.19,0.06l-0.14,0.05L71.08,150l-0.11,0.04l-0.07,0.03l-0.12,0.04l-0.16,0.05
	l-0.22,0.08l-0.12,0.04l-0.2,0.07l-0.19,0.07l-0.05-0.13l-0.21-0.5l-0.05-0.28l-0.03-0.16l-0.1-0.62l-0.01-0.3l-0.09-0.39
	l-0.03-0.13l-0.14-0.58l-0.64-1.66l-0.25-0.58h-0.01h-0.01h-0.01l-0.01,0.01h-0.01l-0.02-0.01l-0.03-0.01l-0.01-0.01l-0.01-0.01
	v-0.01h-0.01l-0.08-0.2l-0.11-0.29l-0.05-0.15l-0.03-0.07l-0.12-0.31l-0.08-0.19l0,0v-0.01v-0.01v-0.01v-0.01v-0.01h0.01v-0.02h0.01
	l0.01-0.01l0.01-0.01l0,0h0.01l-0.13-0.32l-0.08-0.21l-0.06,0.02l-0.1,0.04l-0.04,0.01l-0.1,0.04v-0.01l-0.12-0.05l0,0l-0.16,0.05
	l-1.09,0.28l-1.88,0.76l-1,0.46l-1.17,0.37l-0.25,0.08l-0.07,0.01l-3,0.43l-0.21,0.03l-0.07,0.01l-0.1,0.01l-0.65-0.02h-0.09
	l-0.2-0.01l-0.38-0.26l0,0h-0.16l-0.12-0.01h-0.14l-0.1-0.01h-0.14l-0.14-0.01h-0.1h-0.08l-0.14-0.01h-0.08h-0.12l-0.11-0.01h-0.11
	h-0.01l-0.1-0.01h-0.02l-0.17,0.01h-0.04l-0.08,0.01h-0.1l-0.09,0.01l-0.48,0.03h-0.09l-0.17,0.09l-0.13,0.04l-0.16,0.04l-0.09,0.03
	l-0.15,0.04l-0.14,0.04l-0.1,0.03L53,145.82l-0.07,0.02l-0.13,0.03l-0.12,0.02l-0.18,0.03l-0.11,0.01l-0.17,0.03l-0.14,0.02
	l-0.19-0.01l-0.14-0.01l-0.1-0.01l-0.08-0.01h-0.05l-0.1-0.01h-0.05l-0.09-0.01l-0.13-0.01l-0.04-0.01l-0.14-0.03l-0.04-0.01
	l-0.1-0.03l-0.1-0.02l-0.05-0.01l-0.11-0.02l-0.15-0.04l-0.14-0.03l-0.13-0.03l-0.11-0.03l-0.1-0.02l-0.14-0.03l-0.16-0.04
	l-0.09-0.02l-0.13-0.03l-0.09-0.02l-0.15-0.03l-0.11-0.03l-0.08-0.02l-0.16-0.05l-0.07-0.02l-0.06-0.03l-0.06-0.02l-0.06-0.03
	l-0.07-0.03l-0.05-0.02l-0.25-0.12l-0.15-0.07l-0.08-0.03l-0.08-0.04l-0.03-0.02l-0.16-0.08l-0.06-0.03l-0.12-0.06l-0.08-0.05
	l-0.08-0.05l-0.08-0.05l-0.1-0.06l-0.04-0.03l-0.1-0.06L46.83,144.45z"/>
<path id="A4"  d="
	M108.12,149.84l-4.87-5.38l-0.11-0.12l-0.33-0.41l-4.19,3.08v0.01l-0.01,0.01l-0.01,0.01l-0.01,0.01l-0.01,0.01l-0.01,0.01
	l-0.01,0.02h-0.01v0.01h-0.01l-0.02,0.04l-0.02,0.04v0.01l-0.02,0.02v0.01l-0.01,0.02v0.01l-0.01,0.02l0,0v0.01v0.01h-0.01
	l-0.01,0.06l-0.01,0.06v0.03v0.02v0.01v0.02v0.01v0.01l0,0v0.03v0.03l0.01,0.02v0.01v0.01l0.01,0.02v0.01v0.02l0.01,0.01v0.01
	l-0.04,0.02l-0.09,0.06l-0.09,0.05l-0.09,0.05l-0.11,0.07L97.91,148l-0.17,0.11l-0.15,0.09l-0.05,0.03l-0.2,0.12l-0.15,0.09
	l-0.17,0.06l-0.06,0.03l-0.06,0.03l-0.13,0.05l-0.14,0.06l-0.05,0.02l-0.07,0.02l-0.14,0.04l-0.12,0.03l-0.13,0.03l-0.13,0.04
	l-0.12,0.03l-0.13,0.04l-0.13,0.03l-0.13,0.03l-0.14,0.04l-0.06,0.02l-0.05,0.02l-0.54,0.12l-0.18,0.06l-0.06,0.02l-0.11,0.04
	l-0.11,0.04l-0.07,0.02l-0.1,0.04l-0.12,0.04l-0.07,0.02l-0.15,0.05l-0.08,0.02l-0.15,0.04l-0.13,0.02l-0.13,0.02l-0.12,0.02
	l-0.13,0.03l-0.14,0.02l-0.13,0.02v-0.01l-0.13,0.02l0,0l-0.16,0.03l-0.12,0.02l-0.19,0.03l-0.18,0.01h-0.05l-0.12,0.01h-0.12h-0.13
	l-0.13,0.01h-0.16l-0.07,0.01h-0.19l-0.23,0.01h-0.08h-0.06h-0.13l-0.23,0.01h-0.19h-0.08l-0.14,0.01h-0.07h-0.06l-0.22,0.01
	l-0.15-0.04l-0.17-0.02l-0.42-0.07l-0.12-0.02l-0.22-0.03l-0.11-0.02l-0.13-0.02l-1.04,0.19l-0.01,0.02l-0.15,0.37l-0.06,0.15
	l-0.05,0.1l-0.06,0.13l-0.03,0.06l-0.04,0.06l-0.04,0.1l-0.05,0.08l-0.05,0.11l-0.06,0.12l-0.11,0.19h0.01l-0.04,0.08l-0.04,0.07
	l-0.06,0.12l-0.07,0.11l-0.05,0.08l-0.05,0.08l-0.05,0.08l-0.06,0.1l-0.12,0.17l-0.08,0.09l-0.07,0.08l-0.14,0.16l-0.07,0.08
	l-0.08,0.09l-0.2,0.24l-0.14,0.19v0.01l-0.01,0.01l-0.25,0.34l-0.08,0.1l-0.06,0.08l-0.06,0.08l-0.1,0.13l-0.04,0.06l-0.11,0.14
	l-0.07,0.1l-0.01,0.05l-0.01,0.19v0.1l-0.01,0.12v0.11l-0.01,0.12V155l-0.01,0.2l-0.02,0.3v0.19v0.11v0.11v0.11l-0.01,0.11
	l0.01,0.12l0.01,0.11l0.01,0.11l0.01,0.15l0.04,0.13l0.05,0.14l0.07,0.1l0.08,0.03l0.08,0.04l0.1,0.16l0.01,0.19l0.01,0.09v0.09
	l0.01,0.13v0.12l0.01,0.12v0.03v0.02l0.01,0.08v0.14l0.01,0.1v0.11l0.01,0.12l0.01,0.12l0.01,0.12v0.07l0.01,0.08v0.15l0.01,0.08
	v0.08l0.01,0.1l0.01,0.14v0.1l0.01,0.1l0.01,0.12v0.05v0.06V160l0.01,0.06v0.07l0.01,0.07v0.09l0.01,0.08v0.08v0.08l0.01,0.07v0.08
	l0.01,0.15l0.01,0.15l0.01,0.08l0.01,0.08l0.01,0.1l0.02,0.09l0.02,0.14l0.02,0.14l0.01,0.06l0.01,0.05l0.01,0.04v0.04l0.01,0.04
	l0.01,0.05v0.02l0.07,0.13l0.04,0.07l0.05,0.1l0.07,0.13l0.1,0.19l0.07,0.13l0.04,0.08l0.08,0.16l0.05,0.09l0.11,0.22l0.23,0.44
	l0.38,0.04l0.15,0.02l0.11,0.01l0.11,0.01l0.1,0.02l0.11,0.01l0.1,0.01l0.1,0.01l0.12,0.01l0.1,0.01l0.11,0.01l0.1,0.02l0.11,0.01
	l0.12,0.01l0.1,0.01l0.08,0.01l0.06,0.01l0.13,0.01l0.13,0.02h0.05l0.15,0.02l0.1,0.01l0.11,0.01l0.09,0.01l0.1,0.01l0.1,0.01
	l0.09,0.01l0.1,0.01l0.1,0.01l0.1,0.02l0.1,0.01l0.09,0.01l0.14,0.01l0.14,0.02l0.11,0.01l0.12,0.01l0.15,0.02h0.01l0.2,0.02
	l0.27,0.03l0.09,0.01l0.1,0.01l0.1,0.01l0.13,0.02l0.11,0.01l0.1,0.01l0.39,0.04l0.12,0.02l0.14,0.01l0.18,0.02l0.1,0.01l0.1,0.01
	l0.14,0.02l0.11,0.01l0.1,0.01l0.14,0.02l0.19,0.02l0.09,0.01l0.25,0.03l0.08,0.01l0.09,0.01l0.08,0.01l0.32,0.03l0.3,0.03
	l0.21,0.03l0.09,0.01l0.1,0.01l0.11,0.01l0.1,0.01l0.1,0.01l0.1,0.01l0.1,0.01l0.14,0.02l0.1,0.01l0.1,0.01l0.1,0.01l0.1,0.01
	l0.1,0.01l0.1,0.01l0.11,0.02l0.13,0.01l0.17,0.02l0.01,0.16l0.02,0.15l0.02,0.11l0.02,0.13l0.01,0.12l0.02,0.13l0.02,0.13
	l0.02,0.11l0.02,0.17l0.02,0.15l0.03,0.16l0.03,0.17l0.02,0.2l0.03,0.18l0.01,0.03l0.05,0.15l0.06,0.1l0.08,0.13l0.09,0.15
	l0.11,0.18l0.05,0.09l0.1,0.16l0.06,0.09l0.06,0.12l0.05,0.11l0.06,0.11l0.04,0.1l0.05,0.1l0.05,0.1l0.07,0.15l0.14,0.28l0.08,0.18
	l0.06,0.11l0.02,0.1l0.06,0.25l0.04,0.17l0.08,0.31l0.07,0.3l0.13,0.23v0.15l-0.01,0.15v0.09l-0.02,0.42l-0.01,0.12v0.05v0.15
	l-0.01,0.05v0.12l-0.01,0.16l-0.01,0.16l-0.01,0.18l-0.01,0.22v0.19l-0.01,0.2l-0.01,0.15v0.1l-0.01,0.1l0.01,0.21l0.02,0.27
	l-0.14,0.4v0.36v0.1v0.1V175v0.16v0.1v0.12v0.18v0.16v0.08l-0.01,0.11v0.1v0.14l-0.01,0.13l-0.08,0.36l-0.02,0.08l-0.06,0.22
	l-0.03,0.15l-0.03,0.11l-0.05,0.22l-0.04,0.14l-0.03,0.13l-0.02,0.11l-0.02,0.07l-0.05,0.2l-0.04,0.15l-0.05,0.23l-0.01,0.03v0.11
	l-0.01,0.15l-0.01,0.33l-0.02,0.34l-0.01,0.19l-0.02,0.25v0.04l-0.01,0.07v0.09l-0.01,0.05l-0.01,0.16l-0.01,0.17l-0.01,0.16
	l-0.01,0.1l-0.01,0.12l-0.01,0.1l-0.01,0.1l-0.02,0.34v0.12l-0.01,0.11l0.01,0.17l0.02,0.1l0.02,0.11l0.02,0.13l0.01,0.08l0.02,0.17
	l0.02,0.1l0.01,0.11l0.02,0.1l0.01,0.11l0.03,0.19l0.06,0.36l0.05,0.26l0.02,0.09l0.04,0.16l0.03,0.09l0.02,0.08l0.02,0.09
	l0.02,0.08l0.03,0.09l0.02,0.08l0.02,0.09l0.04,0.16l0.03,0.09l0.02,0.07l0.02,0.08l0.02,0.09l0.02,0.07l0.02,0.07l0.02,0.07
	l0.02,0.09l0.02,0.08l0.02,0.09l0.02,0.07l0.02,0.07l0.02,0.07l0.02,0.09l0.03,0.09l0.01,0.06l0.03,0.08l0.04,0.16l0.02,0.08
	l0.02,0.09l0.03,0.08l0.02,0.09l0.02,0.08l0.03,0.09l0.02,0.08l0.02,0.08l0.02,0.09l0.03,0.08L98.5,187l0.03,0.11l0.06,0.23
	l0.02,0.13l0.02,0.1l0.02,0.15l0.03,0.13l0.01,0.11l0.03,0.13l0.02,0.11l0.02,0.1l0.02,0.14l0.04,0.21l0.01,0.09l0.03,0.16
	l0.09,0.49l0.02,0.11l0.01,0.07l0.16-0.03l-0.03-0.15l0.25,0.06l0.16,0.05h0.01l0.22,0.06l0.21,0.06l0.06,0.02l0.09,0.02l0.11,0.03
	l0.09,0.03l0.15,0.04l0.14,0.04l0.07,0.02l0.1,0.03l0.08,0.02l0.08,0.02l0.17,0.05l0.13,0.04l0.13,0.03l0.12,0.04l0.1,0.03
	l0.11,0.03l0.1,0.02l0.1,0.03l0.12,0.03l0.06,0.02l0.2,0.06l0,0l0.1,0.03l0.12,0.03l0.27,0.07l0.08,0.03l0.22,0.05l0.14,0.04
	l0.14,0.04l0.15,0.04l0.37,0.11l0.42,0.11l0.1,0.03l0.11,0.03l0.2,0.06l0.09,0.02l0.13,0.04l0.09,0.02l0.08,0.03l0.09,0.02
	l0.09,0.03h0.05l0.06,0.02l0.29,0.08l0.09,0.03l0.26,0.07l0.13,0.04l0.18,0.05l0.05,0.01l0.03,0.01h0.01l0.11,0.02l0.07,0.01
	l0.09,0.02l0.11,0.01l0.1,0.01l0.1,0.01h0.1l0.11,0.01h0.01l0.14-0.01h0.08l0.09-0.01l0.08-0.01h0.05l0.21-0.03l0.15-0.04l0.16-0.04
	l0.19-0.05l0.11-0.04h0.02l0.09-0.04l0.05-0.02l0.16-0.07l0.14-0.07l0.09-0.06l0.1-0.06l0.1-0.06l0.18-0.12l0.09-0.06l0.12-0.08
	l0.04-0.03l0.07-0.04l0.73-0.5l0.18-0.13l0.32-0.22l0.56-0.4h0.01l0.55-0.37l0.13-0.09l0.06-0.04l0.05-0.04l0.04-0.03l0.1-0.06
	l0.01-0.01l0.03-0.02l0.1-0.07l0.05-0.03l0,0l0.04-0.03l0.04-0.03l0.13-0.09l0,0l0.11-0.08l0.19-0.13l0.67-0.45l0.15-0.11l0.18-0.12
	l0.41-0.29l0.14-0.09l0.18-0.13l0.79-0.54l0.4-0.27l0.12-0.08l0.2-0.14l0.64-0.44l0.01-0.01l0.27-0.18l0.41-0.29l0.19-0.12
	l0.12-0.08l0.09-0.07l0.11-0.07l0.11-0.08l0.11-0.07l0.11-0.08l0.11-0.07l0.03-0.02l0.09-0.07l0.09-0.06l0.01-0.01l0.08-0.06
	l0.02-0.01l0.11-0.07l0.06-0.05l0.07-0.04l0.07-0.04l0.08-0.06l0.2-0.13l0.27-0.2l0.17-0.11l0.19-0.13l0.14-0.1l0.05-0.03l0.43-0.29
	l0.03-0.03l0.21-0.14l0.08-0.05l0.57-0.4l0.15-0.1l0.52-0.36l0.13-0.09l0.1-0.06l0.09-0.06l0.09-0.07l0.1-0.07l0.15-0.1l0.15-0.11
	l0.1-0.06l0.09-0.06l0.09-0.07l0.1-0.06l0.13-0.1l0.4-0.27l0.42-0.28l0.01-0.01l0.07-0.05l0.14-0.09l0.25-0.17l0.27-0.18l0.53-0.37
	v-0.01l0.65-0.45l0.7-0.47l0.13-0.09l0.06-0.04l0.24-0.16l0.42-0.29l0,0l0.16-0.11l0,0l0,0l0.02-0.01l0.01-0.01l0.12-0.09h0.01
	l0.12-0.09l0.03-0.01l0,0l0.07-0.06l0.03-0.01v-0.01l0.08-0.05l0.14-0.1l5.27-3.65l0.05-0.04l-9.3-10.15l-8.56-6.66l-0.11-0.09
	l-1.79-1.46l-0.33-0.27l-4.26-3.48L108.12,149.84z"/>
<path id="A3"  d="
	M78.26,147.42L78.26,147.42l1.75-0.58l0.02,0.14v0.01l0.01,0.02v0.02l0.03,0.12l0.02,0.15l0.03,0.12l0.02,0.12l0.02,0.12l0.04,0.19
	l0.07,0.38l0.02,0.08l0.04,0.19h-0.01l0.15,0.8l0.2,1.01l0.66-0.05l0.05-0.01l0.31-0.02h0.03l0.2-0.02l0.31-0.02h0.05l0.66-0.05
	l0.26-0.02l0.34-0.02l0.1-0.01l0.07-0.01h0.06l0.1-0.01l0.11-0.01l0.11-0.01l0.11-0.01l0.12-0.01l0,0h0.06l0.16-0.01l0.14-0.01
	l0.14-0.01l0.13-0.01l0.19-0.02l0.25-0.02l0.13-0.01l0.25-0.01l0.05-0.01l0.13-0.01h0.09l0.11-0.01l0.11-0.01l0.19-0.01l0.11-0.01
	l0.16-0.01l0.07-0.01h0.07h0.01l0.24-0.01l1.04-0.19l0.13,0.02l0.11,0.02l0.22,0.03l0.12,0.02l0.42,0.07l0.17,0.02l0.15,0.04
	l0.22-0.01h0.06h0.07l0.14-0.01h0.08h0.19l0.23-0.01h0.13h0.06h0.08l0.23-0.01h0.19l0.07-0.01h0.16l0.13-0.01h0.13h0.12l0.12-0.01
	h0.05l0.18-0.01l0.19-0.03l0.12-0.02l0.16-0.03l0,0l0.13-0.02v0.01l0.13-0.02l0.14-0.02l0.13-0.03l0.12-0.02l0.13-0.02l0.13-0.02
	l0.15-0.04l0.08-0.02l0.15-0.05l0.07-0.02l0.12-0.04l0.1-0.04l0.07-0.02l0.11-0.04l0.11-0.04l0.06-0.02l0.18-0.06l0.54-0.12
	l0.05-0.02l0.06-0.02l0.14-0.04l0.13-0.03l0.13-0.03l0.13-0.04l0.12-0.03l0.13-0.04l0.13-0.03l0.12-0.03l0.14-0.04l0.07-0.02
	l0.05-0.02l0.14-0.06l0.13-0.05l0.06-0.03l0.06-0.03l0.17-0.06l0.15-0.09l0.2-0.12l0.05-0.03l0.15-0.09l0.17-0.11l0.13-0.07
	l0.11-0.07l0.09-0.05l0.09-0.05l0.09-0.06l0.04-0.02v-0.01l-0.01-0.01v-0.02v-0.01l-0.01-0.02v-0.01v-0.01l-0.01-0.02v-0.03v-0.03
	l0,0v-0.01v-0.01v-0.02v-0.01v-0.02v-0.03l0.01-0.06l0.01-0.06h0.01v-0.01v-0.01l0,0l0.01-0.02v-0.01l0.01-0.02v-0.01l0.02-0.02
	v-0.01l0.02-0.04l0.02-0.04h0.01v-0.01h0.01l0.01-0.02l0.01-0.01l0.01-0.01l0.01-0.01l0.01-0.01l0.01-0.01v-0.01l4.19-3.08
	l-1.66-2.06l-2.02-2.54l-1.1-5.01l-0.52-4.12l-0.07-0.52l0.59-2.32l-4.85,0.29l-0.41,0.04l-0.19,0.01l-0.23,0.03l-0.16,0.01
	l-0.16,0.01l-0.17,0.02l-0.19,0.02l-0.19,0.01l-0.18,0.02l-0.21,0.02l-0.25,0.02l-0.12,0.01l-0.24,0.02l-0.22,0.02l-0.13,0.01
	l-0.18,0.02l-0.23,0.02l-0.19,0.01l-0.22,0.02l-0.17,0.02l-0.16,0.01l-0.17,0.02l-0.16,0.01l-0.2,0.02l-0.19,0.02l0.12,1.44
	l-0.43,0.1h-0.01l-0.01,0.01h-0.01h-0.01H87.9l-0.01,0.01h-0.01l0,0l-0.01,0.01h-0.02h-0.01l-0.01,0.01h-0.01h-0.01l-0.02,0.01
	h-0.01l-0.01,0.01h-0.01h-0.01l0,0l-0.01,0.01l0,0h-0.01h-0.01l0,0l-0.01,0.01l0,0H87.7l-0.01,0.01h-0.01l0,0l-0.01,0.01h-0.01
	h-0.01v0.01h-0.01h-0.01v0.01h-0.01h-0.01v0.01H87.6h-0.01v0.01h-0.01l0,0l-0.01,0.01h-0.01h-0.01v0.01h-0.01l-0.01,0.01l0,0h-0.01
	l-0.17,0.12l-0.02,0.01l-0.01,0.01l-0.01,0.01l-0.02,0.01l-0.01,0.01l-0.01,0.01l-0.02,0.01l-0.01,0.02l-0.01,0.01h-0.01l0,0
	l-0.01,0.01l-0.01,0.01l0,0l-0.01,0.01l-0.01,0.01l-0.01,0.01l-0.01,0.01l-0.01,0.01l-0.01,0.02l-0.01,0.01l-0.01,0.01l-0.01,0.01
	l-0.01,0.01l0,0l-0.01,0.01l0,0v0.01h-0.01v0.01h-0.01v0.01l-0.01,0.01l0,0l-0.01,0.01l0,0v0.01l-0.01,0.01l0,0l-0.01,0.01
	l-0.01,0.02l-0.01,0.01L87,130.28l-0.01,0.01v0.01l-0.01,0.02l-0.01,0.01l-0.01,0.01l-0.01,0.01l-0.08,0.17l-0.01,0.01v0.02
	l-0.01,0.01l-0.01,0.01v0.02l-0.01,0.01v0.02l-0.01,0.01v0.01l-0.01,0.01v0.01v0.01H86.8v0.01v0.01v0.01l0,0l-0.01,0.01v0.02l0,0
	l-0.01,0.01l0,0v0.02l-0.01,0.02v0.01v0.02l-0.01,0.01v0.02v0.01l-0.01,0.02v0.01v0.02v0.01l-0.01,0.01v0.01v0.01v0.01v0.01v0.01
	l-0.01,0.01v0.01V131v0.01v0.01v0.02v0.01v0.01l-0.01,0.01v0.02v0.01l0.04,0.44l-0.19,0.02l-0.15,0.01l-0.16,0.01l-0.17,0.02
	l-0.16,0.01l-0.26,0.03l-0.24-0.06l-0.28,0.02l-0.22,0.01v0.01v0.01v0.01l-0.01,0.01v0.01v0.01v0.01v0.01l-0.01,0.01v0.01v0.01v0.01
	l-0.01,0.01v0.01v0.01l-0.01,0.01v0.01l-0.01,0.01l-0.3,0.28h-0.02l-0.01,0.01h-0.02h-0.01l-0.02,0.01h-0.01h-0.02h-0.01h-0.02
	l-0.01,0.01h-0.01h-0.01H84.4h-0.01h-0.01l-0.01-0.01h-0.01l0,0l-0.43-0.26h-0.01v-0.01l-0.01-0.01l0,0l-0.01-0.01v-0.01l0,0
	l-0.01-0.01v-0.01h-0.01v-0.01l0,0l-0.01-0.01v-0.01l0,0l-0.01-0.01v-0.01l0,0l-0.01-0.01l-0.01-0.01v-0.01v-0.01v-0.01h-0.01v-0.01
	v-0.01l-0.01-0.01v-0.01v-0.01l-0.01-0.01v-0.01v-0.01v-0.01l-0.01-0.01v-0.01v-0.01v-0.01v-0.01v-0.01l-0.01-0.01v-0.01v-0.01
	v-0.01v-0.01l0,0v-0.01v-0.01l0,0v-0.01v-0.01l0,0v-0.01v-0.01l0,0v-0.01v-0.01h0.01v-0.01v-0.01l0,0v-0.01v-0.01l0,0l0.01-0.01
	v-0.01v-0.01l0,0v-0.01l0.01-0.01l0,0v-0.01l0.01-0.01v-0.01v-0.01h0.01v-0.01v-0.01l0.01-0.01v-0.01h0.01v-0.01l0,0v-0.01h0.01
	v-0.01v-0.01h0.01v-0.01l0,0L83.73,131l-0.12-0.12l-0.06-0.07l-0.13-0.14l-0.09-0.11l-0.09-0.09l-0.07-0.08l-0.05-0.06l-0.1-0.11
	l-0.08-0.09l-0.06-0.06l-0.12-0.14l-0.14-0.15l-0.17-0.19l-0.17-0.18l-0.07-0.08l-0.07-0.08l-0.18-0.2l-0.84-0.92l-0.03-0.03
	l-0.06-0.07l-0.07-0.08l-0.06-0.06l-0.06-0.07l-0.06-0.07l-0.06-0.07l-0.05-0.05l-0.1-0.12l-0.09-0.09l-0.08-0.08l-0.08-0.09
	l-0.12-0.14l-0.08-0.09l-0.08-0.08l-0.07-0.07l-0.07-0.09l-0.1-0.1l-0.09-0.11l-0.11-0.11l-0.07-0.09l-0.1-0.1l-0.07-0.08
	l-0.11-0.12l-0.08-0.09l-0.09-0.1l-0.05-0.06l-0.06-0.05l-0.15-0.17l-0.07-0.08l-0.08-0.09l-0.07-0.08l-0.08-0.08l-0.07-0.09
	l-0.11-0.11l-0.04-0.04l-0.04-0.05l-0.16-0.18l-0.06-0.06l-0.01-0.02l-0.08-0.05l-0.21-0.14l-0.08-0.06l-0.08-0.05l-0.07-0.06
	l-0.1-0.07l-0.64-0.45l-0.16-0.1l-0.02-0.02l0.01-0.01l-0.08-0.05l-0.01,0.01l-0.1-0.08l-0.09-0.06l-0.09-0.06l-0.14-0.1l-0.15-0.1
	l-0.09-0.07l-0.09-0.06l-0.08-0.06l-0.13-0.1l-0.1-0.07l-0.09-0.06l-0.09-0.07l-0.12-0.08l-0.09-0.06l-0.09-0.05l-0.09-0.06
	l-0.08-0.05l-0.11-0.06l-0.04-0.03l-0.06-0.04l-0.08-0.05l-0.08-0.04l-0.08-0.05l-0.08-0.05l-0.11-0.07L74.02,122l-0.13-0.08
	l-0.14-0.08l-0.21-0.13l-0.13-0.08v-0.01l0,0l0,0l-0.06-0.04l0,0h-0.01l-0.09-0.05l-0.14-0.09l-0.09-0.06l0,0l0,0h-0.01l0,0
	l-0.06-0.04l0,0l-0.05-0.03l0,0l-0.09-0.06l-0.11-0.06l-0.11-0.08l-0.04-0.02l-0.21-0.13l-0.17-0.11L72,120.74l-0.09-0.05l-0.1-0.06
	l-0.08-0.05l-0.11-0.07l-0.02-0.02l-0.08-0.04l-0.1-0.07l-0.09-0.06l-0.11-0.06l-0.1-0.06l-0.1-0.07l-0.18-0.11l-0.06-0.04
	l-0.23-0.14l-0.14-0.08l-0.14-0.08l-0.11-0.07l-0.11-0.06l-0.22-0.13l-0.11-0.07l-0.15-0.09l-0.79-0.5l-0.12-0.12l-0.05-0.05
	l-0.08-0.08l-0.06-0.06l-0.13-0.13l-0.14-0.15l-0.06-0.05l-0.13-0.14l-0.12-0.12l-0.07-0.07l-0.09-0.09l-0.07-0.07l-0.07-0.07
	l-0.05-0.05l-0.07-0.07l-0.07-0.08l-0.09-0.08l-0.09-0.1l-0.08-0.08l-0.09-0.08l-0.08-0.09l-0.08-0.08l-0.08-0.08l-0.08-0.08
	l-0.17-0.18l-0.08-0.08l-0.07-0.06l-0.09-0.09l-0.08-0.08l-0.07-0.08L66.05,116l-0.26-0.26l-0.11-0.11l-0.1-0.11l-0.15-0.14
	l-0.06-0.07l-0.35-0.33l-0.25,0.43l-0.09,0.14l-0.26,0.46l-0.05,0.08l0.1,0.05l-0.46,0.84l-1.71,2.88l-1.13,1.97l-1.69,2.89
	l-0.92,2.83l-0.35,1.01l-0.25,0.74l-0.16,0.47l-0.49,1.45l-0.62,1.95l-0.09,0.36l-0.03,0.29l-0.02,1.06l0.05,1.17l0.01,0.84
	l0.02,2.2l0.04,1.3l0.06,1.79l-0.01,0.11l0.04,1.45l0.03,1.73l0.38,0.26l0.2,0.01h0.09l0.65,0.02l0.1-0.01l0.07-0.01l0.21-0.03
	l3-0.43l0.07-0.01l0.25-0.08l1.17-0.37l1-0.46l1.88-0.76l1.09-0.28l0.16-0.05l0,0l0.12,0.05v0.01l0.1-0.04l0.04-0.01l0.1-0.04
	l0.06-0.02l0.08,0.21l0.13,0.32h-0.01l0,0l-0.01,0.01l-0.01,0.01H67.7v0.02h-0.01v0.01v0.01v0.01v0.01v0.01l0,0l0.08,0.19l0.12,0.31
	l0.03,0.07l0.05,0.15l0.11,0.29l0.08,0.2h0.01v0.01l0.01,0.01l0.01,0.01l0.03,0.01l0.02,0.01h0.01l0.01-0.01h0.01h0.01h0.01
	l0.25,0.58l0.64,1.66l0.14,0.58l0.03,0.13l0.09,0.39l0.01,0.3l0.1,0.62l0.03,0.16l0.05,0.28l0.21,0.5l0.05,0.13l0.19-0.07l0.2-0.07
	l0.12-0.04l0.22-0.08l0.16-0.05l0.12-0.04l0.07-0.03l0.11-0.04l0.11-0.04l0.14-0.05l0.19-0.06l0.14-0.06l0.1-0.03l0.07-0.03
	l0.12-0.04l0.15-0.05l0.15-0.06l0.15-0.05l0.15-0.06l0.14-0.05l0.15-0.05l0.16-0.05l0.19-0.07l1.54-0.55l0.07-0.03l0.06-0.02
	l0.98-0.35l0.52-0.22l0.05-0.02l0.14-0.04l0.13-0.05l0.14-0.05l0.13-0.05l0.14-0.04l0.26-0.1l0.14-0.05l0.35-0.12L78.26,147.42z"/>
<path id="A2"  d="
	M82.72,156.93l-0.11-0.04l-0.17,0.05l-0.36,0.11l-0.16,0.05l-0.12,0.04l-0.09,0.04l-0.04,0.01l-0.1,0.04l-0.13,0.04l-0.13,0.05
	l-0.04,0.01l-0.13,0.07l-0.05,0.03l-0.07,0.04l-0.07,0.03l-0.08,0.04l-0.11,0.05l-0.21,0.11l-0.09,0.05l-0.08,0.05l-0.08,0.04
	l-0.09,0.05l-0.11,0.06L80.03,158l-0.1,0.06v-0.01l-0.16,0.1l-0.08,0.06l-0.12,0.08l-0.09,0.05l-0.09,0.06l-0.08,0.05l-0.09,0.06
	l-0.1,0.07l-0.3,0.19l-0.07,0.05l-0.09,0.06l-0.08,0.05l-0.07,0.05l-0.06,0.04l-0.06,0.05l-0.06,0.04l-0.09,0.06l-0.14,0.11
	l-0.14,0.09l-0.08,0.06l-0.09,0.06l-0.08,0.06l-0.18,0.13l-0.09,0.06l-0.09,0.06l-0.16,0.1l-0.1,0.05l-0.11,0.07l-0.11,0.07
	l-0.08,0.05l-0.07,0.04l-0.15,0.09l-0.08,0.05l-0.07,0.05l-0.07,0.04l-0.07,0.04l-0.09,0.06l-0.09,0.06l-0.09,0.05l-0.15,0.1
	l-0.09,0.06l-0.11,0.07l-0.1,0.06l-0.08,0.04l-0.06,0.04l-0.09,0.05l-0.29,0.18l-0.16,0.09l-0.02,0.02l-0.16,0.09l-0.09,0.05
	l-0.11,0.07l-0.2,0.12l-0.19,0.11l-0.1,0.06l-0.1,0.06l-0.1,0.05l-0.1,0.06l-0.09,0.06l-0.1,0.05l-0.09,0.06l-0.1,0.06l-0.15,0.09
	l-0.1,0.06l-0.17,0.1l-0.53,0.3l-0.05,0.03l-0.09,0.06l-0.14,0.08l-0.13,0.08l-0.18,0.16l-0.16,0.15l-0.04,0.03l-0.06,0.06
	l-0.1,0.09l-0.05,0.05l-0.08,0.07l-0.02,0.02l-0.05,0.04l-0.1,0.1l-0.08,0.07l-0.03,0.03l-0.1,0.09l-0.06,0.06l-0.05,0.05
	l-0.03,0.02l-0.07,0.07l-0.12,0.11l-0.12,0.11l-0.08,0.08l-0.08,0.08l-0.08,0.07l-0.07,0.06l-0.07,0.07l-0.07,0.07l-0.1,0.09
	l-0.12,0.12l-0.06,0.04l-0.09,0.08l-0.15,0.13l-0.11,0.09l-0.03,0.02l-0.03,0.03l-0.07,0.05l-0.11,0.09l-0.1,0.08l-0.14,0.11
	l-0.07,0.06l-0.08,0.06l-0.08,0.06l-0.1,0.07l-0.14,0.1l-0.02,0.01l-0.21,0.36l0.2,0.21l0.09,0.08l0.05,0.06l0.13,0.12l0.13,0.13
	l0.07,0.07l0.13,0.13l0.15,0.13l0.05,0.06l0.07,0.07l0.1,0.1l0.1,0.1l0.13,0.13l0.03,0.03l0.09,0.09l0.07,0.06l0.08,0.09l0.08,0.07
	l0.07,0.07l0.12,0.11l0.11,0.12l0.12,0.11l0.12,0.12l0.11,0.1l0.1,0.1l0.05,0.05l0.1,0.1l0.07,0.06l0.12,0.12l0.12,0.12l0.12,0.11
	l0.15,0.16l0.06,0.05l0.18,0.18l0.18,0.18l0.09,0.08l0.2,0.21l0.13,0.11l0.06,0.06l0.13,0.14l0.15,0.14l0.1,0.1l0.12,0.12l0.18,0.17
	l0.02,0.03l0.06,0.05l0.19,0.19l0.06,0.06l0.06,0.06l0.14,0.13l0.08,0.09l0.08,0.07l0.13,0.12l0.17,0.17l0.05,0.05l0.33,0.32
	l0.22,0.22l0.13,0.13l0.14,0.13l0.07,0.07l0.07,0.07l0.17,0.17l0.11,0.11l0.11,0.11l0.12,0.11l0.11,0.1l0.09,0.1l0.27,0.27
	l0.05,0.05l0.2,0.19l0.2,0.19l0.03,0.03l0.06,0.07l0.11,0.11l0.11,0.1l0.19,0.18l0.13,0.14l0.13,0.12l0.13,0.13l0.12,0.11l0.1,0.11
	l0.11,0.1l0.1,0.1l0.18,0.18l0.06,0.05l0.03,0.04l0.04,0.03l0.05,0.05l0.11,0.11l0.11,0.12l0.12,0.11l0.12,0.11l0.11,0.12l0.11,0.1
	l0.1,0.1l0.11,0.1l0.07,0.08l0.08,0.07l0.07,0.07l0.09,0.09l0.09,0.09l0.06,0.05l0.07,0.07l0.08,0.08l0.16,0.16l0.26,0.26l0.05,0.05
	l0.1,0.09l0.06,0.06l0.06,0.06l0.12,0.11l0.09,0.1l0.12,0.11l0.13,0.13l0.14,0.13l0.08,0.09l0.18,0.17l0.1,0.1l0.08,0.07l0.09,0.09
	l0.11,0.11l0.1,0.1l0.07,0.07l0.09,0.08l0.12,0.12l0.09,0.09l0.11,0.11l0.07,0.07l0.06,0.06l0.17,0.16l0.1,0.1l0.02,0.02l0.08,0.08
	l0.03,0.03l0.03,0.03l0.1,0.09l0.09,0.09l0.11,0.11l0.08,0.08l0.07,0.07l0.06,0.05l0.05,0.06l0.05,0.05l0.1,0.09l0.06,0.06
	l0.07,0.07l0.07,0.07l0.23,0.23l0.47,0.45l0.3,0.29l0.1,0.1l0.2,0.18l0.02,0.05l0.04,0.09l0.04,0.1l0.04,0.08l0.04,0.09l0.06,0.14
	l0.01,0.03l0.06,0.11l0.02,0.05l0.06,0.14l0.03,0.07l0.04,0.07l0.03,0.07l0.04,0.09l0.04,0.1l0.05,0.1l0.06,0.14l0.06,0.13
	l0.07,0.16l0.05,0.12l0.04,0.08l0.02,0.04l0.09,0.2l0,0l0.03,0.07l0.06,0.19l0.01,0.06l0.05,0.15l0.02,0.09l0.03,0.09l0.03,0.14
	l0.03,0.13v0.01l0.03,0.18l0.04,0.21v0.01l0.01,0.03v0.05l0.03,0.15l0.01,0.17l0.05,0.42l0.02,0.15l0.01,0.14l0.01,0.1l0.01,0.1
	l0.01,0.11l0.02,0.18l0.03,0.26l0.03,0.19l0.04,0.23l0.01,0.1l0,0l0.02,0.07l0.02,0.09l0.04,0.18l0.02,0.11l0.01,0.07l0.04,0.17
	l0.2,0.39l0.15-0.02l0.27-0.05l-0.1,0.38l-0.02,0.09l-0.02,0.1l-0.02,0.09l-0.04,0.22l-0.09,0.45l-0.06,0.26l-0.02,0.09l-0.04,0.22
	l-0.01,0.02l0,0l-0.01,0.06l-0.01,0.08l-0.01,0.05l-0.01,0.06l-0.02,0.06l-0.06,0.29v0.04l-0.02,0.16l-0.02,0.19v0.05l-0.01,0.06
	l-0.01,0.13l-0.01,0.11v0.05l-0.01,0.04l-0.01,0.07v0.04l0.12,0.06l0.12-0.1l0.15-0.12l0.17-0.13l0.09-0.03h0.04l0.08-0.02h0.01h0.1
	l0.11-0.01l0.11-0.03l0.06-0.02l0.09-0.03l0.09-0.03l0.09,0.01l0.11,0.01l0.07,0.01h0.05h0.06l0.14-0.01l0.03-0.01l0.21-0.07h0.09
	l0.08,0.02l0.19,0.08l0.06,0.01h0.07l0.09-0.01l0.15-0.05l0.04-0.02l0.15-0.05l0.06-0.02l0.09,0.03l0.01,0.01l0.17,0.03l0.02,0.01
	l0.14-0.01l0.02-0.01l0.21-0.12l0.1-0.06l0.09-0.05l0.04-0.02l0.06-0.03l0.02-0.01h0.01l0.12-0.04l0.02-0.01l0.24-0.11l0.09-0.04
	l0.06-0.03l0.14-0.08l0.06-0.03l0.03-0.01l0.06-0.03l0.06-0.04l0.02-0.01l0.03-0.01l0.09-0.04l0.03-0.02l0.1-0.04l0.14-0.07
	l0.08-0.02h0.02l0.05-0.02l0.06-0.03l0.05-0.03l0.1-0.05l0.02-0.02l0.04-0.01l0.01-0.01l0.08-0.03l0.05-0.02l0.03-0.01l0.02-0.01
	l0.09-0.03l0.02-0.01l0.08-0.03l0.01-0.01l0.13-0.04l0,0l0.08-0.02l0.04-0.02l0.04-0.02l0.03-0.01h0.01l0.03-0.01l0.04-0.02
	l0.09-0.04l0.02-0.01l0.12-0.06l0.05-0.02l0.07-0.04l0.03-0.01l0.07-0.03l0.02-0.01l0.12-0.05l0.04-0.01l0.07-0.03l0.01-0.01
	l0.11-0.05l0.03-0.01l0.1-0.06l0.01-0.01l0.01-0.01h0.02l0.13-0.06l0.19-0.07l0.12-0.05l0.27-0.1l0.05-0.02l0.13-0.05l0.17-0.07
	l0.1,0.3l0.02,0.02l0.01,0.01l0.01,0.01l0.04,0.01l0.06-0.02l0.02-0.01l0.14-0.04l0.11-0.03l0.04-0.01l0.12-0.03l0.17-0.04
	l0.06-0.01l0.08-0.02l0.08,0.05l0.05,0.03l0.08-0.04l0.16-0.07l0.06-0.02l0.04-0.02l0.11-0.07l0.09-0.05l0.1-0.03l0.15,0.09
	l0.02,0.01l0.05,0.02h0.03l0.11-0.01l0.1-0.01l0.08,0.02l0.04,0.03l0.02,0.02l0.03,0.03l0.04,0.02l0.04,0.02h0.03l0.03-0.01
	l0.11-0.05l0.07-0.03l0.04-0.01l0.08-0.04l0.13-0.09l0.02-0.03l0.03-0.07l0.02-0.03l0.02-0.06l0.01-0.01l0.04-0.07v-0.02l0.02-0.05
	l0.02-0.05l0.03-0.05v-0.02l0.08-0.06l0.04-0.02l0.01-0.02l0.02-0.01l0.07-0.06l0.11-0.1h0.02h0.01l0.1-0.01l-0.02-0.13l0.08-0.07
	l-0.02-0.11l-0.09-0.49l-0.03-0.16l-0.01-0.09l-0.04-0.21l-0.02-0.14l-0.02-0.1l-0.02-0.11l-0.03-0.13l-0.01-0.11l-0.03-0.13
	l-0.02-0.15l-0.02-0.1l-0.02-0.13l-0.06-0.23L98.5,187l-0.02-0.09l-0.03-0.08l-0.02-0.09l-0.02-0.08l-0.02-0.08l-0.03-0.09
	l-0.02-0.08l-0.02-0.09l-0.03-0.08l-0.02-0.09l-0.02-0.08l-0.04-0.16l-0.03-0.08l-0.01-0.06l-0.03-0.09l-0.02-0.09l-0.02-0.07
	l-0.02-0.07l-0.02-0.07l-0.02-0.09l-0.02-0.08L98,185.12l-0.02-0.07l-0.02-0.07l-0.02-0.07l-0.02-0.09l-0.02-0.08l-0.02-0.07
	l-0.03-0.09l-0.04-0.16l-0.02-0.09l-0.02-0.08l-0.03-0.09l-0.02-0.08l-0.02-0.09l-0.02-0.08l-0.03-0.09l-0.04-0.16l-0.02-0.09
	l-0.05-0.26l-0.06-0.36l-0.03-0.19l-0.01-0.11l-0.02-0.1l-0.01-0.11l-0.02-0.1l-0.02-0.17l-0.01-0.08l-0.02-0.13l-0.02-0.11
	l-0.02-0.1l-0.01-0.17l0.01-0.11v-0.12l0.02-0.34l0.01-0.1l0.01-0.1l0.01-0.12l0.01-0.1l0.01-0.16l0.01-0.17l0.01-0.16l0.01-0.05
	v-0.09l0.01-0.07v-0.04l0.02-0.25l0.01-0.19l0.02-0.34l0.01-0.33l0.01-0.15v-0.11l0.01-0.03l0.05-0.23l0.04-0.15l0.05-0.2l0.02-0.07
	l0.02-0.11l0.03-0.13l0.04-0.14l0.05-0.22l0.03-0.11l0.03-0.15l0.06-0.22l0.02-0.08l0.08-0.36l0.01-0.13v-0.14v-0.1l0.01-0.11v-0.08
	v-0.16v-0.18v-0.12v-0.1V175v-0.14v-0.1v-0.1v-0.36l0.14-0.4l-0.02-0.27l-0.01-0.21l0.01-0.1v-0.1l0.01-0.15l0.01-0.2v-0.19
	l0.01-0.22l0.01-0.18l0.01-0.16l0.01-0.16v-0.12l0.01-0.05v-0.15v-0.05l0.01-0.12l0.02-0.42v-0.09l0.01-0.15v-0.15l-0.13-0.23
	l-0.07-0.3l-0.08-0.31l-0.04-0.17l-0.06-0.25l-0.02-0.1l-0.06-0.11l-0.08-0.18l-0.14-0.28l-0.07-0.15l-0.05-0.1l-0.05-0.1l-0.04-0.1
	l-0.06-0.11l-0.05-0.11l-0.06-0.12l-0.06-0.09l-0.1-0.16l-0.05-0.09l-0.11-0.18l-0.09-0.15l-0.08-0.13l-0.06-0.1l-0.05-0.15
	l-0.01-0.03l-0.03-0.18l-0.02-0.2l-0.03-0.17l-0.03-0.16L96.46,166l-0.02-0.17l-0.02-0.11l-0.02-0.13l-0.02-0.13l-0.01-0.12
	l-0.02-0.13l-0.02-0.11l-0.02-0.15l-0.01-0.16l-0.17-0.02L96,164.76l-0.11-0.02l-0.1-0.01l-0.1-0.01l-0.1-0.01l-0.1-0.01l-0.1-0.01
	l-0.1-0.01l-0.14-0.02l-0.1-0.01l-0.1-0.01l-0.1-0.01l-0.1-0.01l-0.11-0.01l-0.1-0.01l-0.09-0.01l-0.21-0.03l-0.3-0.03l-0.32-0.03
	l-0.08-0.01l-0.09-0.01l-0.08-0.01l-0.25-0.03l-0.09-0.01l-0.19-0.02l-0.14-0.02l-0.1-0.01l-0.11-0.01l-0.14-0.02l-0.1-0.01
	l-0.1-0.01l-0.18-0.02l-0.14-0.01l-0.12-0.02l-0.39-0.04l-0.1-0.01l-0.11-0.01l-0.13-0.02l-0.1-0.01l-0.1-0.01l-0.09-0.01
	l-0.27-0.03l-0.2-0.02h-0.01l-0.15-0.02l-0.12-0.01l-0.11-0.01l-0.14-0.02l-0.14-0.01l-0.09-0.01l-0.1-0.01l-0.1-0.02l-0.1-0.01
	l-0.1-0.01l-0.09-0.01l-0.1-0.01l-0.1-0.01l-0.09-0.01l-0.11-0.01l-0.1-0.01l-0.15-0.02h-0.05l-0.13-0.02l-0.13-0.01l-0.06-0.01
	l-0.08-0.01l-0.1-0.01l-0.12-0.01l-0.11-0.01l-0.1-0.02l-0.11-0.01l-0.1-0.01l-0.12-0.01l-0.1-0.01l-0.1-0.01l-0.11-0.01l-0.1-0.02
	l-0.11-0.01l-0.11-0.01l-0.15-0.02l-0.38-0.04l-0.23-0.44l-0.11-0.22l-0.05-0.09l-0.08-0.16l-0.04-0.08l-0.07-0.13l-0.1-0.19
	l-0.07-0.13l-0.05-0.1l-0.04-0.07l-0.07-0.13v-0.02l-0.01-0.05l-0.01-0.04v-0.04l-0.01-0.04L85,161.67l-0.01-0.06l-0.02-0.14
	l-0.02-0.14l-0.02-0.09l-0.01-0.1l-0.01-0.08l-0.01-0.08l-0.01-0.15l-0.01-0.15v-0.08l-0.01-0.07v-0.08v-0.08l-0.01-0.08v-0.09
	l-0.01-0.07v-0.07L84.84,160v-0.07v-0.06v-0.05l-0.01-0.12l-0.01-0.1v-0.1l-0.01-0.14l-0.01-0.1v-0.08l-0.01-0.08v-0.15l-0.01-0.08
	v-0.07l-0.01-0.12l-0.01-0.12l-0.01-0.12v-0.11l-0.01-0.1v-0.14l-0.01-0.08v-0.02v-0.03l-0.01-0.12v-0.12l-0.01-0.13v-0.09
	l-0.01-0.09l-0.01-0.19l-0.1-0.16h-0.42h-0.12l-0.11-0.01h-0.11h-0.11h-0.11l-0.11-0.01h-0.11l-0.4-0.01L82.72,156.93z"/>
<path id="A1"  d="
	M137.66,171.3l0.34-0.24l-0.02-0.03l-0.16-0.24l-0.21-0.31l-0.36-0.53l-0.1-0.14l-0.2-0.26l-0.05,0.03l-0.09-0.13l0.04-0.03
	l-0.38-0.48l-0.16-0.21l-0.19-0.24l-0.06-0.07l-0.06-0.08l-0.22-0.27l-0.19-0.28l2.29-1.66l0.61-0.43l0.68-0.5l0.13-0.09l0.2-0.14
	l-1.94-1.79l-1.8-1.64v-0.01l-0.53-0.49l-0.09-0.04l-0.06-0.04l-0.42-0.39l-0.06-0.06l-0.33-0.29l-0.12-0.1l-0.03-0.03l-0.57-0.46
	l-0.41-0.34l-0.01-0.01l-0.48-0.41l-0.04-0.03l-0.36-0.3l-1.54-1.3l-0.23-0.2l-0.14-0.11l-0.03-0.02l-0.68-0.55l-0.01-0.01
	l-0.1-0.07l-0.05-0.04l-0.36-0.29l-0.02-0.01v-0.01l-0.17-0.14l-0.11-0.08l-0.23-0.19l-0.01-0.01l-0.51-0.4l-0.02-0.01l-0.12-0.09
	l-0.01-0.02l-2.34-1.88l-0.41-0.33l-0.23-0.19l-0.11-0.09l-1.59-1.27l-0.08-0.07l-0.06-0.05l-0.02-0.02l-0.23-0.18l-0.53-0.43
	l-0.42-0.34l-0.13-0.09l3.01-3.94l1.74-2.28l0.21-0.26l0.89-1.17l0.83-1.09l0.93-1.23l1.21-1.43l0.1-0.16l0.08-0.13l0.03-0.05
	l0.1-0.17l0.04-0.08l0.1-0.15l0.02-0.04l0.05-0.05l0.23-0.3l0.03-0.04l0.33-0.43l0.22-0.29l0.2-0.26l0.05-0.05l0.31-0.41l0.11-0.14
	l1.55-1.98l0.34-0.51l0.21-0.34l0.38-0.76l0.42-0.83l0.1-0.29l0.06-0.17l0.38-1.12l0.03-0.11l0.07-0.3l0.09-0.39l0.2-1.18l0.04-0.54
	l0.02-0.55l0.02-0.57l-0.02-0.51l-0.02-0.41l-0.05-0.48l-0.06-0.38l-0.17-0.92l-0.08-0.44l-0.11-0.6l-0.03-0.15l-0.03-0.18
	l-0.22-1.22l-0.08-0.48l-0.21-1.17l-0.14-0.74l-0.05-0.23l-0.02-0.07l-0.07-0.35l-0.03-0.25l-0.09-0.54l-0.07-0.81l-0.03-0.78
	l-0.01-0.04h-0.01h-0.01l-0.03-0.09l0.01-1.09l0.01-0.64l0.04-0.6v-0.12l0.03-0.52l0.07-0.66l0.17-1.2l0.01-0.08l0.18-0.96l0.13-0.7
	l-0.07-0.2l0.02-0.07l0.04-0.26l0.2-1.12l0.01-0.02l0.01-0.1l0.08-0.46l0.08-0.34l0.38-1.65l0.34-1.47l0.01-0.04l0.02-0.06
	l0.01-0.08l0.01-0.03l0.01-0.03l0.01-0.04l0.04-0.13l0.47-2.14l0.07-0.17l0.02-0.15l0.01-0.02l0.22-1.06l0.15-0.61l0.42-1.88
	l0.04-0.25l0.02-0.21l0.15-0.55v-0.03l0.05-0.2l0.01-0.06l0.02-0.12l0.12-0.96l0.05-0.6l0.01-0.43v-0.15l0.02-0.26l0.02-0.39v-0.06
	V92.4v-0.01l0.02-0.39v-0.03l-5.8-0.06l0.06,0.11l-2.49,7.61l-7.13,7.16l-12.08,6.81v0.01l-4.95,3.26l-0.36,0.24l-5,4.4l-2.25,3.64
	l-0.56,2.21l-0.59,2.32l0.07,0.52l0.52,4.12l1.1,5.01l2.02,2.54l1.66,2.06l0.33,0.41l0.11,0.12l4.87,5.38l1.64,1.82l4.26,3.48
	l0.33,0.27l1.79,1.46l0.11,0.09l0.13,0.1l8.43,6.56l9.3,10.15L137.66,171.3z"/>
</svg>
