
<svg version="1.1" id="map" xmlns="http://www.w3.org/2000/svg" xmlns:xlink="http://www.w3.org/1999/xlink" x="0px" y="0px"
	 viewBox="0 0 147 198" enable-background="new 0 0 147 198" xml:space="preserve">
<style type="text/css">
.st6{display:inline;}
.st5{display:none;}
</style>
<polygon id="A8" onmouseover="afficher(this, &quot;select&quot;);" onmouseout="masquer(this, &quot;select&quot;);" fill="#A7C8D9" stroke="#FFFFFF" stroke-linecap="square" stroke-linejoin="bevel" stroke-miterlimit="10" points="
	89.75,93.09 89.87,93.15 90.71,94.28 90.72,94.29 90.77,94.36 90.83,94.43 90.9,94.53 91.02,94.68 91.34,95.1 91.43,95.22 
	91.71,95.58 91.78,95.68 91.79,95.68 92.02,95.99 92.21,96.24 92.22,96.26 92.46,96.56 92.56,96.69 92.61,96.76 92.69,96.86 
	92.8,97 92.94,97.19 93.02,97.3 93.15,97.46 93.37,97.76 93.48,97.89 93.52,97.95 93.58,98.02 94.12,98.73 94.15,98.78 94.29,98.96 
	94.59,99.35 95.08,99.99 95.11,100.03 95.19,100.13 95.47,100.5 95.56,100.61 95.56,100.62 95.61,100.68 95.65,100.73 95.67,100.76 
	95.73,100.84 95.75,100.86 95.79,100.91 96.01,101.2 96.05,101.26 96.07,101.28 96.14,101.38 96.46,101.8 96.61,101.99 
	96.76,102.18 96.91,102.38 97.03,102.54 97.12,102.66 97.19,102.75 97.29,102.88 97.37,102.99 97.4,103.02 97.56,103.23 
	97.59,103.27 97.62,103.31 97.69,103.41 97.78,103.52 97.91,103.69 98.01,103.82 98.14,103.99 98.2,104.07 98.24,104.12 
	98.45,104.39 98.89,104.97 98.9,104.98 98.96,105.06 99.17,105.33 99.2,105.38 99.36,105.59 99.38,105.61 99.52,105.8 99.69,106.02 
	99.83,106.2 99.98,106.4 100.18,106.66 100.21,106.7 100.33,106.85 100.49,107.06 100.56,107.16 100.71,107.42 100.8,107.54 
	100.89,107.65 100.97,107.76 101.13,107.97 101.28,108.16 101.38,108.29 101.48,108.42 101.68,108.69 101.88,108.94 101.99,109.09 
	102.06,109.18 102.17,109.33 102.31,109.51 102.42,109.66 102.54,109.81 102.65,109.95 102.76,110.1 102.88,110.25 102.99,110.4 
	103.01,110.43 103.11,110.56 103.41,110.95 103.43,110.98 103.59,111.18 103.67,111.29 103.69,111.32 104.03,111.75 104.21,111.99 
	104.32,112.14 104.77,112.63 105.12,113.1 105.18,113.17 107.2,115.87 112.15,112.61 112.15,112.6 124.23,105.79 131.36,98.63 
	133.85,91.02 133.79,90.91 134.91,84.3 134.97,84.13 135.45,82.6 136.25,80.41 136.34,80.14 136.91,78.8 138.92,74.87 140.41,71.99 
	140.81,70.81 140.95,70.28 141.25,69.07 141.84,66.18 142.13,64.3 142.17,64.07 142.47,61.67 142.66,59.46 142.82,56.51 
	142.95,53.88 142.96,53.74 142.96,53.74 142.96,53.52 142.91,53.06 142.88,52.63 142.87,52.13 142.88,51.69 142.84,51.24 
	142.82,50.8 142.53,49.26 142.38,48.49 142.29,48.14 142.14,47.59 142.01,47.22 141.87,46.85 141.72,46.37 141.41,44.93 
	140.12,39.06 139.96,38.31 139.44,34.99 138.96,31.94 138.03,28.89 136.23,23.05 135.77,21.73 133.68,15.75 133.53,15.38 
	133.02,13.84 132.87,13.4 132.09,11.1 131.05,8.03 130.91,7.64 130.41,6.15 129.9,4.69 125.96,6.24 125.98,6.41 125.84,6.92 
	125.63,7.41 125.34,7.79 125.06,8 124.66,8.2 124.24,8.25 123.84,8.12 123.52,7.88 123.3,7.6 122.99,7.16 122.73,6.9 122.47,6.72 
	122.08,6.56 121.36,6.39 120.63,6.66 120.1,6.93 119.88,7.05 119.76,7.1 119.56,7.21 119.35,7.37 119.17,7.55 118.89,7.8 
	118.71,7.91 118.57,8.01 118.26,8.16 118.02,8.27 117.72,8.36 117.47,8.43 117.19,8.5 116.91,8.55 116.64,8.57 116.41,8.57 
	116.26,8.56 115.88,8.5 115.75,8.46 115.51,8.42 115.37,8.38 115.32,8.35 115.16,8.25 114.98,8.18 114.76,8.07 114.67,8.02 
	114.15,7.79 113.97,7.74 113.85,7.71 113.79,7.7 113.69,7.7 113.56,7.69 113.31,7.76 113.13,7.85 113.03,7.91 112.63,8.22 
	112.52,8.38 112.4,8.59 112.11,9.19 112.05,9.35 112,9.44 111.92,9.57 111.84,9.72 111.67,9.85 111.48,9.96 111.25,10.05 
	111.02,10.11 110.93,10.11 110.82,10.11 110.58,10.07 110.41,10.04 110.22,9.98 110.09,9.92 109.99,9.89 109.81,9.84 109.74,9.83 
	109.67,9.82 109.57,9.81 109.44,9.8 109.28,9.8 109.12,9.81 108.93,9.83 108.69,9.87 108.53,9.9 108.36,9.93 108.18,9.95 
	108.04,9.96 107.91,9.96 107.74,9.97 107.58,9.98 107.44,10 107.16,10 107.02,9.98 106.83,9.92 106.71,9.88 106.51,9.81 
	106.22,9.65 106.08,9.57 105.87,9.46 105.75,9.42 105.62,9.39 105.38,9.35 105.13,9.33 104.85,9.33 104.49,9.35 104.42,9.36 
	104.36,9.36 104.05,9.35 103.83,9.32 103.63,9.31 103.35,9.27 103.02,9.21 102.87,9.19 102.67,9.17 102.42,9.16 102.14,9.17 
	101.89,9.17 101.68,9.17 101.35,9.19 101.21,9.21 101.11,9.22 101.07,9.23 100.98,9.24 100.82,9.27 100.7,9.29 100.59,9.32 
	100.46,9.35 100.39,9.37 100.35,9.38 100.27,9.4 100,9.49 99.77,9.57 99.64,9.62 99.59,9.65 99.51,9.69 100.03,10.96 100.51,12.16 
	101.05,13.5 101.06,13.52 101.07,13.54 101.07,13.56 101.08,13.58 101.08,13.59 101.08,13.61 101.08,13.63 101.08,13.65 
	101.08,13.67 101.07,13.69 101.07,13.71 101.06,13.73 101.05,13.75 101.04,13.78 101.03,13.8 101.01,13.82 101,13.83 100.85,14 
	100.63,14.09 100.6,14.09 100.57,14.09 100.51,14.09 100.41,14.09 100.35,14.08 100.32,14.08 100.21,14.07 100.19,14.07 
	100.13,14.07 100.11,14.07 100.09,14.07 100.05,14.08 100.01,14.09 99.98,14.11 99.97,14.11 99.96,14.12 99.94,14.13 99.93,14.14 
	99.92,14.15 99.9,14.16 99.9,14.16 99.88,14.2 99.86,14.22 99.85,14.24 99.84,14.27 99.83,14.29 99.82,14.32 99.82,14.34 
	99.81,14.37 99.81,14.39 99.81,14.42 99.8,14.45 99.8,14.48 99.8,14.51 99.79,14.57 99.79,14.6 99.79,14.6 99.79,14.63 99.78,14.66 
	99.78,14.69 99.77,14.72 99.76,14.75 99.75,14.78 99.73,14.8 99.72,14.83 99.7,14.85 99.68,14.87 99.66,14.9 99.59,14.96 
	99.57,14.98 99.47,15.06 99.41,15.1 99.36,15.13 99.3,15.16 99.27,15.17 99.24,15.18 99.18,15.21 99.12,15.23 99.05,15.25 
	98.91,15.27 98.84,15.27 98.76,15.27 98.69,15.26 98.62,15.25 98.56,15.23 98.18,15.1 98.12,15.09 98.07,15.08 97.98,15.08 
	97.93,15.09 97.91,15.1 97.88,15.11 97.84,15.14 97.56,15.41 97.53,15.43 97.51,15.44 97.47,15.46 97.44,15.47 97.4,15.47 
	97.34,15.48 97.28,15.47 97.24,15.46 97.02,15.38 96.96,15.37 96.9,15.37 96.88,15.37 96.87,15.37 96.84,15.38 96.82,15.39 
	96.8,15.39 96.77,15.4 96.75,15.41 96.73,15.42 96.71,15.43 96.68,15.44 96.66,15.45 96.64,15.46 96.63,15.47 96.61,15.47 
	96.6,15.48 96.58,15.49 96.56,15.49 96.54,15.5 96.53,15.5 96.51,15.51 96.47,15.51 96.46,15.5 96.28,15.47 96.27,15.47 
	96.24,15.46 96.23,15.46 96.21,15.46 96.18,15.45 96.15,15.45 96.13,15.45 96.12,15.45 96.04,15.45 95.75,15.47 95.72,15.47 
	95.67,15.48 95.64,15.5 95.63,15.51 95.6,15.55 95.58,15.58 95.48,15.83 95.47,15.85 95.45,15.88 95.43,15.91 95.42,15.93 
	95.38,15.97 95.35,15.99 95.32,16.01 95.25,16.05 95.21,16.07 95.17,16.08 95.13,16.09 95.09,16.1 95.01,16.1 94.97,16.1 
	94.89,16.08 94.71,16.03 94.63,16.01 94.37,15.93 94.29,15.9 94.2,15.87 94.18,15.86 94.15,15.85 94.12,15.85 94.1,15.84 
	94.07,15.83 94.04,15.83 94.01,15.82 93.98,15.82 93.96,15.81 93.93,15.81 93.91,15.81 93.89,15.8 93.78,15.79 93.67,15.78 
	93.65,15.78 93.63,15.77 93.62,15.77 93.53,15.76 93.52,15.76 93.51,15.75 93.5,15.75 93.48,15.75 93.46,15.75 93.45,15.74 
	93.43,15.74 93.42,15.74 93.4,15.74 93.37,15.73 93.33,15.73 93.24,15.72 93.14,15.71 93.12,15.71 93.07,15.71 93.02,15.71 
	93.01,15.7 93,15.7 92.99,15.7 92.94,15.69 92.89,15.68 92.79,15.65 92.76,15.61 92.71,15.59 92.67,15.57 92.54,15.55 92.39,15.3 
	92.17,15.36 92.07,15.41 91.94,15.42 91.79,15.42 91.63,15.41 91.49,15.4 91.27,15.39 91.17,15.71 91.14,15.76 91.13,15.82 
	91.14,15.86 91.15,15.91 91.17,15.95 91.2,16.01 91.2,16.06 91.2,16.11 91.21,16.36 91.19,16.38 91.16,16.48 91.14,16.58 
	91.11,16.66 91.08,16.75 91.06,16.85 91.06,16.98 91.06,17.05 91.05,17.13 90.85,17.69 90.83,17.74 90.75,17.79 90.42,17.87 
	90.26,17.85 90.01,17.81 89.85,17.8 89.8,17.81 89.74,17.8 89.37,17.81 88.38,17.75 87.98,17.65 87.8,17.49 87.81,17.24 88.4,16.21 
	88.4,16.2 88.4,16.19 88.4,16.19 88.4,16.18 88.4,16.17 88.4,16.16 88.4,16.15 88.39,16.14 88.39,16.13 88.39,16.13 88.39,16.12 
	88.38,16.11 88.38,16.11 88.38,16.1 88.37,16.09 88.37,16.09 88.36,16.08 88.36,16.08 88.09,15.92 87.92,15.84 87.91,15.84 
	87.9,15.84 87.89,15.83 87.88,15.83 87.87,15.83 87.86,15.83 87.85,15.83 87.84,15.83 87.83,15.83 87.82,15.84 87.12,16.15 
	87.22,19.04 87.24,19.65 87.27,19.94 87.27,20.1 87.95,40.49 87.94,40.61 87.97,41.38 87.98,41.6 88.07,44.16 88.15,46.6 
	88.19,48.1 88.29,50.8 88.37,53.01 88.38,53.42 88.39,53.67 88.41,54.33 88.45,55.35 88.99,71.22 89.04,72.81 89.11,74.33 
	89.15,75.67 89.19,76.78 89.24,78.67 89.32,80.97 89.36,82.11 89.38,82.69 89.4,83.12 89.4,83.36 89.41,83.69 89.42,83.85 
	89.43,84.15 89.43,84.31 89.44,84.48 89.44,84.62 89.45,84.8 89.46,85 89.47,85.33 89.47,85.64 89.47,85.71 89.49,85.87 89.5,86.17 
	89.5,86.35 89.5,86.47 89.52,86.91 89.53,86.91 89.54,87.34 89.55,87.4 89.56,87.85 89.58,88.23 89.59,88.51 89.59,88.56 
	89.59,88.69 89.6,88.85 89.6,88.85 89.6,88.89 89.61,89.04 89.62,89.2 89.61,89.2 89.62,89.38 89.63,89.59 89.64,90.07 89.64,90.15 
	89.65,90.23 89.65,90.39 89.66,90.53 89.66,90.77 89.66,90.93 89.67,91.08 89.67,91.14 89.68,91.3 89.68,91.3 89.69,91.58 
	89.7,91.83 89.7,92.04 89.75,92.93 "/>
<polygon id="A7" fill="#A7C8D9" stroke="#FFFFFF" stroke-linecap="square" stroke-linejoin="bevel" stroke-miterlimit="10" points="
	66.08,113.88 66.08,113.88 66.02,113.98 66.37,114.31 66.43,114.38 66.58,114.52 66.68,114.63 66.79,114.74 67.05,115 67.17,115.12 
	67.24,115.2 67.32,115.28 67.41,115.37 67.48,115.43 67.56,115.51 67.73,115.69 67.81,115.77 67.89,115.85 67.97,115.93 
	68.05,116.02 68.14,116.1 68.22,116.18 68.31,116.28 68.4,116.36 68.47,116.44 68.54,116.51 68.59,116.56 68.66,116.63 68.73,116.7 
	68.82,116.79 68.89,116.86 69.01,116.98 69.14,117.12 69.2,117.17 69.34,117.32 69.47,117.45 69.53,117.51 69.61,117.59 
	69.66,117.64 69.78,117.76 70.57,118.26 70.72,118.35 70.83,118.42 71.05,118.55 71.16,118.61 71.27,118.68 71.41,118.76 
	71.55,118.84 71.78,118.98 71.84,119.02 72.02,119.13 72.12,119.2 72.22,119.26 72.33,119.32 72.42,119.38 72.52,119.45 
	72.6,119.49 72.62,119.51 72.73,119.58 72.81,119.63 72.91,119.69 73,119.74 73.17,119.85 73.34,119.96 73.55,120.09 73.59,120.11 
	73.7,120.19 73.81,120.25 73.9,120.31 73.9,120.31 73.95,120.34 73.95,120.34 74.01,120.38 74.01,120.38 74.02,120.38 74.02,120.38 
	74.02,120.38 74.11,120.44 74.25,120.53 74.34,120.58 74.35,120.58 74.35,120.58 74.41,120.62 74.41,120.62 74.41,120.62 
	74.41,120.63 74.54,120.71 74.75,120.84 74.89,120.92 75.02,121 75.16,121.09 75.27,121.16 75.35,121.21 75.43,121.26 75.51,121.3 
	75.59,121.35 75.65,121.39 75.69,121.42 75.8,121.48 75.88,121.53 75.97,121.59 76.06,121.64 76.15,121.7 76.27,121.78 
	76.36,121.85 76.45,121.91 76.55,121.98 76.68,122.08 76.76,122.14 76.85,122.2 76.94,122.27 77.09,122.37 77.23,122.47 
	77.32,122.53 77.41,122.59 77.51,122.67 77.52,122.66 77.6,122.71 77.59,122.72 77.61,122.74 77.77,122.84 78.41,123.29 
	78.51,123.36 78.58,123.42 78.66,123.47 78.74,123.53 78.95,123.67 79.03,123.72 79.04,123.74 79.1,123.8 79.26,123.98 79.3,124.03 
	79.34,124.07 79.45,124.18 79.52,124.27 79.6,124.35 79.67,124.43 79.75,124.52 79.82,124.6 79.97,124.77 80.03,124.82 
	80.08,124.88 80.17,124.98 80.25,125.07 80.36,125.19 80.43,125.27 80.53,125.37 80.6,125.46 80.71,125.57 80.8,125.68 80.9,125.78 
	80.97,125.87 81.04,125.94 81.12,126.02 81.2,126.11 81.32,126.25 81.4,126.34 81.48,126.42 81.57,126.51 81.67,126.63 
	81.72,126.68 81.78,126.75 81.84,126.82 81.9,126.89 81.96,126.95 82.03,127.03 82.09,127.1 82.12,127.13 82.96,128.05 
	83.14,128.25 83.21,128.33 83.28,128.41 83.45,128.59 83.62,128.78 83.76,128.93 83.88,129.07 83.94,129.13 84.02,129.22 
	84.12,129.33 84.17,129.39 84.24,129.47 84.33,129.56 84.42,129.67 84.55,129.81 84.61,129.88 84.73,130 84.88,130.17 84.88,130.17 
	84.88,130.18 84.87,130.18 84.87,130.19 84.87,130.2 84.86,130.2 84.86,130.21 84.86,130.21 84.86,130.22 84.85,130.22 
	84.85,130.23 84.84,130.24 84.84,130.25 84.84,130.26 84.83,130.26 84.83,130.27 84.83,130.28 84.82,130.29 84.82,130.3 
	84.82,130.3 84.81,130.31 84.81,130.32 84.81,130.32 84.81,130.33 84.81,130.34 84.8,130.35 84.8,130.35 84.8,130.36 84.8,130.37 
	84.8,130.37 84.8,130.38 84.8,130.39 84.79,130.39 84.79,130.4 84.79,130.41 84.79,130.41 84.79,130.42 84.79,130.43 84.79,130.43 
	84.79,130.44 84.79,130.45 84.79,130.45 84.79,130.46 84.79,130.47 84.79,130.47 84.79,130.48 84.79,130.49 84.79,130.5 
	84.79,130.51 84.8,130.52 84.8,130.53 84.8,130.54 84.8,130.55 84.8,130.56 84.8,130.57 84.81,130.58 84.81,130.59 84.81,130.6 
	84.81,130.61 84.82,130.62 84.82,130.63 84.82,130.64 84.83,130.65 84.83,130.66 84.83,130.67 84.84,130.67 84.84,130.68 
	84.84,130.69 84.84,130.7 84.85,130.71 84.86,130.72 84.86,130.72 84.86,130.73 84.87,130.74 84.87,130.74 84.87,130.75 
	84.88,130.76 84.88,130.76 84.88,130.77 84.89,130.77 84.89,130.78 84.9,130.79 84.9,130.79 84.9,130.8 84.91,130.81 84.91,130.81 
	84.92,130.82 84.92,130.83 84.93,130.83 85.36,131.09 85.36,131.09 85.37,131.09 85.38,131.1 85.39,131.1 85.4,131.1 85.41,131.1 
	85.42,131.1 85.43,131.1 85.44,131.09 85.46,131.09 85.47,131.09 85.49,131.09 85.5,131.09 85.52,131.08 85.53,131.08 85.55,131.08 
	85.56,131.07 85.58,131.07 85.88,130.79 85.89,130.78 85.89,130.77 85.9,130.76 85.9,130.75 85.9,130.74 85.91,130.73 85.91,130.72 
	85.91,130.71 85.91,130.7 85.92,130.69 85.92,130.68 85.92,130.67 85.92,130.66 85.92,130.65 85.93,130.64 85.93,130.63 
	85.93,130.62 85.93,130.61 86.15,130.6 86.43,130.58 86.67,130.64 86.93,130.61 87.09,130.6 87.26,130.58 87.42,130.57 
	87.57,130.56 87.76,130.54 87.72,130.1 87.72,130.09 87.72,130.07 87.73,130.06 87.73,130.05 87.73,130.04 87.73,130.02 
	87.73,130.01 87.73,130 87.73,129.99 87.73,129.98 87.74,129.97 87.74,129.96 87.74,129.95 87.74,129.94 87.74,129.93 87.74,129.92 
	87.75,129.91 87.75,129.9 87.75,129.88 87.75,129.87 87.76,129.85 87.76,129.84 87.76,129.82 87.77,129.81 87.77,129.79 
	87.77,129.78 87.78,129.76 87.78,129.74 87.78,129.74 87.79,129.73 87.79,129.73 87.79,129.71 87.8,129.7 87.8,129.7 87.8,129.69 
	87.8,129.68 87.8,129.67 87.81,129.67 87.81,129.66 87.81,129.65 87.82,129.64 87.82,129.63 87.83,129.62 87.83,129.6 87.84,129.59 
	87.84,129.57 87.85,129.56 87.86,129.55 87.86,129.53 87.87,129.52 87.95,129.35 87.96,129.34 87.97,129.33 87.98,129.32 
	87.99,129.3 87.99,129.29 88,129.28 88.01,129.27 88.02,129.26 88.03,129.24 88.04,129.23 88.04,129.23 88.05,129.22 88.05,129.21 
	88.05,129.21 88.06,129.2 88.06,129.2 88.07,129.19 88.07,129.18 88.08,129.18 88.08,129.17 88.09,129.17 88.09,129.16 
	88.09,129.16 88.1,129.15 88.1,129.15 88.11,129.14 88.12,129.13 88.13,129.12 88.14,129.11 88.15,129.09 88.16,129.08 
	88.17,129.07 88.18,129.06 88.19,129.05 88.2,129.04 88.2,129.04 88.21,129.03 88.22,129.02 88.22,129.02 88.23,129.02 
	88.24,129.01 88.25,128.99 88.27,128.98 88.28,128.97 88.29,128.96 88.31,128.95 88.32,128.94 88.33,128.93 88.35,128.92 
	88.52,128.8 88.53,128.8 88.53,128.8 88.54,128.79 88.55,128.79 88.55,128.78 88.56,128.78 88.57,128.78 88.58,128.77 88.58,128.77 
	88.59,128.77 88.59,128.76 88.6,128.76 88.61,128.76 88.61,128.75 88.62,128.75 88.63,128.75 88.63,128.74 88.64,128.74 
	88.65,128.74 88.65,128.73 88.66,128.73 88.67,128.73 88.68,128.72 88.68,128.72 88.69,128.72 88.7,128.71 88.71,128.71 
	88.71,128.71 88.72,128.7 88.72,128.7 88.73,128.7 88.74,128.7 88.74,128.7 88.75,128.69 88.75,128.69 88.76,128.69 88.77,128.69 
	88.78,128.68 88.79,128.68 88.81,128.67 88.82,128.67 88.83,128.67 88.84,128.66 88.85,128.66 88.87,128.66 88.88,128.65 
	88.88,128.65 88.89,128.65 88.9,128.64 88.91,128.64 88.92,128.64 88.93,128.64 88.94,128.63 88.95,128.63 89.38,128.53 
	89.26,127.09 89.45,127.07 89.65,127.05 89.81,127.04 89.98,127.02 90.14,127.01 90.31,126.99 90.53,126.97 90.72,126.96 
	90.95,126.94 91.13,126.92 91.26,126.91 91.48,126.89 91.72,126.87 91.84,126.86 92.09,126.84 92.3,126.82 92.48,126.8 
	92.67,126.79 92.86,126.77 93.03,126.75 93.19,126.74 93.35,126.73 93.58,126.7 93.77,126.69 94.18,126.65 99.03,126.36 
	99.59,124.15 101.84,120.51 106.84,116.11 107.2,115.87 105.18,113.17 105.12,113.1 104.77,112.63 104.32,112.14 104.21,111.99 
	104.03,111.75 103.69,111.32 103.67,111.29 103.59,111.18 103.43,110.98 103.41,110.95 103.11,110.56 103.01,110.43 102.99,110.4 
	102.88,110.25 102.76,110.1 102.65,109.95 102.54,109.81 102.42,109.66 102.31,109.51 102.17,109.33 102.06,109.18 101.99,109.09 
	101.88,108.94 101.68,108.69 101.48,108.42 101.38,108.29 101.28,108.16 101.13,107.97 100.97,107.76 100.89,107.65 100.8,107.54 
	100.71,107.42 100.56,107.16 100.49,107.06 100.33,106.85 100.21,106.7 100.18,106.66 99.98,106.4 99.83,106.2 99.69,106.02 
	99.52,105.8 99.38,105.61 99.36,105.59 99.2,105.38 99.17,105.33 98.96,105.06 98.9,104.98 98.89,104.97 98.45,104.39 98.24,104.12 
	98.2,104.07 98.14,103.99 98.01,103.82 97.91,103.69 97.78,103.52 97.69,103.41 97.62,103.31 97.59,103.27 97.56,103.23 
	97.4,103.02 97.37,102.99 97.29,102.88 97.19,102.75 97.12,102.66 97.03,102.54 96.91,102.38 96.76,102.18 96.61,101.99 
	96.46,101.8 96.14,101.38 96.07,101.28 96.05,101.26 96.01,101.2 95.79,100.91 95.75,100.86 95.73,100.84 95.67,100.76 
	95.65,100.73 95.61,100.68 95.56,100.62 95.56,100.61 95.47,100.5 95.19,100.13 95.11,100.03 95.08,99.99 94.59,99.35 94.29,98.96 
	94.15,98.78 94.12,98.73 93.58,98.02 93.52,97.95 93.48,97.89 93.37,97.76 93.15,97.46 93.02,97.3 92.94,97.19 92.8,97 92.69,96.86 
	92.61,96.76 92.56,96.69 92.46,96.56 92.22,96.26 92.21,96.24 92.02,95.99 91.79,95.68 91.78,95.68 91.71,95.58 91.43,95.22 
	91.34,95.1 91.02,94.68 90.9,94.53 90.83,94.43 90.77,94.36 90.72,94.29 90.71,94.28 89.87,93.15 89.75,93.09 89.69,93.12 
	89.49,93.22 88.78,93.57 88.61,93.66 88.5,93.71 88.4,93.76 88.29,93.82 88.17,93.88 88.07,93.93 87.91,94 87.75,94.09 87.6,94.16 
	87.44,94.24 87.33,94.29 87.28,94.32 87.15,94.38 87.11,94.4 87.01,94.46 86.9,94.51 86.8,94.56 86.66,94.63 86.56,94.68 
	86.48,94.72 86.38,94.77 86.28,94.82 86.1,94.91 85.98,94.97 85.26,95.32 85.18,95.36 85.04,95.43 84.92,95.49 84.79,95.56 
	84.65,95.63 84.6,95.65 84.51,95.7 84.42,95.74 84.3,95.8 84.19,95.86 84.07,95.92 83.93,95.99 83.76,96.07 83.63,96.14 
	83.49,96.21 83.34,96.28 83.18,96.36 83.04,96.44 82.86,96.52 82.72,96.59 82.58,96.66 82.44,96.74 81.83,97.03 81.77,97.06 
	81.63,97.13 81.49,97.2 81.47,97.21 81.4,97.25 81.3,97.3 81.19,97.35 81.08,97.41 80.95,97.47 80.86,97.51 80.81,97.54 
	80.73,97.58 80.65,97.62 80.56,97.66 80.52,97.68 80.48,97.7 80.29,97.79 80.26,97.81 80.19,97.85 80.02,97.93 79.99,97.94 
	79.69,98.09 79.55,98.16 79.3,98.29 79.28,98.29 79.18,98.34 79.03,98.42 78.95,98.46 78.77,98.55 78.6,98.63 77.87,99 
	75.82,100.02 75.64,100.11 75.63,100.11 75.4,100.23 75.11,100.38 74.91,100.48 74.84,100.53 74.76,100.57 74.54,100.71 
	74.3,100.88 74.2,100.95 74.1,101.03 73.96,101.14 73.79,101.29 73.68,101.38 73.51,101.55 73.45,101.61 73.2,101.89 73.07,102.04 
	72.96,102.19 72.82,102.38 72.73,102.51 72.65,102.64 72.27,103.29 72.2,103.41 71.99,103.76 71.63,104.37 71.25,105.03 
	71.21,105.09 70.47,106.36 70.43,106.43 70.39,106.5 70.26,106.72 70.16,106.9 70.04,107.1 69.9,107.33 69.67,107.74 69.59,107.86 
	69.48,108.06 69.36,108.27 69.29,108.38 69.19,108.56 69.17,108.6 69.13,108.66 69.06,108.78 68.88,109.09 68.78,109.26 
	68.72,109.35 68.63,109.52 68.54,109.66 68.39,109.93 68.31,110.07 68.21,110.23 68.13,110.37 68.05,110.5 67.97,110.63 
	67.87,110.81 67.81,110.92 67.76,111.01 67.66,111.18 67.57,111.32 67.52,111.42 67.47,111.49 67.39,111.63 67.37,111.67 
	67.25,111.87 67.15,112.04 67.07,112.18 66.99,112.32 66.91,112.46 66.73,112.76 66.61,112.96 66.51,113.15 66.42,113.29 
	66.38,113.37 66.32,113.46 66.26,113.57 66.16,113.73 "/>
<polygon id="A6" fill="#A7C8D9" stroke="#FFFFFF" stroke-linecap="square" stroke-linejoin="bevel" stroke-miterlimit="10" points="
	65.37,115.09 64.45,114.77 64.37,114.75 64.3,114.72 64.18,114.68 64.09,114.64 63.9,114.55 63.7,114.45 63.36,114.28 63.07,114.14 
	62.81,114.02 62.53,113.9 62.03,113.72 61.32,113.47 60.91,113.32 60.76,113.25 60.54,113.14 60.45,113.1 60.31,113.03 60.2,112.98 
	59.76,112.76 59.46,112.61 59.25,112.49 59.11,112.38 58.92,112.23 58.64,112.01 58.49,111.89 58.23,111.67 58.03,111.51 
	57.84,111.37 57.55,111.16 57.43,111.07 57.19,110.88 57.01,110.74 56.82,110.61 56.72,110.53 56.3,110.05 56.22,109.96 
	55.97,109.68 55.9,109.6 55.75,109.44 55.56,109.25 55.06,108.84 55.01,108.79 54.9,108.69 54.77,108.58 54.68,108.51 54.65,108.48 
	54.62,108.45 54.52,108.34 54.46,108.28 54.43,108.24 54.42,108.23 54.36,108.17 54.32,108.13 54.31,108.12 54.29,108.09 
	54.06,107.8 53.88,107.58 53.71,107.37 53.68,107.33 53.59,107.24 53.52,107.16 53.51,107.15 53.48,107.12 53.44,107.08 
	53.36,107.02 53.33,106.99 53.29,106.96 53.23,106.91 52.98,106.71 52.86,106.6 52.78,106.54 52.61,106.4 52.39,106.22 
	52.23,106.09 52.08,105.97 52.03,105.93 51.94,105.86 51.91,105.83 51.76,105.71 51.52,105.51 51.44,105.45 51.33,105.36 
	51.2,105.26 51.01,105.1 50.84,104.96 50.72,104.86 50.46,104.65 50.02,104.29 49.8,104.12 49.65,103.99 49.01,103.44 48.85,103.3 
	48.69,103.16 48.45,102.97 48.42,102.94 48.27,102.83 48.2,102.79 48.02,102.66 47.11,102.07 46.95,102 46.79,101.92 46.44,101.8 
	45.41,101.57 45.22,101.53 44.88,101.47 44.79,101.45 44.63,101.4 44.57,101.38 44.43,101.33 43.91,101.11 43.77,101.05 
	43.32,100.9 43.21,100.88 43,100.83 42.78,100.78 42.71,100.77 41.55,100.51 41.39,100.43 41.09,100.3 41.04,100.28 40.8,100.18 
	40.56,100.03 40.48,99.97 40.43,99.93 40.33,99.85 40.23,99.76 40.12,99.66 39.69,99.26 39.31,98.91 38.94,98.52 38.5,98.08 
	38.28,97.88 38.02,97.64 37.58,97.26 37.51,97.19 37.29,97.01 36.95,96.75 36.65,96.52 36.35,96.34 36.19,96.24 36,96.11 
	35.83,96.01 35.68,95.92 35.5,95.8 35.14,95.58 35,95.49 34.73,95.31 34.47,95.16 34.25,95.01 34.08,94.91 33.85,94.76 33.61,94.61 
	33.28,94.4 32.89,94.12 32.8,94.04 32.53,93.79 32.46,93.7 32.27,93.47 32.07,93.23 31.87,93 31.16,92.07 31.07,91.95 31.01,91.87 
	30.95,91.81 30.87,91.71 30.43,91.1 29.79,90.31 29.69,90.17 29.42,89.88 29.29,89.72 29.06,89.44 28.91,89.26 28.68,88.99 
	28.53,88.84 28.47,88.77 28.44,88.74 28.2,88.49 28.14,88.43 27.36,87.63 26.77,87.02 26.09,86.32 25.49,85.69 25.13,85.33 
	24.83,85.01 23.68,83.82 23.42,83.51 22.06,82.1 21.7,81.76 21.63,81.68 19.84,79.83 19.76,79.94 18.9,82.53 18.72,83.09 
	18.57,83.57 17.76,86.07 17.76,86.09 17.26,87.64 17.25,87.68 17.24,87.71 17.24,87.73 17.22,87.79 17.22,87.8 17.07,88.27 
	17.07,88.27 16.91,88.74 16.85,88.92 16.69,89.16 16.61,89.27 16.55,89.36 16.19,89.86 15.44,90.9 15.34,91.04 15.77,91.18 
	15.83,91.21 15.9,91.24 15.99,91.27 16.16,91.34 16.21,91.35 16.3,91.39 16.41,91.43 16.5,91.48 16.66,91.54 16.8,91.6 16.95,91.66 
	17.01,91.69 17.07,91.72 17.15,91.76 17.22,91.8 17.32,91.85 17.4,91.9 17.49,91.94 17.59,92 17.83,92.14 17.87,92.19 17.91,92.23 
	18.12,92.45 18.2,92.52 18.28,92.61 18.33,92.67 18.52,92.84 18.84,93.2 18.62,93.75 18.59,93.84 18.53,93.94 18.46,94.02 
	18.27,94.24 18.17,94.36 18.08,94.49 17.76,94.9 17.61,95.09 17.54,95.22 17.05,95.84 17.05,95.84 16.95,95.96 16.74,96.22 
	16.56,96.47 16.36,96.72 16.31,96.79 16.11,97.07 16,97.21 15.78,97.09 15.54,96.96 15.52,96.95 15.38,96.87 15.3,96.82 
	15.07,96.69 14.83,96.56 14.62,96.44 14.43,96.34 14.4,96.32 14.28,96.26 14.11,96.54 13.73,97.16 13.71,97.25 13.59,97.4 
	13.25,97.8 13.05,98.04 12.94,98.17 12.89,98.24 12.36,98.87 12.22,99.03 12.16,99.11 12.01,99.3 11.94,99.37 11.9,99.43 
	11.77,99.57 11.69,99.55 10.68,99.32 10.58,99.31 10.51,99.29 9.77,99.12 9.56,99.07 9.35,99.59 9.33,99.65 9.27,99.79 9.22,99.92 
	9.21,99.95 9.17,100.05 9.11,100.19 9.05,100.34 9.35,100.42 9.56,100.48 9.49,100.63 9.35,100.94 9.22,101.23 9.09,101.52 
	8.96,101.81 8.94,101.84 9.05,101.91 9.21,102.01 9.25,102.04 9.31,102.07 9.46,102.16 9.59,102.23 9.71,102.31 9.72,102.31 
	9.86,102.39 9.87,102.36 9.95,102.41 9.99,102.43 9.92,102.56 9.93,102.56 10.05,102.64 10.17,102.72 10.18,102.72 10.33,102.82 
	10.35,102.83 10.41,102.82 10.45,102.82 10.51,102.81 10.71,102.79 10.78,102.83 10.93,102.92 10.94,102.92 10.96,102.93 
	10.98,102.95 11.06,102.99 11.05,103 10.79,103.36 10.78,103.38 10.69,103.51 10.56,103.7 10.51,103.77 10.43,103.88 10.29,104.06 
	10.16,104.25 10.08,104.37 10.03,104.43 9.98,104.5 9.9,104.62 9.88,104.65 9.83,104.73 9.77,104.8 9.73,104.86 9.64,104.99 
	9.51,105.17 9.36,105.38 9.26,105.52 9.21,105.6 9.01,105.87 9.31,106.03 9.55,106.14 9.78,106.26 10.01,106.37 10.29,106.5 
	10.07,106.58 9.92,106.63 9.84,106.66 9.49,106.74 9.89,106.92 10.44,107.15 10.47,107.16 10.62,107.22 10.93,107.35 10.57,108.34 
	10.53,108.44 10.45,108.68 10.36,108.91 10.3,109.07 10.46,109.03 10.61,109.1 11.04,109.02 11.1,108.94 11.28,109.02 11.99,109.37 
	11.72,110.39 11.46,111.36 11.39,111.64 11.38,111.68 11.22,111.66 11.09,111.65 10.98,111.64 10.96,111.64 10.88,111.63 
	10.72,111.61 10.61,111.6 10.59,111.6 10.57,111.74 10.54,111.85 10.53,111.91 10.48,112.17 10.47,112.26 10.47,112.27 10.43,112.5 
	10.4,112.72 10.36,112.94 10.37,113.16 10.36,113.38 10.35,113.59 10.35,113.72 10.36,113.81 10.37,113.81 10.37,114.03 
	10.39,114.25 10.39,114.51 10.36,114.74 10.36,114.79 10.35,114.89 10.4,114.9 10.5,114.94 11.62,115.33 13.49,115.73 14.07,115.71 
	14.07,115.65 14.19,115.63 14.22,115.63 14.34,115.62 15.07,115.58 15.09,115.49 16.73,116.07 16.7,116.16 16.62,116.36 
	16.46,116.82 16.22,117.56 16.12,117.81 16.09,117.86 15.96,118.25 15.87,118.53 15.78,118.79 15.73,118.94 15.65,119.16 
	15.64,119.18 15.63,119.17 15.62,119.19 15.51,119.45 15.51,119.46 15.41,119.72 15.34,119.9 15.26,120.11 15.18,120.29 
	15.08,120.55 15.01,120.74 14.93,120.92 14.92,120.94 14.84,121.11 14.77,121.28 14.77,121.3 14.67,121.53 14.66,121.55 
	14.64,121.58 14.89,121.74 14.9,121.74 14.95,121.77 15.08,121.85 15.17,121.9 15.43,122.07 15.48,122.09 15.57,122.16 
	15.63,122.21 15.58,122.33 15.55,122.39 15.5,122.5 15.5,122.51 15.45,122.62 15.45,122.64 15.4,122.74 15.39,122.76 15.35,122.86 
	15.34,122.88 15.33,122.9 15.32,122.94 15.31,122.96 15.12,123.38 15.29,123.58 15.27,123.59 15.18,123.76 15.15,123.82 
	15.15,123.82 15.16,123.85 15.26,123.99 15.28,124.01 15.24,124.06 15.21,124.12 15.11,124.26 15.02,124.4 14.93,124.54 
	14.87,124.63 14.83,124.7 14.57,125.08 14.49,125.21 16.47,125.52 16.54,125.63 16.59,125.72 16.86,125.79 16.97,125.82 
	17.59,126.27 17.66,126.31 17.79,126.4 17.98,126.53 18.12,126.61 18.25,126.7 18.38,126.78 18.4,126.79 18.39,126.81 18.07,127.44 
	18,127.6 17.94,127.76 17.93,127.78 17.84,128.04 17.4,129.5 18.08,129.72 18.47,129.84 18.5,129.85 18.6,129.89 18.69,129.91 
	18.77,129.94 18.91,129.99 18.97,130.01 19.11,130.05 19.21,130.08 19.25,130.1 19.67,130.23 19.67,130.24 19.67,130.24 
	19.68,130.28 19.78,130.93 19.85,131.31 19.86,131.38 19.9,131.64 19.94,131.86 19.95,131.95 19.99,132.16 20.06,132.61 
	20.08,132.71 20.11,132.89 20.16,133.26 20.33,134.29 20.37,134.53 20.38,134.6 20.4,134.69 20.41,134.73 20.43,134.89 
	20.46,135.45 20.46,135.47 20.42,135.62 20.42,135.72 20.47,135.78 20.48,135.8 20.8,136.33 21.23,136.36 21.23,136.36 
	21.24,136.43 21.25,136.46 21.3,136.73 21.36,137.06 21.39,137.14 21.41,137.22 21.41,137.24 21.43,137.32 21.44,137.38 
	21.51,137.6 21.66,137.82 21.66,137.83 21.8,138.06 21.83,138.1 21.96,138.26 22.01,138.32 22.12,138.46 22.19,138.54 22.31,138.7 
	22.28,138.79 22.44,138.85 23.02,139.03 23.31,139.08 23.36,139.08 23.51,139.11 23.85,139.16 24,139.19 24.02,139.19 24.08,139.2 
	24.29,139.23 24.49,139.26 24.55,139.26 24.68,139.29 24.69,139.29 24.93,139.32 25.09,139.34 25.15,139.35 25.2,139.36 
	25.31,139.38 25.55,139.41 25.64,139.42 25.75,139.44 25.8,139.44 25.96,139.46 26.16,139.49 26.21,139.5 26.22,139.5 26.36,139.52 
	26.43,139.52 26.47,139.53 26.79,139.57 26.81,139.58 26.96,139.6 27.11,139.61 27.12,139.62 27.26,139.63 27.33,139.64 
	27.33,139.65 27.54,139.67 27.58,139.68 27.61,139.68 27.74,139.7 27.8,139.71 27.84,139.71 28.26,139.77 28.42,139.78 
	28.43,139.78 28.58,139.79 28.6,139.79 28.69,139.79 28.72,139.79 28.78,139.79 28.97,139.79 29.01,139.79 29.12,139.79 
	29.14,139.79 29.17,139.79 29.27,139.79 29.38,139.79 29.49,139.79 29.61,139.79 29.63,139.79 30.14,139.79 30.38,139.78 
	30.52,139.78 30.65,139.78 30.78,139.77 30.85,139.77 31.07,139.77 31.09,139.77 31.23,139.77 31.25,139.77 31.39,139.76 
	31.47,139.76 31.79,139.76 32.04,139.75 32.12,139.75 32.2,139.76 32.51,139.81 32.7,139.83 32.77,139.84 32.83,139.85 
	32.94,139.86 33.04,139.87 33.25,139.89 33.43,139.91 33.58,139.94 33.67,139.95 33.92,139.99 34.32,140.04 34.44,140.05 
	34.6,140.06 34.81,140.08 34.97,140.09 35.2,140.11 35.43,140.13 35.59,140.14 35.91,140.17 36.02,140.18 36.14,140.19 36.7,140.24 
	37.96,140.45 38.26,140.5 38.34,140.51 38.44,140.52 38.5,140.53 39,140.62 39.15,140.64 39.28,140.64 39.44,140.64 39.61,140.63 
	39.7,140.63 39.78,140.63 39.9,140.63 40.1,140.63 40.16,140.63 40.28,140.63 40.35,140.63 40.42,140.63 40.47,140.63 40.53,140.63 
	40.71,140.63 40.85,140.64 40.89,140.64 40.95,140.64 40.97,140.65 41.06,140.66 41.26,140.69 41.46,140.72 41.65,140.75 
	41.67,140.76 41.73,140.77 41.85,140.78 42,140.81 42.05,140.82 42.11,140.83 42.34,140.86 42.42,140.88 42.64,140.92 42.85,140.96 
	42.92,140.97 43.03,140.99 43.15,141.01 43.23,141.03 43.26,141.03 43.36,141.05 43.51,141.08 43.59,141.1 43.77,141.14 
	43.97,141.18 44.02,141.19 44.18,141.25 44.26,141.28 44.34,141.31 44.39,141.33 44.42,141.34 44.46,141.36 44.46,141.36 
	44.52,141.38 44.59,141.42 44.67,141.45 44.74,141.49 44.78,141.51 44.86,141.54 44.87,141.55 44.89,141.56 44.94,141.58 
	44.95,141.59 45,141.61 45.02,141.62 45.08,141.65 45.12,141.67 45.16,141.69 45.23,141.73 45.24,141.73 45.27,141.75 45.37,141.82 
	45.42,141.85 45.48,141.9 45.51,141.92 45.61,141.98 45.62,142 45.67,142.03 45.71,142.07 45.81,142.15 45.86,142.19 45.94,142.26 
	45.95,142.27 45.97,142.28 46.01,142.31 46.04,142.34 46.14,142.4 46.26,142.48 46.31,142.51 46.43,142.58 46.47,142.61 
	46.65,142.72 46.69,142.74 46.73,142.77 46.79,142.8 46.87,142.84 46.91,142.87 46.94,142.88 46.96,142.89 47.01,142.92 
	47.08,142.96 47.09,142.97 47.12,142.98 47.15,143.01 47.18,143.02 47.29,143.09 47.36,143.13 47.41,143.17 47.45,143.19 
	47.48,143.21 47.83,143.45 48.05,143.46 48.15,143.52 48.19,143.55 48.29,143.61 48.37,143.66 48.45,143.71 48.53,143.76 
	48.65,143.82 48.71,143.85 48.87,143.93 48.9,143.95 48.98,143.99 49.06,144.02 49.21,144.09 49.46,144.21 49.51,144.23 
	49.58,144.26 49.64,144.29 49.7,144.31 49.76,144.34 49.83,144.36 49.99,144.41 50.07,144.43 50.18,144.46 50.33,144.49 
	50.42,144.51 50.55,144.54 50.64,144.56 50.8,144.6 50.94,144.63 51.04,144.65 51.15,144.68 51.28,144.71 51.42,144.74 
	51.57,144.78 51.68,144.8 51.73,144.81 51.83,144.83 51.93,144.86 51.97,144.87 52.11,144.9 52.15,144.91 52.28,144.92 
	52.37,144.93 52.42,144.93 52.52,144.94 52.57,144.94 52.65,144.95 52.75,144.96 52.89,144.97 53.08,144.98 53.22,144.96 
	53.39,144.93 53.5,144.92 53.68,144.89 53.8,144.87 53.93,144.84 54,144.82 54.13,144.78 54.23,144.75 54.37,144.71 54.52,144.67 
	54.61,144.64 54.77,144.6 54.9,144.56 55.07,144.47 55.16,144.47 55.64,144.44 55.73,144.43 55.83,144.43 55.91,144.42 
	55.95,144.42 56.12,144.41 56.14,144.41 56.24,144.42 56.25,144.42 56.36,144.42 56.47,144.43 56.59,144.43 56.67,144.43 
	56.81,144.44 56.89,144.44 56.99,144.44 57.13,144.45 57.27,144.45 57.37,144.46 57.51,144.46 57.63,144.47 57.79,144.47 
	57.76,142.74 57.72,141.29 57.73,141.18 57.67,139.39 57.63,138.09 57.61,135.89 57.6,135.05 57.55,133.88 57.57,132.82 
	57.6,132.53 57.69,132.17 58.31,130.22 58.8,128.77 58.96,128.3 59.21,127.56 59.56,126.55 60.48,123.72 62.17,120.83 63.3,118.86 
	65.01,115.98 65.47,115.14 "/>
<polygon id="A5" fill="#A7C8D9" stroke="#FFFFFF" stroke-linecap="square" stroke-linejoin="bevel" stroke-miterlimit="10" points="
	47.83,143.45 47.09,143.56 46.96,143.57 46.76,143.6 46.69,143.6 46.38,143.63 46.29,143.63 46.05,143.65 45.99,143.66 
	45.77,143.69 45.72,143.7 45.44,143.77 45.34,143.83 45.1,143.96 44.94,144.23 44.88,144.33 44.87,144.36 44.85,144.39 44.79,144.5 
	44.64,144.77 44.61,144.82 44.57,144.89 44.54,144.95 44.51,145 44.47,145.06 44.44,145.12 44.39,145.22 44.35,145.31 44.31,145.39 
	44.22,145.62 44.16,145.77 44.14,145.83 44.07,145.98 44.05,145.97 44,146.1 43.96,146.22 43.94,146.27 43.88,146.45 43.81,146.6 
	43.78,146.68 43.77,146.69 43.73,146.79 43.68,146.91 43.6,147.09 43.5,147.33 43.41,147.54 43.33,147.71 43.26,147.88 
	43.23,147.93 43.26,147.94 43.17,148.17 43.13,148.18 43.08,148.16 43.07,148.16 43.02,148.14 42.96,148.12 42.78,148.05 
	42.75,148.04 42.72,148.11 42.68,148.19 42.64,148.27 42.6,148.36 42.5,148.57 42.4,148.8 42.37,148.86 42.31,148.99 42.27,149.08 
	42.21,149.21 42.19,149.25 42.13,149.38 42.09,149.47 42.04,149.57 41.92,149.72 41.83,149.82 41.73,149.93 41.66,149.99 
	41.53,150.07 41.45,150.12 41.32,150.19 41.19,150.25 41.09,150.31 41.02,150.34 40.87,150.43 40.73,150.5 40.59,150.58 
	40.43,150.69 40.29,150.78 40.16,150.89 40.06,150.98 39.73,151.24 39.47,151.47 39.37,151.62 39.26,151.76 39.23,151.81 
	39.19,151.86 39.11,152 39.03,152.12 38.91,152.33 38.88,152.37 38.84,152.43 38.81,152.49 38.78,152.54 38.76,152.59 38.72,152.67 
	38.68,152.76 38.63,152.9 38.61,153 38.58,153.19 38.54,153.45 38.51,153.63 38.49,153.83 38.43,154.24 38.39,154.48 38.39,154.51 
	38.38,154.6 38.36,154.72 38.35,154.74 38.35,154.77 38.33,154.88 38.32,154.99 38.31,155.03 38.3,155.11 38.29,155.2 38.27,155.27 
	38.26,155.36 38.25,155.46 38.23,155.56 38.21,155.67 38.2,155.73 38.19,155.83 38.2,155.93 38.2,156.03 38.23,156.17 38.26,156.28 
	38.39,156.81 38.4,156.88 38.56,157.48 38.63,157.68 38.67,157.81 38.72,157.94 38.82,158.25 38.86,158.37 38.89,158.45 
	38.92,158.54 38.95,158.63 39.04,158.85 39.07,158.93 39.13,159.09 39.17,159.18 39.25,159.4 39.36,159.92 39.41,160.38 
	39.43,160.52 39.51,161.08 39.52,161.13 39.54,161.27 39.57,161.61 39.57,161.65 39.56,161.68 39.31,161.73 39.2,161.75 
	38.96,161.79 38.75,161.79 38.39,161.79 38.15,161.88 38.23,162.01 38.16,162.22 38.13,162.32 38.1,162.43 38.07,162.53 
	38.04,162.63 38.02,162.69 37.95,162.91 37.77,163.55 37.72,163.7 37.7,163.76 37.67,163.87 37.59,163.92 37.34,163.92 
	37.12,163.92 36.95,163.92 36.89,163.92 36.67,163.93 36.52,163.94 36.5,164.12 36.43,164.99 36.41,165.41 36.41,165.49 
	36.39,165.88 36.37,166.08 36.31,167.01 36.3,167.25 36.29,167.4 36.28,167.58 36.25,167.95 36.35,168.08 36.48,168.04 
	37.11,167.89 37.18,167.87 37.32,167.84 37.54,167.79 37.78,167.82 37.95,167.84 38.04,167.86 38.62,167.99 38.64,167.99 38.65,168 
	38.65,168.02 38.61,168.31 38.6,168.41 38.58,168.58 38.57,168.64 38.56,168.72 38.55,168.85 38.61,169.06 38.61,169.06 
	38.7,169.04 38.72,169.04 38.77,169.03 38.81,169.01 38.9,168.99 40.08,168.48 40.16,168.48 40.23,168.46 40.24,168.46 40.5,168.5 
	40.96,168.73 41.18,168.76 41.49,168.86 41.5,168.86 41.52,168.87 41.92,169.07 41.93,169.06 41.96,169.06 41.98,169.07 
	42.01,169.08 42.04,169.1 42.05,169.13 42.06,169.13 42.09,169.2 42.11,169.29 42.13,169.38 42.14,169.45 42.39,169.69 
	43.01,169.48 43.06,169.5 43.3,169.65 43.4,169.76 43.42,169.8 43.62,170.11 43.88,170.52 43.95,170.63 44.2,171.02 44.26,171.12 
	44.42,171.41 44.67,171.31 44.98,171.19 45.28,171.09 45.32,171.07 45.33,171.09 45.4,171.08 45.47,171.06 45.6,171.02 
	45.63,171.02 46.05,170.91 46.18,170.88 46.25,170.86 46.59,170.77 46.73,170.72 46.79,170.74 46.83,170.75 46.94,170.97 
	47.06,171.2 47.13,171.35 47.17,171.43 47.22,171.54 47.27,171.63 47.28,171.66 47.36,171.87 47.46,172.06 47.47,172.05 
	47.58,172.28 47.66,172.43 47.79,172.69 47.88,172.87 48,173.12 48.04,173.19 48.11,173.33 48.15,173.41 48.3,173.72 48.43,173.99 
	48.56,174.25 48.74,174.63 48.87,174.57 49.16,174.44 49.17,174.45 49.27,174.42 49.55,174.32 49.8,174.23 49.79,174.2 
	49.88,174.18 49.92,174.16 49.99,174.14 50.04,174.12 50.05,174.15 50.16,174.11 50.23,174.14 50.24,174.16 50.34,174.47 
	50.47,174.83 50.56,175.09 50.62,175.27 50.73,175.61 50.81,175.86 50.93,176.2 50.92,176.2 51.02,176.47 51.11,176.73 
	51.15,176.86 51.22,177.06 51.25,177.15 51.46,177.03 51.58,176.98 51.65,176.95 51.78,176.89 51.85,176.86 51.91,176.83 
	52.08,176.77 52.23,176.71 52.36,176.67 52.45,176.64 52.5,176.62 52.57,176.61 52.63,176.59 52.77,176.56 53.12,176.47 
	53.48,176.4 53.58,176.38 53.99,176.35 54.22,176.33 54.4,176.32 54.55,176.34 54.67,176.37 54.79,176.41 55.17,176.5 55.21,176.51 
	55.35,176.54 55.35,176.54 55.43,176.56 55.53,176.58 55.73,176.61 55.8,176.61 56.07,176.57 56.15,176.51 56.22,176.46 
	56.29,176.41 56.41,176.33 56.48,176.28 56.54,176.24 56.62,176.18 56.74,176.08 56.86,175.98 56.97,175.89 57.13,175.76 
	57.25,175.69 57.26,175.69 57.52,175.54 57.75,175.41 57.77,175.4 57.85,175.35 57.95,175.3 58.04,175.25 58.16,175.19 
	58.26,175.14 58.44,175.05 58.52,175 58.61,174.94 58.61,174.94 58.67,174.9 58.75,174.85 58.85,174.78 58.92,174.74 59.11,174.61 
	59.14,174.59 59.25,174.51 59.43,174.39 59.56,174.3 59.69,174.21 59.81,174.13 59.94,174.05 60.09,173.97 60.25,173.88 
	60.34,173.83 60.48,173.76 60.57,173.7 60.68,173.62 60.77,173.55 60.9,173.45 61,173.34 61.08,173.26 61.26,173.07 61.57,172.76 
	61.87,172.45 62.22,172.1 62.31,172.03 62.43,171.92 62.54,171.83 62.62,171.75 62.75,171.64 62.8,171.6 62.96,171.46 63.03,171.39 
	63.15,171.25 63.16,171.24 63.17,171.21 63.22,171.16 63.23,171.15 63.25,171.12 63.28,171.08 63.32,171.01 63.36,170.94 
	63.4,170.87 63.44,170.81 63.49,170.73 63.51,170.7 63.53,170.66 63.57,170.6 63.62,170.52 63.66,170.45 63.7,170.37 63.75,170.29 
	63.79,170.21 63.83,170.14 63.84,170.12 63.88,170.06 63.92,169.97 63.96,169.89 64.01,169.78 64.03,169.72 64.08,169.62 
	64.11,169.54 64.2,169.34 64.24,169.27 64.3,169.15 64.37,169.02 64.49,168.89 64.57,168.83 64.65,168.78 64.76,168.7 64.9,168.6 
	64.94,168.57 65.12,168.44 65.22,168.37 65.31,168.31 65.39,168.25 65.48,168.19 65.58,168.12 65.61,168.1 65.9,167.9 66.25,167.66 
	66.31,167.61 66.4,167.56 66.49,167.49 66.59,167.42 66.87,167.23 66.98,167.15 67.01,167.13 67.05,167.1 67.11,167.06 
	67.25,166.94 67.36,166.85 67.41,166.82 67.48,166.76 67.59,166.67 67.7,166.58 67.86,166.45 67.89,166.42 67.99,166.34 
	68.14,166.21 68.25,166.15 68.37,166.06 68.45,166.01 68.59,165.9 68.74,165.8 68.92,165.67 69.02,165.61 69.21,165.49 
	69.42,165.13 69.44,165.12 69.58,165.02 69.68,164.95 69.76,164.89 69.84,164.83 69.91,164.77 70.05,164.66 70.15,164.58 
	70.26,164.49 70.33,164.44 70.36,164.41 70.39,164.39 70.5,164.3 70.65,164.17 70.74,164.09 70.8,164.05 70.92,163.93 71.02,163.84 
	71.09,163.77 71.16,163.7 71.23,163.64 71.31,163.57 71.39,163.49 71.47,163.41 71.59,163.3 71.71,163.19 71.78,163.12 71.81,163.1 
	71.86,163.05 71.92,162.99 72.02,162.9 72.05,162.87 72.13,162.8 72.23,162.7 72.28,162.66 72.3,162.64 72.38,162.57 72.43,162.52 
	72.53,162.43 72.59,162.37 72.63,162.34 72.79,162.19 72.97,162.03 73.1,161.95 73.24,161.87 73.33,161.81 73.38,161.78 
	73.91,161.48 74.08,161.38 74.18,161.32 74.33,161.23 74.43,161.17 74.52,161.11 74.62,161.06 74.71,161 74.81,160.94 74.91,160.89 
	75.01,160.83 75.11,160.77 75.3,160.66 75.5,160.54 75.61,160.47 75.7,160.42 75.86,160.33 75.88,160.31 76.04,160.22 76.33,160.04 
	76.42,159.99 76.48,159.95 76.56,159.91 76.66,159.85 76.77,159.78 76.86,159.72 77.01,159.62 77.1,159.57 77.19,159.51 
	77.28,159.45 77.35,159.41 77.42,159.37 77.49,159.32 77.57,159.27 77.72,159.18 77.79,159.14 77.87,159.09 77.98,159.02 
	78.09,158.95 78.19,158.9 78.35,158.8 78.44,158.74 78.53,158.68 78.71,158.55 78.79,158.49 78.88,158.43 78.96,158.37 79.1,158.28 
	79.24,158.17 79.33,158.11 79.39,158.07 79.45,158.02 79.51,157.98 79.58,157.93 79.66,157.88 79.75,157.82 79.82,157.77 
	80.12,157.58 80.22,157.51 80.31,157.45 80.39,157.4 80.48,157.34 80.57,157.29 80.69,157.21 80.77,157.15 80.93,157.05 
	80.93,157.06 81.03,157 81.1,156.95 81.21,156.89 81.3,156.84 81.38,156.8 81.46,156.75 81.55,156.7 81.76,156.59 81.87,156.54 
	81.95,156.5 82.02,156.47 82.09,156.43 82.14,156.4 82.27,156.33 82.31,156.32 82.44,156.27 82.57,156.23 82.67,156.19 
	82.71,156.18 82.8,156.14 82.92,156.1 83.08,156.05 83.44,155.94 83.61,155.89 83.72,155.93 83.99,156.03 84.39,156.04 84.5,156.04 
	84.61,156.05 84.72,156.05 84.83,156.05 84.94,156.05 85.05,156.06 85.17,156.06 85.59,156.06 85.51,156.02 85.43,155.99 
	85.36,155.89 85.31,155.75 85.27,155.62 85.26,155.47 85.25,155.36 85.24,155.25 85.23,155.13 85.24,155.02 85.24,154.91 
	85.24,154.8 85.24,154.69 85.24,154.5 85.26,154.2 85.27,154 85.27,153.89 85.28,153.77 85.28,153.66 85.29,153.54 85.29,153.44 
	85.3,153.25 85.31,153.2 85.38,153.1 85.49,152.96 85.53,152.9 85.63,152.77 85.69,152.69 85.75,152.61 85.83,152.51 86.08,152.17 
	86.09,152.16 86.09,152.15 86.23,151.96 86.43,151.72 86.51,151.63 86.58,151.55 86.72,151.39 86.79,151.31 86.87,151.22 
	86.99,151.05 87.05,150.95 87.1,150.87 87.15,150.79 87.2,150.71 87.27,150.6 87.33,150.48 87.37,150.41 87.41,150.33 87.4,150.33 
	87.51,150.14 87.57,150.02 87.62,149.91 87.67,149.83 87.71,149.73 87.75,149.67 87.78,149.61 87.84,149.48 87.89,149.38 
	87.95,149.23 88.1,148.86 88.11,148.84 87.87,148.85 87.86,148.85 87.79,148.85 87.72,148.86 87.56,148.87 87.45,148.88 
	87.26,148.89 87.15,148.9 87.04,148.91 86.95,148.91 86.82,148.92 86.77,148.93 86.52,148.94 86.39,148.95 86.14,148.97 
	85.95,148.99 85.82,149 85.68,149.01 85.54,149.02 85.38,149.03 85.32,149.03 85.32,149.03 85.2,149.04 85.09,149.05 84.98,149.06 
	84.87,149.07 84.77,149.08 84.71,149.08 84.64,149.09 84.54,149.1 84.2,149.12 83.94,149.14 83.28,149.19 83.23,149.19 
	82.92,149.21 82.72,149.23 82.69,149.23 82.38,149.25 82.33,149.26 81.67,149.31 81.47,148.3 81.32,147.5 81.33,147.5 81.29,147.31 
	81.27,147.23 81.2,146.85 81.16,146.66 81.14,146.54 81.12,146.42 81.09,146.3 81.07,146.15 81.04,146.03 81.04,146.01 
	81.03,145.99 81.03,145.98 81.01,145.84 79.26,146.42 78.84,146.56 78.49,146.68 78.35,146.73 78.09,146.83 77.95,146.87 
	77.82,146.92 77.68,146.97 77.55,147.02 77.41,147.06 77.36,147.08 76.84,147.3 75.86,147.65 75.8,147.67 75.73,147.7 74.19,148.25 
	74,148.32 73.84,148.37 73.69,148.42 73.55,148.47 73.4,148.53 73.25,148.58 73.1,148.64 72.95,148.69 72.83,148.73 72.76,148.76 
	72.66,148.79 72.52,148.85 72.33,148.91 72.19,148.96 72.08,149 71.97,149.04 71.9,149.07 71.78,149.11 71.62,149.16 71.4,149.24 
	71.28,149.28 71.08,149.35 70.89,149.42 70.84,149.29 70.63,148.79 70.58,148.51 70.55,148.35 70.45,147.73 70.44,147.43 
	70.35,147.04 70.32,146.91 70.18,146.33 69.54,144.67 69.29,144.09 69.28,144.09 69.27,144.09 69.26,144.09 69.25,144.1 
	69.24,144.1 69.22,144.09 69.19,144.08 69.18,144.07 69.17,144.06 69.17,144.05 69.16,144.05 69.08,143.85 68.97,143.56 
	68.92,143.41 68.89,143.34 68.77,143.03 68.69,142.84 68.69,142.84 68.69,142.83 68.69,142.82 68.69,142.81 68.69,142.8 
	68.69,142.79 68.7,142.79 68.7,142.77 68.71,142.77 68.72,142.76 68.73,142.75 68.73,142.75 68.74,142.75 68.61,142.43 
	68.53,142.22 68.47,142.24 68.37,142.28 68.33,142.29 68.23,142.33 68.23,142.32 68.11,142.27 68.11,142.27 67.95,142.32 
	66.86,142.6 64.98,143.36 63.98,143.82 62.81,144.19 62.56,144.27 62.49,144.28 59.49,144.71 59.28,144.74 59.21,144.75 
	59.11,144.76 58.46,144.74 58.37,144.74 58.17,144.73 57.79,144.47 57.79,144.47 57.63,144.47 57.51,144.46 57.37,144.46 
	57.27,144.45 57.13,144.45 56.99,144.44 56.89,144.44 56.81,144.44 56.67,144.43 56.59,144.43 56.47,144.43 56.36,144.42 
	56.25,144.42 56.24,144.42 56.14,144.41 56.12,144.41 55.95,144.42 55.91,144.42 55.83,144.43 55.73,144.43 55.64,144.44 
	55.16,144.47 55.07,144.47 54.9,144.56 54.77,144.6 54.61,144.64 54.52,144.67 54.37,144.71 54.23,144.75 54.13,144.78 54,144.82 
	53.93,144.84 53.8,144.87 53.68,144.89 53.5,144.92 53.39,144.93 53.22,144.96 53.08,144.98 52.89,144.97 52.75,144.96 
	52.65,144.95 52.57,144.94 52.52,144.94 52.42,144.93 52.37,144.93 52.28,144.92 52.15,144.91 52.11,144.9 51.97,144.87 
	51.93,144.86 51.83,144.83 51.73,144.81 51.68,144.8 51.57,144.78 51.42,144.74 51.28,144.71 51.15,144.68 51.04,144.65 
	50.94,144.63 50.8,144.6 50.64,144.56 50.55,144.54 50.42,144.51 50.33,144.49 50.18,144.46 50.07,144.43 49.99,144.41 
	49.83,144.36 49.76,144.34 49.7,144.31 49.64,144.29 49.58,144.26 49.51,144.23 49.46,144.21 49.21,144.09 49.06,144.02 
	48.98,143.99 48.9,143.95 48.87,143.93 48.71,143.85 48.65,143.82 48.53,143.76 48.45,143.71 48.37,143.66 48.29,143.61 
	48.19,143.55 48.15,143.52 48.05,143.46 "/>
<polygon id="A4" fill="#A7C8D9" stroke="#FFFFFF" stroke-linecap="square" stroke-linejoin="bevel" stroke-miterlimit="10" points="
	109.12,148.84 104.25,143.46 104.14,143.34 103.81,142.93 99.62,146.01 99.62,146.02 99.61,146.03 99.6,146.04 99.59,146.05 
	99.58,146.06 99.57,146.07 99.56,146.09 99.55,146.09 99.55,146.1 99.54,146.1 99.52,146.14 99.5,146.18 99.5,146.19 99.48,146.21 
	99.48,146.22 99.47,146.24 99.47,146.25 99.46,146.27 99.46,146.27 99.46,146.28 99.46,146.29 99.45,146.29 99.44,146.35 
	99.43,146.41 99.43,146.44 99.43,146.46 99.43,146.47 99.43,146.49 99.43,146.5 99.43,146.51 99.43,146.51 99.43,146.54 
	99.43,146.57 99.44,146.59 99.44,146.6 99.44,146.61 99.45,146.63 99.45,146.64 99.45,146.66 99.46,146.67 99.46,146.68 
	99.42,146.7 99.33,146.76 99.24,146.81 99.15,146.86 99.04,146.93 98.91,147 98.74,147.11 98.59,147.2 98.54,147.23 98.34,147.35 
	98.19,147.44 98.02,147.5 97.96,147.53 97.9,147.56 97.77,147.61 97.63,147.67 97.58,147.69 97.51,147.71 97.37,147.75 
	97.25,147.78 97.12,147.81 96.99,147.85 96.87,147.88 96.74,147.92 96.61,147.95 96.48,147.98 96.34,148.02 96.28,148.04 
	96.23,148.06 95.69,148.18 95.51,148.24 95.45,148.26 95.34,148.3 95.23,148.34 95.16,148.36 95.06,148.4 94.94,148.44 
	94.87,148.46 94.72,148.51 94.64,148.53 94.49,148.57 94.36,148.59 94.23,148.61 94.11,148.63 93.98,148.66 93.84,148.68 
	93.71,148.7 93.71,148.69 93.58,148.71 93.58,148.71 93.42,148.74 93.3,148.76 93.11,148.79 92.93,148.8 92.88,148.8 92.76,148.81 
	92.64,148.81 92.51,148.81 92.38,148.82 92.22,148.82 92.15,148.83 91.96,148.83 91.73,148.84 91.65,148.84 91.59,148.84 
	91.46,148.84 91.23,148.85 91.04,148.85 90.96,148.85 90.82,148.86 90.75,148.86 90.69,148.86 90.47,148.87 90.32,148.83 
	90.15,148.81 89.73,148.74 89.61,148.72 89.39,148.69 89.28,148.67 89.15,148.65 88.11,148.84 88.1,148.86 87.95,149.23 
	87.89,149.38 87.84,149.48 87.78,149.61 87.75,149.67 87.71,149.73 87.67,149.83 87.62,149.91 87.57,150.02 87.51,150.14 
	87.4,150.33 87.41,150.33 87.37,150.41 87.33,150.48 87.27,150.6 87.2,150.71 87.15,150.79 87.1,150.87 87.05,150.95 86.99,151.05 
	86.87,151.22 86.79,151.31 86.72,151.39 86.58,151.55 86.51,151.63 86.43,151.72 86.23,151.96 86.09,152.15 86.09,152.16 
	86.08,152.17 85.83,152.51 85.75,152.61 85.69,152.69 85.63,152.77 85.53,152.9 85.49,152.96 85.38,153.1 85.31,153.2 85.3,153.25 
	85.29,153.44 85.29,153.54 85.28,153.66 85.28,153.77 85.27,153.89 85.27,154 85.26,154.2 85.24,154.5 85.24,154.69 85.24,154.8 
	85.24,154.91 85.24,155.02 85.23,155.13 85.24,155.25 85.25,155.36 85.26,155.47 85.27,155.62 85.31,155.75 85.36,155.89 
	85.43,155.99 85.51,156.02 85.59,156.06 85.69,156.22 85.7,156.41 85.71,156.5 85.71,156.59 85.72,156.72 85.72,156.84 
	85.73,156.96 85.73,156.99 85.73,157.01 85.74,157.09 85.74,157.23 85.75,157.33 85.75,157.44 85.76,157.56 85.77,157.68 
	85.78,157.8 85.78,157.87 85.79,157.95 85.79,158.1 85.8,158.18 85.8,158.26 85.81,158.36 85.82,158.5 85.82,158.6 85.83,158.7 
	85.84,158.82 85.84,158.87 85.84,158.93 85.84,159 85.85,159.06 85.85,159.13 85.86,159.2 85.86,159.29 85.87,159.37 85.87,159.45 
	85.87,159.53 85.88,159.6 85.88,159.68 85.89,159.83 85.9,159.98 85.91,160.06 85.92,160.14 85.93,160.24 85.95,160.33 
	85.97,160.47 85.99,160.61 86,160.67 86.01,160.72 86.02,160.76 86.02,160.8 86.03,160.84 86.04,160.89 86.04,160.91 86.11,161.04 
	86.15,161.11 86.2,161.21 86.27,161.34 86.37,161.53 86.44,161.66 86.48,161.74 86.56,161.9 86.61,161.99 86.72,162.21 
	86.95,162.65 87.33,162.69 87.48,162.71 87.59,162.72 87.7,162.73 87.8,162.75 87.91,162.76 88.01,162.77 88.11,162.78 
	88.23,162.79 88.33,162.8 88.44,162.81 88.54,162.83 88.65,162.84 88.77,162.85 88.87,162.86 88.95,162.87 89.01,162.88 
	89.14,162.89 89.27,162.91 89.32,162.91 89.47,162.93 89.57,162.94 89.68,162.95 89.77,162.96 89.87,162.97 89.97,162.98 
	90.06,162.99 90.16,163 90.26,163.01 90.36,163.03 90.46,163.04 90.55,163.05 90.69,163.06 90.83,163.08 90.94,163.09 91.06,163.1 
	91.21,163.12 91.22,163.12 91.42,163.14 91.69,163.17 91.78,163.18 91.88,163.19 91.98,163.2 92.11,163.22 92.22,163.23 
	92.32,163.24 92.71,163.28 92.83,163.3 92.97,163.31 93.15,163.33 93.25,163.34 93.35,163.35 93.49,163.37 93.6,163.38 93.7,163.39 
	93.84,163.41 94.03,163.43 94.12,163.44 94.37,163.47 94.45,163.48 94.54,163.49 94.62,163.5 94.94,163.53 95.24,163.56 
	95.45,163.59 95.54,163.6 95.64,163.61 95.75,163.62 95.85,163.63 95.95,163.64 96.05,163.65 96.15,163.66 96.29,163.68 
	96.39,163.69 96.49,163.7 96.59,163.71 96.69,163.72 96.79,163.73 96.89,163.74 97,163.76 97.13,163.77 97.3,163.79 97.31,163.95 
	97.33,164.1 97.35,164.21 97.37,164.34 97.38,164.46 97.4,164.59 97.42,164.72 97.44,164.83 97.46,165 97.48,165.15 97.51,165.31 
	97.54,165.48 97.56,165.68 97.59,165.86 97.6,165.89 97.65,166.04 97.71,166.14 97.79,166.27 97.88,166.42 97.99,166.6 
	98.04,166.69 98.14,166.85 98.2,166.94 98.26,167.06 98.31,167.17 98.37,167.28 98.41,167.38 98.46,167.48 98.51,167.58 
	98.58,167.73 98.72,168.01 98.8,168.19 98.86,168.3 98.88,168.4 98.94,168.65 98.98,168.82 99.06,169.13 99.13,169.43 99.26,169.66 
	99.26,169.81 99.25,169.96 99.25,170.05 99.23,170.47 99.22,170.59 99.22,170.64 99.22,170.79 99.21,170.84 99.21,170.96 
	99.2,171.12 99.19,171.28 99.18,171.46 99.17,171.68 99.17,171.87 99.16,172.07 99.15,172.22 99.15,172.32 99.14,172.42 
	99.15,172.63 99.17,172.9 99.03,173.3 99.03,173.66 99.03,173.76 99.03,173.86 99.03,174 99.03,174.16 99.03,174.26 99.03,174.38 
	99.03,174.56 99.03,174.72 99.03,174.8 99.02,174.91 99.02,175.01 99.02,175.15 99.01,175.28 98.93,175.64 98.91,175.72 
	98.85,175.94 98.82,176.09 98.79,176.2 98.74,176.42 98.7,176.56 98.67,176.69 98.65,176.8 98.63,176.87 98.58,177.07 98.54,177.22 
	98.49,177.45 98.48,177.48 98.48,177.59 98.47,177.74 98.46,178.07 98.44,178.41 98.43,178.6 98.41,178.85 98.41,178.89 
	98.4,178.96 98.4,179.05 98.39,179.1 98.38,179.26 98.37,179.43 98.36,179.59 98.35,179.69 98.34,179.81 98.33,179.91 98.32,180.01 
	98.3,180.35 98.3,180.47 98.29,180.58 98.3,180.75 98.32,180.85 98.34,180.96 98.36,181.09 98.37,181.17 98.39,181.34 98.41,181.44 
	98.42,181.55 98.44,181.65 98.45,181.76 98.48,181.95 98.54,182.31 98.59,182.57 98.61,182.66 98.65,182.82 98.68,182.91 
	98.7,182.99 98.72,183.08 98.74,183.16 98.77,183.25 98.79,183.33 98.81,183.42 98.85,183.58 98.88,183.67 98.9,183.74 
	98.92,183.82 98.94,183.91 98.96,183.98 98.98,184.05 99,184.12 99.02,184.21 99.04,184.29 99.06,184.38 99.08,184.45 99.1,184.52 
	99.12,184.59 99.14,184.68 99.17,184.77 99.18,184.83 99.21,184.91 99.25,185.07 99.27,185.15 99.29,185.24 99.32,185.32 
	99.34,185.41 99.36,185.49 99.39,185.58 99.41,185.66 99.43,185.74 99.45,185.83 99.48,185.91 99.5,186 99.53,186.11 99.59,186.34 
	99.61,186.47 99.63,186.57 99.65,186.72 99.68,186.85 99.69,186.96 99.72,187.09 99.74,187.2 99.76,187.3 99.78,187.44 
	99.82,187.65 99.83,187.74 99.86,187.9 99.95,188.39 99.97,188.5 99.98,188.57 100.14,188.54 100.11,188.39 100.36,188.45 
	100.52,188.5 100.53,188.5 100.75,188.56 100.96,188.62 101.02,188.64 101.11,188.66 101.22,188.69 101.31,188.72 101.46,188.76 
	101.6,188.8 101.67,188.82 101.77,188.85 101.85,188.87 101.93,188.89 102.1,188.94 102.23,188.98 102.36,189.01 102.48,189.05 
	102.58,189.08 102.69,189.11 102.79,189.13 102.89,189.16 103.01,189.19 103.07,189.21 103.27,189.27 103.27,189.27 103.37,189.3 
	103.49,189.33 103.76,189.4 103.84,189.43 104.06,189.48 104.2,189.52 104.34,189.56 104.49,189.6 104.86,189.71 105.28,189.82 
	105.38,189.85 105.49,189.88 105.69,189.94 105.78,189.96 105.91,190 106,190.02 106.08,190.05 106.17,190.07 106.26,190.1 
	106.31,190.1 106.37,190.12 106.66,190.2 106.75,190.23 107.01,190.3 107.14,190.34 107.32,190.39 107.37,190.4 107.4,190.41 
	107.41,190.41 107.52,190.43 107.59,190.44 107.68,190.46 107.79,190.47 107.89,190.48 107.99,190.49 108.09,190.49 108.2,190.5 
	108.21,190.5 108.35,190.49 108.43,190.49 108.52,190.48 108.6,190.47 108.65,190.47 108.86,190.44 109.01,190.4 109.17,190.36 
	109.36,190.31 109.47,190.27 109.49,190.27 109.58,190.23 109.63,190.21 109.79,190.14 109.93,190.07 110.02,190.01 110.12,189.95 
	110.22,189.89 110.4,189.77 110.49,189.71 110.61,189.63 110.65,189.6 110.72,189.56 111.45,189.06 111.63,188.93 111.95,188.71 
	112.51,188.31 112.52,188.31 113.07,187.94 113.2,187.85 113.26,187.81 113.31,187.77 113.35,187.74 113.45,187.68 113.46,187.67 
	113.49,187.65 113.59,187.58 113.64,187.55 113.64,187.55 113.68,187.52 113.72,187.49 113.85,187.4 113.85,187.4 113.96,187.32 
	114.15,187.19 114.82,186.74 114.97,186.63 115.15,186.51 115.56,186.22 115.7,186.13 115.88,186 116.67,185.46 117.07,185.19 
	117.19,185.11 117.39,184.97 118.03,184.53 118.04,184.52 118.31,184.34 118.72,184.05 118.91,183.93 119.03,183.85 119.12,183.78 
	119.23,183.71 119.34,183.63 119.45,183.56 119.56,183.48 119.67,183.41 119.7,183.39 119.79,183.32 119.88,183.26 119.89,183.25 
	119.97,183.19 119.99,183.18 120.1,183.11 120.16,183.06 120.23,183.02 120.3,182.98 120.38,182.92 120.58,182.79 120.85,182.59 
	121.02,182.48 121.21,182.35 121.35,182.25 121.4,182.22 121.83,181.93 121.86,181.9 122.07,181.76 122.15,181.71 122.72,181.31 
	122.87,181.21 123.39,180.85 123.52,180.76 123.62,180.7 123.71,180.64 123.8,180.57 123.9,180.5 124.05,180.4 124.2,180.29 
	124.3,180.23 124.39,180.17 124.48,180.1 124.58,180.04 124.71,179.94 125.11,179.67 125.53,179.39 125.54,179.38 125.61,179.33 
	125.75,179.24 126,179.07 126.27,178.89 126.8,178.52 126.8,178.51 127.45,178.06 128.15,177.59 128.28,177.5 128.34,177.46 
	128.58,177.3 129,177.01 129,177.01 129.16,176.9 129.16,176.9 129.16,176.9 129.18,176.89 129.19,176.88 129.31,176.79 
	129.32,176.79 129.44,176.7 129.47,176.69 129.47,176.69 129.54,176.63 129.57,176.62 129.57,176.61 129.65,176.56 129.79,176.46 
	135.06,172.81 135.11,172.77 125.81,162.62 117.25,155.96 117.14,155.87 115.35,154.41 115.02,154.14 110.76,150.66 "/>
<polygon id="A3" fill="#A7C8D9" stroke="#FFFFFF" stroke-linecap="square" stroke-linejoin="bevel" stroke-miterlimit="10" points="
	79.26,146.42 79.26,146.42 81.01,145.84 81.03,145.98 81.03,145.99 81.04,146.01 81.04,146.03 81.07,146.15 81.09,146.3 
	81.12,146.42 81.14,146.54 81.16,146.66 81.2,146.85 81.27,147.23 81.29,147.31 81.33,147.5 81.32,147.5 81.47,148.3 81.67,149.31 
	82.33,149.26 82.38,149.25 82.69,149.23 82.72,149.23 82.92,149.21 83.23,149.19 83.28,149.19 83.94,149.14 84.2,149.12 
	84.54,149.1 84.64,149.09 84.71,149.08 84.77,149.08 84.87,149.07 84.98,149.06 85.09,149.05 85.2,149.04 85.32,149.03 
	85.32,149.03 85.38,149.03 85.54,149.02 85.68,149.01 85.82,149 85.95,148.99 86.14,148.97 86.39,148.95 86.52,148.94 86.77,148.93 
	86.82,148.92 86.95,148.91 87.04,148.91 87.15,148.9 87.26,148.89 87.45,148.88 87.56,148.87 87.72,148.86 87.79,148.85 
	87.86,148.85 87.87,148.85 88.11,148.84 89.15,148.65 89.28,148.67 89.39,148.69 89.61,148.72 89.73,148.74 90.15,148.81 
	90.32,148.83 90.47,148.87 90.69,148.86 90.75,148.86 90.82,148.86 90.96,148.85 91.04,148.85 91.23,148.85 91.46,148.84 
	91.59,148.84 91.65,148.84 91.73,148.84 91.96,148.83 92.15,148.83 92.22,148.82 92.38,148.82 92.51,148.81 92.64,148.81 
	92.76,148.81 92.88,148.8 92.93,148.8 93.11,148.79 93.3,148.76 93.42,148.74 93.58,148.71 93.58,148.71 93.71,148.69 93.71,148.7 
	93.84,148.68 93.98,148.66 94.11,148.63 94.23,148.61 94.36,148.59 94.49,148.57 94.64,148.53 94.72,148.51 94.87,148.46 
	94.94,148.44 95.06,148.4 95.16,148.36 95.23,148.34 95.34,148.3 95.45,148.26 95.51,148.24 95.69,148.18 96.23,148.06 
	96.28,148.04 96.34,148.02 96.48,147.98 96.61,147.95 96.74,147.92 96.87,147.88 96.99,147.85 97.12,147.81 97.25,147.78 
	97.37,147.75 97.51,147.71 97.58,147.69 97.63,147.67 97.77,147.61 97.9,147.56 97.96,147.53 98.02,147.5 98.19,147.44 
	98.34,147.35 98.54,147.23 98.59,147.2 98.74,147.11 98.91,147 99.04,146.93 99.15,146.86 99.24,146.81 99.33,146.76 99.42,146.7 
	99.46,146.68 99.46,146.67 99.45,146.66 99.45,146.64 99.45,146.63 99.44,146.61 99.44,146.6 99.44,146.59 99.43,146.57 
	99.43,146.54 99.43,146.51 99.43,146.51 99.43,146.5 99.43,146.49 99.43,146.47 99.43,146.46 99.43,146.44 99.43,146.41 
	99.44,146.35 99.45,146.29 99.46,146.29 99.46,146.28 99.46,146.27 99.46,146.27 99.47,146.25 99.47,146.24 99.48,146.22 
	99.48,146.21 99.5,146.19 99.5,146.18 99.52,146.14 99.54,146.1 99.55,146.1 99.55,146.09 99.56,146.09 99.57,146.07 99.58,146.06 
	99.59,146.05 99.6,146.04 99.61,146.03 99.62,146.02 99.62,146.01 103.81,142.93 102.15,140.87 100.13,138.33 99.03,133.32 
	98.51,129.2 98.44,128.68 99.03,126.36 94.18,126.65 93.77,126.69 93.58,126.7 93.35,126.73 93.19,126.74 93.03,126.75 
	92.86,126.77 92.67,126.79 92.48,126.8 92.3,126.82 92.09,126.84 91.84,126.86 91.72,126.87 91.48,126.89 91.26,126.91 
	91.13,126.92 90.95,126.94 90.72,126.96 90.53,126.97 90.31,126.99 90.14,127.01 89.98,127.02 89.81,127.04 89.65,127.05 
	89.45,127.07 89.26,127.09 89.38,128.53 88.95,128.63 88.94,128.63 88.93,128.64 88.92,128.64 88.91,128.64 88.9,128.64 
	88.89,128.65 88.88,128.65 88.88,128.65 88.87,128.66 88.85,128.66 88.84,128.66 88.83,128.67 88.82,128.67 88.81,128.67 
	88.79,128.68 88.78,128.68 88.77,128.69 88.76,128.69 88.75,128.69 88.75,128.69 88.74,128.7 88.74,128.7 88.73,128.7 88.72,128.7 
	88.72,128.7 88.71,128.71 88.71,128.71 88.7,128.71 88.69,128.72 88.68,128.72 88.68,128.72 88.67,128.73 88.66,128.73 
	88.65,128.73 88.65,128.74 88.64,128.74 88.63,128.74 88.63,128.75 88.62,128.75 88.61,128.75 88.61,128.76 88.6,128.76 
	88.59,128.76 88.59,128.77 88.58,128.77 88.58,128.77 88.57,128.78 88.56,128.78 88.55,128.78 88.55,128.79 88.54,128.79 
	88.53,128.8 88.53,128.8 88.52,128.8 88.35,128.92 88.33,128.93 88.32,128.94 88.31,128.95 88.29,128.96 88.28,128.97 88.27,128.98 
	88.25,128.99 88.24,129.01 88.23,129.02 88.22,129.02 88.22,129.02 88.21,129.03 88.2,129.04 88.2,129.04 88.19,129.05 
	88.18,129.06 88.17,129.07 88.16,129.08 88.15,129.09 88.14,129.11 88.13,129.12 88.12,129.13 88.11,129.14 88.1,129.15 
	88.1,129.15 88.09,129.16 88.09,129.16 88.09,129.17 88.08,129.17 88.08,129.18 88.07,129.18 88.07,129.19 88.06,129.2 88.06,129.2 
	88.05,129.21 88.05,129.21 88.05,129.22 88.04,129.23 88.04,129.23 88.03,129.24 88.02,129.26 88.01,129.27 88,129.28 87.99,129.29 
	87.99,129.3 87.98,129.32 87.97,129.33 87.96,129.34 87.95,129.35 87.87,129.52 87.86,129.53 87.86,129.55 87.85,129.56 
	87.84,129.57 87.84,129.59 87.83,129.6 87.83,129.62 87.82,129.63 87.82,129.64 87.81,129.65 87.81,129.66 87.81,129.67 
	87.8,129.67 87.8,129.68 87.8,129.69 87.8,129.7 87.8,129.7 87.79,129.71 87.79,129.73 87.79,129.73 87.78,129.74 87.78,129.74 
	87.78,129.76 87.77,129.78 87.77,129.79 87.77,129.81 87.76,129.82 87.76,129.84 87.76,129.85 87.75,129.87 87.75,129.88 
	87.75,129.9 87.75,129.91 87.74,129.92 87.74,129.93 87.74,129.94 87.74,129.95 87.74,129.96 87.74,129.97 87.73,129.98 
	87.73,129.99 87.73,130 87.73,130.01 87.73,130.02 87.73,130.04 87.73,130.05 87.73,130.06 87.72,130.07 87.72,130.09 87.72,130.1 
	87.76,130.54 87.57,130.56 87.42,130.57 87.26,130.58 87.09,130.6 86.93,130.61 86.67,130.64 86.43,130.58 86.15,130.6 
	85.93,130.61 85.93,130.62 85.93,130.63 85.93,130.64 85.92,130.65 85.92,130.66 85.92,130.67 85.92,130.68 85.92,130.69 
	85.91,130.7 85.91,130.71 85.91,130.72 85.91,130.73 85.9,130.74 85.9,130.75 85.9,130.76 85.89,130.77 85.89,130.78 85.88,130.79 
	85.58,131.07 85.56,131.07 85.55,131.08 85.53,131.08 85.52,131.08 85.5,131.09 85.49,131.09 85.47,131.09 85.46,131.09 
	85.44,131.09 85.43,131.1 85.42,131.1 85.41,131.1 85.4,131.1 85.39,131.1 85.38,131.1 85.37,131.09 85.36,131.09 85.36,131.09 
	84.93,130.83 84.92,130.83 84.92,130.82 84.91,130.81 84.91,130.81 84.9,130.8 84.9,130.79 84.9,130.79 84.89,130.78 84.89,130.77 
	84.88,130.77 84.88,130.76 84.88,130.76 84.87,130.75 84.87,130.74 84.87,130.74 84.86,130.73 84.86,130.72 84.86,130.72 
	84.85,130.71 84.84,130.7 84.84,130.69 84.84,130.68 84.84,130.67 84.83,130.67 84.83,130.66 84.83,130.65 84.82,130.64 
	84.82,130.63 84.82,130.62 84.81,130.61 84.81,130.6 84.81,130.59 84.81,130.58 84.8,130.57 84.8,130.56 84.8,130.55 84.8,130.54 
	84.8,130.53 84.8,130.52 84.79,130.51 84.79,130.5 84.79,130.49 84.79,130.48 84.79,130.47 84.79,130.47 84.79,130.46 84.79,130.45 
	84.79,130.45 84.79,130.44 84.79,130.43 84.79,130.43 84.79,130.42 84.79,130.41 84.79,130.41 84.79,130.4 84.79,130.39 
	84.8,130.39 84.8,130.38 84.8,130.37 84.8,130.37 84.8,130.36 84.8,130.35 84.8,130.35 84.81,130.34 84.81,130.33 84.81,130.32 
	84.81,130.32 84.81,130.31 84.82,130.3 84.82,130.3 84.82,130.29 84.83,130.28 84.83,130.27 84.83,130.26 84.84,130.26 
	84.84,130.25 84.84,130.24 84.85,130.23 84.85,130.22 84.86,130.22 84.86,130.21 84.86,130.21 84.86,130.2 84.87,130.2 
	84.87,130.19 84.87,130.18 84.88,130.18 84.88,130.17 84.88,130.17 84.73,130 84.61,129.88 84.55,129.81 84.42,129.67 84.33,129.56 
	84.24,129.47 84.17,129.39 84.12,129.33 84.02,129.22 83.94,129.13 83.88,129.07 83.76,128.93 83.62,128.78 83.45,128.59 
	83.28,128.41 83.21,128.33 83.14,128.25 82.96,128.05 82.12,127.13 82.09,127.1 82.03,127.03 81.96,126.95 81.9,126.89 
	81.84,126.82 81.78,126.75 81.72,126.68 81.67,126.63 81.57,126.51 81.48,126.42 81.4,126.34 81.32,126.25 81.2,126.11 
	81.12,126.02 81.04,125.94 80.97,125.87 80.9,125.78 80.8,125.68 80.71,125.57 80.6,125.46 80.53,125.37 80.43,125.27 80.36,125.19 
	80.25,125.07 80.17,124.98 80.08,124.88 80.03,124.82 79.97,124.77 79.82,124.6 79.75,124.52 79.67,124.43 79.6,124.35 
	79.52,124.27 79.45,124.18 79.34,124.07 79.3,124.03 79.26,123.98 79.1,123.8 79.04,123.74 79.03,123.72 78.95,123.67 78.74,123.53 
	78.66,123.47 78.58,123.42 78.51,123.36 78.41,123.29 77.77,122.84 77.61,122.74 77.59,122.72 77.6,122.71 77.52,122.66 
	77.51,122.67 77.41,122.59 77.32,122.53 77.23,122.47 77.09,122.37 76.94,122.27 76.85,122.2 76.76,122.14 76.68,122.08 
	76.55,121.98 76.45,121.91 76.36,121.85 76.27,121.78 76.15,121.7 76.06,121.64 75.97,121.59 75.88,121.53 75.8,121.48 
	75.69,121.42 75.65,121.39 75.59,121.35 75.51,121.3 75.43,121.26 75.35,121.21 75.27,121.16 75.16,121.09 75.02,121 74.89,120.92 
	74.75,120.84 74.54,120.71 74.41,120.63 74.41,120.62 74.41,120.62 74.41,120.62 74.35,120.58 74.35,120.58 74.34,120.58 
	74.25,120.53 74.11,120.44 74.02,120.38 74.02,120.38 74.02,120.38 74.01,120.38 74.01,120.38 73.95,120.34 73.95,120.34 
	73.9,120.31 73.9,120.31 73.81,120.25 73.7,120.19 73.59,120.11 73.55,120.09 73.34,119.96 73.17,119.85 73,119.74 72.91,119.69 
	72.81,119.63 72.73,119.58 72.62,119.51 72.6,119.49 72.52,119.45 72.42,119.38 72.33,119.32 72.22,119.26 72.12,119.2 
	72.02,119.13 71.84,119.02 71.78,118.98 71.55,118.84 71.41,118.76 71.27,118.68 71.16,118.61 71.05,118.55 70.83,118.42 
	70.72,118.35 70.57,118.26 69.78,117.76 69.66,117.64 69.61,117.59 69.53,117.51 69.47,117.45 69.34,117.32 69.2,117.17 
	69.14,117.12 69.01,116.98 68.89,116.86 68.82,116.79 68.73,116.7 68.66,116.63 68.59,116.56 68.54,116.51 68.47,116.44 
	68.4,116.36 68.31,116.28 68.22,116.18 68.14,116.1 68.05,116.02 67.97,115.93 67.89,115.85 67.81,115.77 67.73,115.69 
	67.56,115.51 67.48,115.43 67.41,115.37 67.32,115.28 67.24,115.2 67.17,115.12 67.05,115 66.79,114.74 66.68,114.63 66.58,114.52 
	66.43,114.38 66.37,114.31 66.02,113.98 65.77,114.41 65.68,114.55 65.42,115.01 65.37,115.09 65.47,115.14 65.01,115.98 
	63.3,118.86 62.17,120.83 60.48,123.72 59.56,126.55 59.21,127.56 58.96,128.3 58.8,128.77 58.31,130.22 57.69,132.17 57.6,132.53 
	57.57,132.82 57.55,133.88 57.6,135.05 57.61,135.89 57.63,138.09 57.67,139.39 57.73,141.18 57.72,141.29 57.76,142.74 
	57.79,144.47 58.17,144.73 58.37,144.74 58.46,144.74 59.11,144.76 59.21,144.75 59.28,144.74 59.49,144.71 62.49,144.28 
	62.56,144.27 62.81,144.19 63.98,143.82 64.98,143.36 66.86,142.6 67.95,142.32 68.11,142.27 68.11,142.27 68.23,142.32 
	68.23,142.33 68.33,142.29 68.37,142.28 68.47,142.24 68.53,142.22 68.61,142.43 68.74,142.75 68.73,142.75 68.73,142.75 
	68.72,142.76 68.71,142.77 68.7,142.77 68.7,142.79 68.69,142.79 68.69,142.8 68.69,142.81 68.69,142.82 68.69,142.83 68.69,142.84 
	68.69,142.84 68.77,143.03 68.89,143.34 68.92,143.41 68.97,143.56 69.08,143.85 69.16,144.05 69.17,144.05 69.17,144.06 
	69.18,144.07 69.19,144.08 69.22,144.09 69.24,144.1 69.25,144.1 69.26,144.09 69.27,144.09 69.28,144.09 69.29,144.09 
	69.54,144.67 70.18,146.33 70.32,146.91 70.35,147.04 70.44,147.43 70.45,147.73 70.55,148.35 70.58,148.51 70.63,148.79 
	70.84,149.29 70.89,149.42 71.08,149.35 71.28,149.28 71.4,149.24 71.62,149.16 71.78,149.11 71.9,149.07 71.97,149.04 72.08,149 
	72.19,148.96 72.33,148.91 72.52,148.85 72.66,148.79 72.76,148.76 72.83,148.73 72.95,148.69 73.1,148.64 73.25,148.58 
	73.4,148.53 73.55,148.47 73.69,148.42 73.84,148.37 74,148.32 74.19,148.25 75.73,147.7 75.8,147.67 75.86,147.65 76.84,147.3 
	77.36,147.08 77.41,147.06 77.55,147.02 77.68,146.97 77.82,146.92 77.95,146.87 78.09,146.83 78.35,146.73 78.49,146.68 
	78.84,146.56 "/>
<polygon id="A2" fill="#A7C8D9" stroke="#FFFFFF" stroke-linecap="square" stroke-linejoin="bevel" stroke-miterlimit="10" points="
	83.72,155.93 83.61,155.89 83.44,155.94 83.08,156.05 82.92,156.1 82.8,156.14 82.71,156.18 82.67,156.19 82.57,156.23 
	82.44,156.27 82.31,156.32 82.27,156.33 82.14,156.4 82.09,156.43 82.02,156.47 81.95,156.5 81.87,156.54 81.76,156.59 81.55,156.7 
	81.46,156.75 81.38,156.8 81.3,156.84 81.21,156.89 81.1,156.95 81.03,157 80.93,157.06 80.93,157.05 80.77,157.15 80.69,157.21 
	80.57,157.29 80.48,157.34 80.39,157.4 80.31,157.45 80.22,157.51 80.12,157.58 79.82,157.77 79.75,157.82 79.66,157.88 
	79.58,157.93 79.51,157.98 79.45,158.02 79.39,158.07 79.33,158.11 79.24,158.17 79.1,158.28 78.96,158.37 78.88,158.43 
	78.79,158.49 78.71,158.55 78.53,158.68 78.44,158.74 78.35,158.8 78.19,158.9 78.09,158.95 77.98,159.02 77.87,159.09 
	77.79,159.14 77.72,159.18 77.57,159.27 77.49,159.32 77.42,159.37 77.35,159.41 77.28,159.45 77.19,159.51 77.1,159.57 
	77.01,159.62 76.86,159.72 76.77,159.78 76.66,159.85 76.56,159.91 76.48,159.95 76.42,159.99 76.33,160.04 76.04,160.22 
	75.88,160.31 75.86,160.33 75.7,160.42 75.61,160.47 75.5,160.54 75.3,160.66 75.11,160.77 75.01,160.83 74.91,160.89 74.81,160.94 
	74.71,161 74.62,161.06 74.52,161.11 74.43,161.17 74.33,161.23 74.18,161.32 74.08,161.38 73.91,161.48 73.38,161.78 73.33,161.81 
	73.24,161.87 73.1,161.95 72.97,162.03 72.79,162.19 72.63,162.34 72.59,162.37 72.53,162.43 72.43,162.52 72.38,162.57 
	72.3,162.64 72.28,162.66 72.23,162.7 72.13,162.8 72.05,162.87 72.02,162.9 71.92,162.99 71.86,163.05 71.81,163.1 71.78,163.12 
	71.71,163.19 71.59,163.3 71.47,163.41 71.39,163.49 71.31,163.57 71.23,163.64 71.16,163.7 71.09,163.77 71.02,163.84 
	70.92,163.93 70.8,164.05 70.74,164.09 70.65,164.17 70.5,164.3 70.39,164.39 70.36,164.41 70.33,164.44 70.26,164.49 70.15,164.58 
	70.05,164.66 69.91,164.77 69.84,164.83 69.76,164.89 69.68,164.95 69.58,165.02 69.44,165.12 69.42,165.13 69.21,165.49 
	69.41,165.7 69.5,165.78 69.55,165.84 69.68,165.96 69.81,166.09 69.88,166.16 70.01,166.29 70.16,166.42 70.21,166.48 
	70.28,166.55 70.38,166.65 70.48,166.75 70.61,166.88 70.64,166.91 70.73,167 70.8,167.06 70.88,167.15 70.96,167.22 71.03,167.29 
	71.15,167.4 71.26,167.52 71.38,167.63 71.5,167.75 71.61,167.85 71.71,167.95 71.76,168 71.86,168.1 71.93,168.16 72.05,168.28 
	72.17,168.4 72.29,168.51 72.44,168.67 72.5,168.72 72.68,168.9 72.86,169.08 72.95,169.16 73.15,169.37 73.28,169.48 73.34,169.54 
	73.47,169.68 73.62,169.82 73.72,169.92 73.84,170.04 74.02,170.21 74.04,170.24 74.1,170.29 74.29,170.48 74.35,170.54 
	74.41,170.6 74.55,170.73 74.63,170.82 74.71,170.89 74.84,171.01 75.01,171.18 75.06,171.23 75.39,171.55 75.61,171.77 
	75.74,171.9 75.88,172.03 75.95,172.1 76.02,172.17 76.19,172.34 76.3,172.45 76.41,172.56 76.53,172.67 76.64,172.77 76.73,172.87 
	77,173.14 77.05,173.19 77.25,173.38 77.45,173.57 77.48,173.6 77.54,173.67 77.65,173.78 77.76,173.88 77.95,174.06 78.08,174.2 
	78.21,174.32 78.34,174.45 78.46,174.56 78.56,174.67 78.67,174.77 78.77,174.87 78.95,175.05 79.01,175.1 79.04,175.14 
	79.08,175.17 79.13,175.22 79.24,175.33 79.35,175.45 79.47,175.56 79.59,175.67 79.7,175.79 79.81,175.89 79.91,175.99 
	80.02,176.09 80.09,176.17 80.17,176.24 80.24,176.31 80.33,176.4 80.42,176.49 80.48,176.54 80.55,176.61 80.63,176.69 
	80.79,176.85 81.05,177.11 81.1,177.16 81.2,177.25 81.26,177.31 81.32,177.37 81.44,177.48 81.53,177.58 81.65,177.69 
	81.78,177.82 81.92,177.95 82,178.04 82.18,178.21 82.28,178.31 82.36,178.38 82.45,178.47 82.56,178.58 82.66,178.68 82.73,178.75 
	82.82,178.83 82.94,178.95 83.03,179.04 83.14,179.15 83.21,179.22 83.27,179.28 83.44,179.44 83.54,179.54 83.56,179.56 
	83.64,179.64 83.67,179.67 83.7,179.7 83.8,179.79 83.89,179.88 84,179.99 84.08,180.07 84.15,180.14 84.21,180.19 84.26,180.25 
	84.31,180.3 84.41,180.39 84.47,180.45 84.54,180.52 84.61,180.59 84.84,180.82 85.31,181.27 85.61,181.56 85.71,181.66 
	85.91,181.84 85.93,181.89 85.97,181.98 86.01,182.08 86.05,182.16 86.09,182.25 86.15,182.39 86.16,182.42 86.22,182.53 
	86.24,182.58 86.3,182.72 86.33,182.79 86.37,182.86 86.4,182.93 86.44,183.02 86.48,183.12 86.53,183.22 86.59,183.36 
	86.65,183.49 86.72,183.65 86.77,183.77 86.81,183.85 86.83,183.89 86.92,184.09 86.92,184.09 86.95,184.16 87.01,184.35 
	87.02,184.41 87.07,184.56 87.09,184.65 87.12,184.74 87.15,184.88 87.18,185.01 87.18,185.02 87.21,185.2 87.25,185.41 
	87.25,185.42 87.26,185.45 87.26,185.5 87.29,185.65 87.3,185.82 87.35,186.24 87.37,186.39 87.38,186.53 87.39,186.63 87.4,186.73 
	87.41,186.84 87.43,187.02 87.46,187.28 87.49,187.47 87.53,187.7 87.54,187.8 87.54,187.8 87.56,187.87 87.58,187.96 87.62,188.14 
	87.64,188.25 87.65,188.32 87.69,188.49 87.89,188.88 88.04,188.86 88.31,188.81 88.21,189.19 88.19,189.28 88.17,189.38 
	88.15,189.47 88.11,189.69 88.02,190.14 87.96,190.4 87.94,190.49 87.9,190.71 87.89,190.73 87.89,190.73 87.88,190.79 
	87.87,190.87 87.86,190.92 87.85,190.98 87.83,191.04 87.77,191.33 87.77,191.37 87.75,191.53 87.73,191.72 87.73,191.77 
	87.72,191.83 87.71,191.96 87.7,192.07 87.7,192.12 87.69,192.16 87.68,192.23 87.68,192.27 87.8,192.33 87.92,192.23 88.07,192.11 
	88.24,191.98 88.33,191.95 88.37,191.95 88.45,191.93 88.46,191.93 88.56,191.93 88.67,191.92 88.78,191.89 88.84,191.87 
	88.93,191.84 89.02,191.81 89.11,191.82 89.22,191.83 89.29,191.84 89.34,191.84 89.4,191.84 89.54,191.83 89.57,191.82 
	89.78,191.75 89.87,191.75 89.95,191.77 90.14,191.85 90.2,191.86 90.27,191.86 90.36,191.85 90.51,191.8 90.55,191.78 90.7,191.73 
	90.76,191.71 90.85,191.74 90.86,191.75 91.03,191.78 91.05,191.79 91.19,191.78 91.21,191.77 91.42,191.65 91.52,191.59 
	91.61,191.54 91.65,191.52 91.71,191.49 91.73,191.48 91.74,191.48 91.86,191.44 91.88,191.43 92.12,191.32 92.21,191.28 
	92.27,191.25 92.41,191.17 92.47,191.14 92.5,191.13 92.56,191.1 92.62,191.06 92.64,191.05 92.67,191.04 92.76,191 92.79,190.98 
	92.89,190.94 93.03,190.87 93.11,190.85 93.13,190.85 93.18,190.83 93.24,190.8 93.29,190.77 93.39,190.72 93.41,190.7 
	93.45,190.69 93.46,190.68 93.54,190.65 93.59,190.63 93.62,190.62 93.64,190.61 93.73,190.58 93.75,190.57 93.83,190.54 
	93.84,190.53 93.97,190.49 93.97,190.49 94.05,190.47 94.09,190.45 94.13,190.43 94.16,190.42 94.17,190.42 94.2,190.41 
	94.24,190.39 94.33,190.35 94.35,190.34 94.47,190.28 94.52,190.26 94.59,190.22 94.62,190.21 94.69,190.18 94.71,190.17 
	94.83,190.12 94.87,190.11 94.94,190.08 94.95,190.07 95.06,190.02 95.09,190.01 95.19,189.95 95.2,189.94 95.21,189.93 
	95.23,189.93 95.36,189.87 95.55,189.8 95.67,189.75 95.94,189.65 95.99,189.63 96.12,189.58 96.29,189.51 96.39,189.81 
	96.41,189.83 96.42,189.84 96.43,189.85 96.47,189.86 96.53,189.84 96.55,189.83 96.69,189.79 96.8,189.76 96.84,189.75 
	96.96,189.72 97.13,189.68 97.19,189.67 97.27,189.65 97.35,189.7 97.4,189.73 97.48,189.69 97.64,189.62 97.7,189.6 97.74,189.58 
	97.85,189.51 97.94,189.46 98.04,189.43 98.19,189.52 98.21,189.53 98.26,189.55 98.29,189.55 98.4,189.54 98.5,189.53 
	98.58,189.55 98.62,189.58 98.64,189.6 98.67,189.63 98.71,189.65 98.75,189.67 98.78,189.67 98.81,189.66 98.92,189.61 
	98.99,189.58 99.03,189.57 99.11,189.53 99.24,189.44 99.26,189.41 99.29,189.34 99.31,189.31 99.33,189.25 99.34,189.24 
	99.38,189.17 99.38,189.15 99.4,189.1 99.42,189.05 99.45,189 99.45,188.98 99.53,188.92 99.57,188.9 99.58,188.88 99.6,188.87 
	99.67,188.81 99.78,188.71 99.8,188.71 99.81,188.71 99.91,188.7 99.89,188.57 99.97,188.5 99.95,188.39 99.86,187.9 99.83,187.74 
	99.82,187.65 99.78,187.44 99.76,187.3 99.74,187.2 99.72,187.09 99.69,186.96 99.68,186.85 99.65,186.72 99.63,186.57 
	99.61,186.47 99.59,186.34 99.53,186.11 99.5,186 99.48,185.91 99.45,185.83 99.43,185.74 99.41,185.66 99.39,185.58 99.36,185.49 
	99.34,185.41 99.32,185.32 99.29,185.24 99.27,185.15 99.25,185.07 99.21,184.91 99.18,184.83 99.17,184.77 99.14,184.68 
	99.12,184.59 99.1,184.52 99.08,184.45 99.06,184.38 99.04,184.29 99.02,184.21 99,184.12 98.98,184.05 98.96,183.98 98.94,183.91 
	98.92,183.82 98.9,183.74 98.88,183.67 98.85,183.58 98.81,183.42 98.79,183.33 98.77,183.25 98.74,183.16 98.72,183.08 
	98.7,182.99 98.68,182.91 98.65,182.82 98.61,182.66 98.59,182.57 98.54,182.31 98.48,181.95 98.45,181.76 98.44,181.65 
	98.42,181.55 98.41,181.44 98.39,181.34 98.37,181.17 98.36,181.09 98.34,180.96 98.32,180.85 98.3,180.75 98.29,180.58 
	98.3,180.47 98.3,180.35 98.32,180.01 98.33,179.91 98.34,179.81 98.35,179.69 98.36,179.59 98.37,179.43 98.38,179.26 98.39,179.1 
	98.4,179.05 98.4,178.96 98.41,178.89 98.41,178.85 98.43,178.6 98.44,178.41 98.46,178.07 98.47,177.74 98.48,177.59 98.48,177.48 
	98.49,177.45 98.54,177.22 98.58,177.07 98.63,176.87 98.65,176.8 98.67,176.69 98.7,176.56 98.74,176.42 98.79,176.2 98.82,176.09 
	98.85,175.94 98.91,175.72 98.93,175.64 99.01,175.28 99.02,175.15 99.02,175.01 99.02,174.91 99.03,174.8 99.03,174.72 
	99.03,174.56 99.03,174.38 99.03,174.26 99.03,174.16 99.03,174 99.03,173.86 99.03,173.76 99.03,173.66 99.03,173.3 99.17,172.9 
	99.15,172.63 99.14,172.42 99.15,172.32 99.15,172.22 99.16,172.07 99.17,171.87 99.17,171.68 99.18,171.46 99.19,171.28 
	99.2,171.12 99.21,170.96 99.21,170.84 99.22,170.79 99.22,170.64 99.22,170.59 99.23,170.47 99.25,170.05 99.25,169.96 
	99.26,169.81 99.26,169.66 99.13,169.43 99.06,169.13 98.98,168.82 98.94,168.65 98.88,168.4 98.86,168.3 98.8,168.19 98.72,168.01 
	98.58,167.73 98.51,167.58 98.46,167.48 98.41,167.38 98.37,167.28 98.31,167.17 98.26,167.06 98.2,166.94 98.14,166.85 
	98.04,166.69 97.99,166.6 97.88,166.42 97.79,166.27 97.71,166.14 97.65,166.04 97.6,165.89 97.59,165.86 97.56,165.68 
	97.54,165.48 97.51,165.31 97.48,165.15 97.46,165 97.44,164.83 97.42,164.72 97.4,164.59 97.38,164.46 97.37,164.34 97.35,164.21 
	97.33,164.1 97.31,163.95 97.3,163.79 97.13,163.77 97,163.76 96.89,163.74 96.79,163.73 96.69,163.72 96.59,163.71 96.49,163.7 
	96.39,163.69 96.29,163.68 96.15,163.66 96.05,163.65 95.95,163.64 95.85,163.63 95.75,163.62 95.64,163.61 95.54,163.6 
	95.45,163.59 95.24,163.56 94.94,163.53 94.62,163.5 94.54,163.49 94.45,163.48 94.37,163.47 94.12,163.44 94.03,163.43 
	93.84,163.41 93.7,163.39 93.6,163.38 93.49,163.37 93.35,163.35 93.25,163.34 93.15,163.33 92.97,163.31 92.83,163.3 92.71,163.28 
	92.32,163.24 92.22,163.23 92.11,163.22 91.98,163.2 91.88,163.19 91.78,163.18 91.69,163.17 91.42,163.14 91.22,163.12 
	91.21,163.12 91.06,163.1 90.94,163.09 90.83,163.08 90.69,163.06 90.55,163.05 90.46,163.04 90.36,163.03 90.26,163.01 90.16,163 
	90.06,162.99 89.97,162.98 89.87,162.97 89.77,162.96 89.68,162.95 89.57,162.94 89.47,162.93 89.32,162.91 89.27,162.91 
	89.14,162.89 89.01,162.88 88.95,162.87 88.87,162.86 88.77,162.85 88.65,162.84 88.54,162.83 88.44,162.81 88.33,162.8 
	88.23,162.79 88.11,162.78 88.01,162.77 87.91,162.76 87.8,162.75 87.7,162.73 87.59,162.72 87.48,162.71 87.33,162.69 
	86.95,162.65 86.72,162.21 86.61,161.99 86.56,161.9 86.48,161.74 86.44,161.66 86.37,161.53 86.27,161.34 86.2,161.21 
	86.15,161.11 86.11,161.04 86.04,160.91 86.04,160.89 86.03,160.84 86.02,160.8 86.02,160.76 86.01,160.72 86,160.67 85.99,160.61 
	85.97,160.47 85.95,160.33 85.93,160.24 85.92,160.14 85.91,160.06 85.9,159.98 85.89,159.83 85.88,159.68 85.88,159.6 
	85.87,159.53 85.87,159.45 85.87,159.37 85.86,159.29 85.86,159.2 85.85,159.13 85.85,159.06 85.84,159 85.84,158.93 85.84,158.87 
	85.84,158.82 85.83,158.7 85.82,158.6 85.82,158.5 85.81,158.36 85.8,158.26 85.8,158.18 85.79,158.1 85.79,157.95 85.78,157.87 
	85.78,157.8 85.77,157.68 85.76,157.56 85.75,157.44 85.75,157.33 85.74,157.23 85.74,157.09 85.73,157.01 85.73,156.99 
	85.73,156.96 85.72,156.84 85.72,156.72 85.71,156.59 85.71,156.5 85.7,156.41 85.69,156.22 85.59,156.06 85.17,156.06 
	85.05,156.06 84.94,156.05 84.83,156.05 84.72,156.05 84.61,156.05 84.5,156.04 84.39,156.04 83.99,156.03 "/>
<polygon id="A1" fill="#A7C8D9" stroke="#FFFFFF" stroke-linecap="square" stroke-linejoin="bevel" stroke-miterlimit="10" points="
	138.66,170.3 139,170.06 138.98,170.03 138.82,169.79 138.61,169.48 138.25,168.95 138.15,168.81 137.95,168.55 137.9,168.58 
	137.81,168.45 137.85,168.42 137.47,167.94 137.31,167.73 137.12,167.49 137.06,167.42 137,167.34 136.78,167.07 136.59,166.79 
	138.88,165.13 139.49,164.7 140.17,164.2 140.3,164.11 140.5,163.97 138.56,162.18 136.76,160.54 136.76,160.53 136.23,160.04 
	136.14,160 136.08,159.96 135.66,159.57 135.6,159.51 135.27,159.22 135.15,159.12 135.12,159.09 134.55,158.63 134.14,158.29 
	134.13,158.28 133.65,157.87 133.61,157.84 133.25,157.54 131.71,156.24 131.48,156.04 131.34,155.93 131.31,155.91 130.63,155.36 
	130.62,155.35 130.52,155.28 130.47,155.24 130.11,154.95 130.09,154.94 130.09,154.93 129.92,154.79 129.81,154.71 129.58,154.52 
	129.57,154.51 129.06,154.11 129.04,154.1 128.92,154.01 128.91,153.99 126.57,152.11 126.16,151.78 125.93,151.59 125.82,151.5 
	124.23,150.23 124.15,150.16 124.09,150.11 124.07,150.09 123.84,149.91 123.31,149.48 122.89,149.14 122.76,149.05 125.77,145.11 
	127.51,142.83 127.72,142.57 128.61,141.4 129.44,140.31 130.37,139.08 131.58,137.65 131.68,137.49 131.76,137.36 131.79,137.31 
	131.89,137.14 131.93,137.06 132.03,136.91 132.05,136.87 132.1,136.82 132.33,136.52 132.36,136.48 132.69,136.05 132.91,135.76 
	133.11,135.5 133.16,135.45 133.47,135.04 133.58,134.9 135.13,132.92 135.47,132.41 135.68,132.07 136.06,131.31 136.48,130.48 
	136.58,130.19 136.64,130.02 137.02,128.9 137.05,128.79 137.12,128.49 137.21,128.1 137.41,126.92 137.45,126.38 137.47,125.83 
	137.49,125.26 137.47,124.75 137.45,124.34 137.4,123.86 137.34,123.48 137.17,122.56 137.09,122.12 136.98,121.52 136.95,121.37 
	136.92,121.19 136.7,119.97 136.62,119.49 136.41,118.32 136.27,117.58 136.22,117.35 136.2,117.28 136.13,116.93 136.1,116.68 
	136.01,116.14 135.94,115.33 135.91,114.55 135.9,114.51 135.89,114.51 135.88,114.51 135.85,114.42 135.86,113.33 135.87,112.69 
	135.91,112.09 135.91,111.97 135.94,111.45 136.01,110.79 136.18,109.59 136.19,109.51 136.37,108.55 136.5,107.85 136.43,107.65 
	136.45,107.58 136.49,107.32 136.69,106.2 136.7,106.18 136.71,106.08 136.79,105.62 136.87,105.28 137.25,103.63 137.59,102.16 
	137.6,102.12 137.62,102.06 137.63,101.98 137.64,101.95 137.65,101.92 137.66,101.88 137.7,101.75 138.17,99.61 138.24,99.44 
	138.26,99.29 138.27,99.27 138.49,98.21 138.64,97.6 139.06,95.72 139.1,95.47 139.12,95.26 139.27,94.71 139.27,94.68 
	139.32,94.48 139.33,94.42 139.35,94.3 139.47,93.34 139.52,92.74 139.53,92.31 139.53,92.16 139.55,91.9 139.57,91.51 
	139.57,91.45 139.57,91.4 139.57,91.39 139.59,91 139.59,90.97 133.79,90.91 133.85,91.02 131.36,98.63 124.23,105.79 112.15,112.6 
	112.15,112.61 107.2,115.87 106.84,116.11 101.84,120.51 99.59,124.15 99.03,126.36 98.44,128.68 98.51,129.2 99.03,133.32 
	100.13,138.33 102.15,140.87 103.81,142.93 104.14,143.34 104.25,143.46 109.12,148.84 110.76,150.66 115.02,154.14 115.35,154.41 
	117.14,155.87 117.25,155.96 117.38,156.06 125.81,162.62 135.11,172.77 "/>

<g transform="matrix(1 0 0 1 0 25)">
	<!-- ROLL 21-->
	<g id="LA" class="st5">
			<!-- <image xlink:href="./images/Vainqueur21.png" x="300" y="-10" height="200px" width="200px"/> -->
			<text transform="matrix(1 0 0 1 320 150)" class="st5">
			<tspan x="0" y="63"  class="vainqueur">A. KRISTOFF</tspan>
			<tspan x="1.6" y="84" class="equipe">(UAD)</tspan>
			<tspan x="1.6" y="105" class="equipe">02h 46' 36''</tspan>
			</text>
	</g>
	</g>



</svg>
