<?xml version="1.0" encoding="utf-8"?>
<!-- Generator: Adobe Illustrator 26.0.2, SVG Export Plug-In . SVG Version: 6.00 Build 0)  -->
<svg version="1.1" id="map" xmlns="http://www.w3.org/2000/svg" xmlns:xlink="http://www.w3.org/1999/xlink" x="0px" y="0px"
	 viewBox="0 0 145 200" style="enable-background:new 0 0 145 200;" xml:space="preserve">
<style type="text/css">
	.st0{fill:#A7C8D9;stroke:#FFFFFF;stroke-linecap:square;stroke-linejoin:bevel;stroke-miterlimit:10;}
</style>
<path id="A8_00000068634869612742016950000006365356958605201304_" class="st0" d="M88.8,94.1l0.1,0.1l0.8,1.1l0,0l0,0.1l0.1,0.1
	l0.1,0.1l0.1,0.2l0.3,0.4l0.1,0.1l0.3,0.4l0.1,0.1h0L91,97l0.2,0.2l0,0l0.2,0.3l0.1,0.1l0.1,0.1l0.1,0.1l0.1,0.1l0.1,0.2l0.1,0.1
	l0.1,0.2l0.2,0.3l0.1,0.1l0,0.1l0.1,0.1l0.5,0.7l0,0l0.1,0.2l0.3,0.4l0.5,0.6l0,0l0.1,0.1l0.3,0.4l0.1,0.1v0l0.1,0.1l0,0.1l0,0
	l0.1,0.1l0,0l0,0.1l0.2,0.3l0,0.1l0,0l0.1,0.1l0.3,0.4l0.2,0.2l0.2,0.2l0.2,0.2l0.1,0.2l0.1,0.1l0.1,0.1l0.1,0.1l0.1,0.1l0,0
	l0.2,0.2l0,0l0,0l0.1,0.1l0.1,0.1l0.1,0.2l0.1,0.1l0.1,0.2l0.1,0.1l0,0.1l0.2,0.3l0.4,0.6l0,0l0.1,0.1l0.2,0.3l0,0l0.2,0.2l0,0
	l0.1,0.2l0.2,0.2l0.1,0.2l0.2,0.2l0.2,0.3l0,0l0.1,0.2l0.2,0.2l0.1,0.1l0.2,0.3l0.1,0.1l0.1,0.1l0.1,0.1l0.2,0.2l0.2,0.2l0.1,0.1
	l0.1,0.1l0.2,0.3l0.2,0.2l0.1,0.1l0.1,0.1l0.1,0.2l0.1,0.2l0.1,0.2l0.1,0.1l0.1,0.1l0.1,0.2l0.1,0.2l0.1,0.2l0,0l0.1,0.1l0.3,0.4
	l0,0l0.2,0.2l0.1,0.1l0,0l0.3,0.4l0.2,0.2l0.1,0.2l0.4,0.5l0.4,0.5l0.1,0.1l2,2.7l5-3.3v0l12.1-6.8l7.1-7.2l2.5-7.6l-0.1-0.1
	l1.1-6.6l0.1-0.2l0.5-1.5l0.8-2.2l0.1-0.3l0.6-1.3l2-3.9l1.5-2.9l0.4-1.2l0.1-0.5l0.3-1.2l0.6-2.9l0.3-1.9l0-0.2l0.3-2.4l0.2-2.2
	l0.2-3l0.1-2.6l0-0.1l0,0v-0.2l-0.1-0.5l0-0.4l0-0.5l0-0.4l0-0.4l0-0.4l-0.3-1.5l-0.1-0.8l-0.1-0.4l-0.1-0.5l-0.1-0.4l-0.1-0.4
	l-0.1-0.5l-0.3-1.4l-1.3-5.9l-0.2-0.8l-0.5-3.3l-0.5-3l-0.9-3.1l-1.8-5.8l-0.5-1.3l-2.1-6l-0.1-0.4l-0.5-1.5l-0.2-0.4l-0.8-2.3
	l-1-3.1l-0.1-0.4l-0.5-1.5l-0.5-1.5L125,7.2l0,0.2l-0.1,0.5l-0.2,0.5l-0.3,0.4L124.1,9l-0.4,0.2l-0.4,0.1l-0.4-0.1l-0.3-0.2
	l-0.2-0.3L122,8.2l-0.3-0.3l-0.3-0.2l-0.4-0.2l-0.7-0.2l-0.7,0.3l-0.5,0.3L118.9,8l-0.1,0l-0.2,0.1l-0.2,0.2l-0.2,0.2l-0.3,0.2
	l-0.2,0.1L117.6,9l-0.3,0.1L117,9.3l-0.3,0.1l-0.2,0.1l-0.3,0.1l-0.3,0.1l-0.3,0h-0.2l-0.2,0l-0.4-0.1l-0.1,0l-0.2,0l-0.1,0l-0.1,0
	l-0.2-0.1L114,9.2l-0.2-0.1l-0.1,0l-0.5-0.2L113,8.7l-0.1,0l-0.1,0h-0.1l-0.1,0l-0.2,0.1l-0.2,0.1L112,8.9l-0.4,0.3l-0.1,0.2
	l-0.1,0.2l-0.3,0.6l-0.1,0.2l-0.1,0.1l-0.1,0.1l-0.1,0.2l-0.2,0.1l-0.2,0.1l-0.2,0.1l-0.2,0.1h-0.1h-0.1l-0.2,0l-0.2,0l-0.2-0.1
	l-0.1-0.1l-0.1,0l-0.2-0.1l-0.1,0l-0.1,0l-0.1,0l-0.1,0h-0.2l-0.2,0l-0.2,0l-0.2,0l-0.2,0l-0.2,0l-0.2,0l-0.1,0h-0.1l-0.2,0l-0.2,0
	l-0.1,0h-0.3l-0.1,0l-0.2-0.1l-0.1,0l-0.2-0.1l-0.3-0.2l-0.1-0.1l-0.2-0.1l-0.1,0l-0.1,0l-0.2,0l-0.2,0h-0.3l-0.4,0l-0.1,0h-0.1
	l-0.3,0l-0.2,0l-0.2,0l-0.3,0l-0.3-0.1l-0.1,0l-0.2,0l-0.2,0l-0.3,0h-0.2h-0.2l-0.3,0l-0.1,0l-0.1,0l0,0l-0.1,0l-0.2,0l-0.1,0
	l-0.1,0l-0.1,0l-0.1,0l0,0l-0.1,0L99,10.5l-0.2,0.1l-0.1,0.1l-0.1,0l-0.1,0L99,12l0.5,1.2l0.5,1.3l0,0l0,0v0l0,0v0v0v0v0v0l0,0v0
	l0,0l0,0l0,0l0,0l0,0l0,0L99.8,15l-0.2,0.1h0h0h-0.1h-0.1l-0.1,0h0l-0.1,0h0h-0.1h0h0l0,0l0,0l0,0h0l0,0l0,0l0,0l0,0l0,0l0,0l0,0
	l0,0l0,0l0,0l0,0l0,0v0l0,0v0v0l0,0v0v0l0,0.1v0l0,0v0l0,0v0l0,0l0,0l0,0l0,0l0,0l0,0l0,0l0,0L98.6,16l0,0l-0.1,0.1l-0.1,0l-0.1,0
	l-0.1,0l0,0l0,0l-0.1,0l-0.1,0l-0.1,0l-0.1,0h-0.1h-0.1l-0.1,0l-0.1,0l-0.1,0l-0.4-0.1l-0.1,0l-0.1,0H97l-0.1,0l0,0l0,0l0,0
	l-0.3,0.3l0,0l0,0l0,0l0,0h0l-0.1,0l-0.1,0l0,0L96,16.4l-0.1,0h-0.1h0h0l0,0l0,0h0l0,0l0,0l0,0l0,0l0,0l0,0l0,0l0,0h0l0,0l0,0h0l0,0
	h0l0,0h0l0,0l-0.2,0h0l0,0h0h0l0,0h0h0h0H95l-0.3,0h0l-0.1,0l0,0l0,0l0,0l0,0l-0.1,0.2l0,0l0,0l0,0l0,0l0,0l0,0l0,0l-0.1,0l0,0l0,0
	l0,0l0,0H94h0l-0.1,0l-0.2,0l-0.1,0l-0.3-0.1l-0.1,0l-0.1,0l0,0l0,0h0l0,0l0,0h0l0,0h0l0,0h0h0l0,0l-0.1,0l-0.1,0h0l0,0h0l-0.1,0h0
	l0,0h0h0h0l0,0h0h0h0l0,0h0l-0.1,0l-0.1,0h0h-0.1H92l0,0h0h0l0,0l-0.1,0l-0.1,0l0,0l-0.1,0l0,0l-0.1,0l-0.2-0.2l-0.2,0.1l-0.1,0
	l-0.1,0h-0.2l-0.2,0l-0.1,0l-0.2,0l-0.1,0.3l0,0l0,0.1l0,0l0,0l0,0l0,0.1v0v0.1l0,0.2l0,0l0,0.1l0,0.1l0,0.1l0,0.1l0,0.1V18V18
	l0,0.1l-0.2,0.6l0,0l-0.1,0.1l-0.3,0.1l-0.2,0l-0.2,0l-0.2,0l0,0l-0.1,0l-0.4,0l-1-0.1L87,18.6l-0.2-0.2l0-0.2l0.6-1v0v0l0,0v0v0v0
	v0l0,0v0l0,0v0l0,0l0,0v0l0,0l0,0l0,0l0,0l-0.3-0.2l-0.2-0.1h0h0l0,0h0h0h0h0h0h0l0,0l-0.7,0.3l0.1,2.9l0,0.6l0,0.3v0.2l0.7,20.4
	l0,0.1l0,0.8l0,0.2l0.1,2.6l0.1,2.4l0,1.5l0.1,2.7l0.1,2.2l0,0.4l0,0.2l0,0.7l0,1L88,72.2l0.1,1.6l0.1,1.5l0,1.3l0,1.1l0,1.9
	l0.1,2.3l0,1.1l0,0.6l0,0.4v0.2l0,0.3l0,0.2l0,0.3v0.2l0,0.2v0.1l0,0.2l0,0.2l0,0.3v0.3v0.1l0,0.2l0,0.3v0.2v0.1l0,0.4h0l0,0.4
	l0,0.1l0,0.4l0,0.4l0,0.3v0v0.1l0,0.2l0,0v0l0,0.2l0,0.2h0l0,0.2l0,0.2l0,0.5v0.1l0,0.1v0.2l0,0.1v0.2v0.2l0,0.2v0.1l0,0.2l0,0
	l0,0.3l0,0.2V93l0.1,0.9V94.1z"/>
<path id="A7_00000131327312340634376970000007537674616585325959_" class="st0" d="M65.1,114.9L65.1,114.9L65,115l0.4,0.3l0.1,0.1
	l0.2,0.1l0.1,0.1l0.1,0.1l0.3,0.3l0.1,0.1l0.1,0.1l0.1,0.1l0.1,0.1l0.1,0.1l0.1,0.1l0.2,0.2l0.1,0.1l0.1,0.1l0.1,0.1l0.1,0.1
	l0.1,0.1l0.1,0.1l0.1,0.1l0.1,0.1l0.1,0.1l0.1,0.1l0,0l0.1,0.1l0.1,0.1l0.1,0.1l0.1,0.1L68,118l0.1,0.1l0.1,0l0.1,0.2l0.1,0.1
	l0.1,0.1l0.1,0.1l0.1,0.1l0.1,0.1l0.8,0.5l0.2,0.1l0.1,0.1l0.2,0.1l0.1,0.1l0.1,0.1l0.1,0.1l0.1,0.1l0.2,0.1l0.1,0l0.2,0.1l0.1,0.1
	l0.1,0.1l0.1,0.1l0.1,0.1l0.1,0.1l0.1,0l0,0l0.1,0.1l0.1,0l0.1,0.1l0.1,0l0.2,0.1l0.2,0.1l0.2,0.1l0,0l0.1,0.1l0.1,0.1l0.1,0.1l0,0
	l0,0l0,0l0.1,0l0,0h0l0,0l0,0l0.1,0.1l0.1,0.1l0.1,0.1h0l0,0l0.1,0l0,0l0,0v0l0.1,0.1l0.2,0.1l0.1,0.1L74,122l0.1,0.1l0.1,0.1l0.1,0
	l0.1,0.1l0.1,0l0.1,0l0.1,0l0,0l0.1,0.1l0.1,0l0.1,0.1l0.1,0.1l0.1,0.1l0.1,0.1l0.1,0.1l0.1,0.1l0.1,0.1l0.1,0.1l0.1,0.1l0.1,0.1
	l0.1,0.1l0.1,0.1l0.1,0.1l0.1,0.1l0.1,0.1l0.1,0.1l0,0l0.1,0l0,0l0,0l0.2,0.1l0.6,0.5l0.1,0.1l0.1,0.1l0.1,0.1l0.1,0.1l0.2,0.1
	l0.1,0.1l0,0l0.1,0.1l0.2,0.2l0,0l0,0l0.1,0.1l0.1,0.1l0.1,0.1l0.1,0.1l0.1,0.1l0.1,0.1l0.2,0.2l0.1,0.1l0.1,0.1l0.1,0.1l0.1,0.1
	l0.1,0.1l0.1,0.1l0.1,0.1l0.1,0.1l0.1,0.1l0.1,0.1l0.1,0.1l0.1,0.1l0.1,0.1l0.1,0.1l0.1,0.1l0.1,0.1l0.1,0.1l0.1,0.1l0.1,0.1
	l0.1,0.1l0.1,0.1l0.1,0.1l0.1,0.1l0.1,0.1l0.1,0.1L81,128l0.1,0.1l0,0L82,129l0.2,0.2l0.1,0.1l0.1,0.1l0.2,0.2l0.2,0.2l0.1,0.1
	l0.1,0.1l0.1,0.1l0.1,0.1l0.1,0.1l0,0.1l0.1,0.1l0.1,0.1l0.1,0.1l0.1,0.1l0.1,0.1l0.1,0.1l0.1,0.2l0,0v0h0v0v0h0v0l0,0v0h0v0l0,0v0
	v0h0v0v0l0,0v0l0,0l0,0v0l0,0v0v0l0,0l0,0v0v0l0,0v0v0h0v0v0l0,0v0v0l0,0v0v0l0,0v0v0l0,0v0v0v0v0l0,0v0v0v0v0v0l0,0v0v0v0l0,0v0v0
	l0,0v0v0h0v0v0v0l0,0l0,0l0,0v0l0,0l0,0v0l0,0l0,0v0h0v0l0,0l0,0v0l0,0l0,0l0,0v0h0l0.4,0.3l0,0h0l0,0h0h0h0h0h0l0,0h0h0h0h0l0,0h0
	h0l0,0h0l0.3-0.3l0,0v0l0,0v0v0l0,0v0v0v0l0,0v0v0v0v0l0,0v0v0v0l0.2,0l0.3,0l0.2,0.1l0.3,0l0.2,0l0.2,0l0.2,0l0.2,0l0.2,0l0-0.4v0
	v0l0,0v0v0v0v0v0v0v0l0,0v0v0v0v0v0l0,0v0v0v0l0,0v0v0l0,0v0v0l0,0v0l0,0l0,0l0,0v0l0,0l0,0v0v0v0h0v0v0l0,0v0l0,0v0l0,0v0l0,0l0,0
	v0l0,0l0.1-0.2l0,0l0,0l0,0l0,0v0l0,0l0,0l0,0l0,0l0,0l0,0l0,0v0l0,0l0,0l0,0l0,0v0h0v0h0v0l0,0l0,0l0,0l0,0l0,0l0,0l0,0l0,0l0,0
	l0,0l0,0l0,0l0,0l0,0l0,0l0,0l0,0h0l0,0l0,0l0,0l0,0l0,0l0,0l0,0l0,0l0,0l0.2-0.1h0l0,0l0,0h0v0h0h0l0,0l0,0h0v0h0h0v0h0h0v0h0h0v0
	h0h0l0,0l0,0h0l0,0h0l0,0l0,0l0,0h0h0l0,0l0,0l0,0h0h0l0,0h0l0,0h0h0l0,0h0h0l0,0l0,0h0l0,0h0h0h0l0,0h0l0.4-0.1l-0.1-1.4l0.2,0
	l0.2,0l0.2,0l0.2,0l0.2,0l0.2,0l0.2,0l0.2,0l0.2,0l0.2,0l0.1,0l0.2,0l0.2,0l0.1,0l0.2,0l0.2,0l0.2,0l0.2,0l0.2,0l0.2,0l0.2,0l0.2,0
	l0.2,0l0.2,0l0.4,0l4.8-0.3l0.6-2.2l2.2-3.6l5-4.4l0.4-0.2l-2-2.7l-0.1-0.1l-0.4-0.5l-0.4-0.5l-0.1-0.2l-0.2-0.2l-0.3-0.4l0,0
	l-0.1-0.1l-0.2-0.2l0,0l-0.3-0.4l-0.1-0.1l0,0l-0.1-0.2l-0.1-0.2l-0.1-0.2l-0.1-0.1l-0.1-0.1l-0.1-0.2l-0.1-0.2l-0.1-0.2l-0.1-0.1
	l-0.1-0.1l-0.2-0.2l-0.2-0.3l-0.1-0.1l-0.1-0.1l-0.2-0.2l-0.2-0.2l-0.1-0.1l-0.1-0.1l-0.1-0.1l-0.2-0.3l-0.1-0.1l-0.2-0.2l-0.1-0.2
	l0,0l-0.2-0.3l-0.2-0.2l-0.1-0.2l-0.2-0.2l-0.1-0.2l0,0l-0.2-0.2l0,0l-0.2-0.3l-0.1-0.1l0,0l-0.4-0.6l-0.2-0.3l0-0.1l-0.1-0.1
	l-0.1-0.2l-0.1-0.1l-0.1-0.2l-0.1-0.1l-0.1-0.1l0,0l0,0l-0.2-0.2l0,0l-0.1-0.1l-0.1-0.1l-0.1-0.1l-0.1-0.1l-0.1-0.2l-0.2-0.2
	l-0.2-0.2l-0.2-0.2l-0.3-0.4l-0.1-0.1l0,0l0-0.1l-0.2-0.3l0-0.1l0,0l-0.1-0.1l0,0l0-0.1l-0.1-0.1v0l-0.1-0.1l-0.3-0.4l-0.1-0.1l0,0
	l-0.5-0.6l-0.3-0.4l-0.1-0.2l0,0L92.6,99l-0.1-0.1l0-0.1l-0.1-0.1l-0.2-0.3L92,98.3l-0.1-0.1L91.8,98l-0.1-0.1l-0.1-0.1l-0.1-0.1
	l-0.1-0.1l-0.2-0.3l0,0L91,97l-0.2-0.3h0l-0.1-0.1l-0.3-0.4l-0.1-0.1L90,95.7l-0.1-0.2l-0.1-0.1l-0.1-0.1l0-0.1l0,0l-0.8-1.1
	l-0.1-0.1l-0.1,0l-0.2,0.1l-0.7,0.3l-0.2,0.1l-0.1,0l-0.1,0.1l-0.1,0.1l-0.1,0.1l-0.1,0.1L86.9,95l-0.2,0.1l-0.2,0.1l-0.2,0.1
	l-0.1,0.1l-0.1,0l-0.1,0.1l0,0L86,95.5l-0.1,0.1l-0.1,0l-0.1,0.1l-0.1,0.1l-0.1,0l-0.1,0l-0.1,0.1l-0.2,0.1L85,96l-0.7,0.3l-0.1,0
	L84,96.4l-0.1,0.1l-0.1,0.1l-0.1,0.1l-0.1,0l-0.1,0l-0.1,0l-0.1,0.1l-0.1,0.1l-0.1,0.1L82.9,97l-0.2,0.1l-0.1,0.1l-0.1,0.1l-0.2,0.1
	l-0.2,0.1L82,97.4l-0.2,0.1l-0.1,0.1l-0.1,0.1l-0.1,0.1L80.8,98l-0.1,0l-0.1,0.1l-0.1,0.1l0,0l-0.1,0l-0.1,0.1l-0.1,0l-0.1,0.1
	l-0.1,0.1l-0.1,0l-0.1,0l-0.1,0l-0.1,0l-0.1,0l0,0l0,0l-0.2,0.1l0,0l-0.1,0L79,98.9l0,0l-0.3,0.1l-0.1,0.1l-0.2,0.1h0l-0.1,0
	L78,99.4l-0.1,0l-0.2,0.1l-0.2,0.1l-0.7,0.4l-2.1,1l-0.2,0.1h0l-0.2,0.1l-0.3,0.1l-0.2,0.1l-0.1,0l-0.1,0l-0.2,0.1l-0.2,0.2
	l-0.1,0.1l-0.1,0.1l-0.1,0.1l-0.2,0.2l-0.1,0.1l-0.2,0.2l-0.1,0.1l-0.2,0.3l-0.1,0.2l-0.1,0.2l-0.1,0.2l-0.1,0.1l-0.1,0.1l-0.4,0.7
	l-0.1,0.1l-0.2,0.3l-0.4,0.6l-0.4,0.7l0,0.1l-0.7,1.3l0,0.1l0,0.1l-0.1,0.2l-0.1,0.2l-0.1,0.2l-0.1,0.2l-0.2,0.4l-0.1,0.1l-0.1,0.2
	l-0.1,0.2l-0.1,0.1l-0.1,0.2l0,0l0,0.1l-0.1,0.1l-0.2,0.3l-0.1,0.2l-0.1,0.1l-0.1,0.2l-0.1,0.1l-0.2,0.3l-0.1,0.1l-0.1,0.2l-0.1,0.1
	l-0.1,0.1l-0.1,0.1l-0.1,0.2l-0.1,0.1l0,0.1l-0.1,0.2l-0.1,0.1l-0.1,0.1l0,0.1l-0.1,0.1l0,0l-0.1,0.2l-0.1,0.2l-0.1,0.1l-0.1,0.1
	l-0.1,0.1l-0.2,0.3l-0.1,0.2l-0.1,0.2l-0.1,0.1l0,0.1l-0.1,0.1l-0.1,0.1l-0.1,0.2L65.1,114.9z"/>
<path id="A6_00000152257173580336714130000015051354779626386106_" class="st0" d="M64.4,116.1l-0.9-0.3l-0.1,0l-0.1,0l-0.1,0
	l-0.1,0l-0.2-0.1l-0.2-0.1l-0.3-0.2l-0.3-0.1l-0.3-0.1l-0.3-0.1l-0.5-0.2l-0.7-0.2l-0.4-0.2l-0.2-0.1l-0.2-0.1l-0.1,0l-0.1-0.1
	l-0.1,0l-0.4-0.2l-0.3-0.2l-0.2-0.1l-0.1-0.1l-0.2-0.1l-0.3-0.2l-0.1-0.1l-0.3-0.2l-0.2-0.2l-0.2-0.1l-0.3-0.2l-0.1-0.1l-0.2-0.2
	l-0.2-0.1l-0.2-0.1l-0.1-0.1l-0.4-0.5l-0.1-0.1l-0.2-0.3l-0.1-0.1l-0.2-0.2l-0.2-0.2l-0.5-0.4l-0.1,0l-0.1-0.1l-0.1-0.1l-0.1-0.1
	l0,0l0,0l-0.1-0.1l-0.1-0.1l0,0l0,0l-0.1-0.1l0,0l0,0l0,0l-0.2-0.3l-0.2-0.2l-0.2-0.2l0,0l-0.1-0.1l-0.1-0.1l0,0l0,0l0,0l-0.1-0.1
	l0,0l0,0l-0.1,0l-0.2-0.2l-0.1-0.1l-0.1-0.1l-0.2-0.1l-0.2-0.2l-0.2-0.1l-0.1-0.1l-0.1,0l-0.1-0.1l0,0l-0.2-0.1l-0.2-0.2l-0.1-0.1
	l-0.1-0.1l-0.1-0.1l-0.2-0.2l-0.2-0.1l-0.1-0.1l-0.3-0.2l-0.4-0.4l-0.2-0.2l-0.1-0.1l-0.6-0.5l-0.2-0.1l-0.2-0.1l-0.2-0.2l0,0
	l-0.1-0.1l-0.1,0l-0.2-0.1l-0.9-0.6L46,103l-0.2-0.1l-0.4-0.1l-1-0.2l-0.2,0l-0.3-0.1l-0.1,0l-0.2,0l-0.1,0l-0.1,0l-0.5-0.2
	l-0.1-0.1l-0.5-0.2l-0.1,0l-0.2,0l-0.2-0.1l-0.1,0l-1.2-0.3l-0.2-0.1l-0.3-0.1l0,0l-0.2-0.1l-0.2-0.2l-0.1-0.1l0,0l-0.1-0.1
	l-0.1-0.1l-0.1-0.1l-0.4-0.4l-0.4-0.3l-0.4-0.4l-0.4-0.4l-0.2-0.2L37,98.6l-0.4-0.4l-0.1-0.1L36.3,98L36,97.7l-0.3-0.2l-0.3-0.2
	l-0.2-0.1L35,97.1L34.8,97l-0.2-0.1l-0.2-0.1l-0.4-0.2L34,96.5l-0.3-0.2l-0.3-0.1L33.2,96l-0.2-0.1l-0.2-0.2l-0.2-0.2l-0.3-0.2
	l-0.4-0.3L31.8,95l-0.3-0.2l-0.1-0.1l-0.2-0.2l-0.2-0.2L30.9,94l-0.7-0.9l-0.1-0.1L30,92.9L30,92.8l-0.1-0.1l-0.4-0.6l-0.6-0.8
	l-0.1-0.1l-0.3-0.3l-0.1-0.2l-0.2-0.3l-0.1-0.2L27.7,90l-0.1-0.2l-0.1-0.1l0,0l-0.2-0.2l-0.1-0.1l-0.8-0.8L25.8,88l-0.7-0.7
	l-0.6-0.6l-0.4-0.4L23.8,86l-1.1-1.2l-0.3-0.3l-1.4-1.4l-0.4-0.3l-0.1-0.1l-1.8-1.8l-0.1,0.1l-0.9,2.6l-0.2,0.6l-0.1,0.5l-0.8,2.5v0
	l-0.5,1.6l0,0l0,0v0l0,0.1v0l-0.1,0.5l0,0l-0.2,0.5l-0.1,0.2l-0.2,0.2l-0.1,0.1l-0.1,0.1l-0.4,0.5l-0.8,1L14.3,92l0.4,0.1l0.1,0
	l0.1,0l0.1,0l0.2,0.1l0,0l0.1,0l0.1,0l0.1,0.1l0.2,0.1l0.1,0.1l0.2,0.1l0.1,0l0.1,0l0.1,0l0.1,0l0.1,0l0.1,0.1l0.1,0l0.1,0.1
	l0.2,0.1l0,0.1l0,0l0.2,0.2l0.1,0.1l0.1,0.1l0,0.1l0.2,0.2l0.3,0.4l-0.2,0.6l0,0.1l-0.1,0.1L17.5,95l-0.2,0.2l-0.1,0.1l-0.1,0.1
	l-0.3,0.4l-0.1,0.2l-0.1,0.1L16,96.8l0,0L16,97l-0.2,0.3l-0.2,0.2l-0.2,0.2l-0.1,0.1l-0.2,0.3L15,98.2l-0.2-0.1L14.5,98l0,0
	l-0.1-0.1l-0.1-0.1l-0.2-0.1l-0.2-0.1l-0.2-0.1l-0.2-0.1l0,0l-0.1-0.1l-0.2,0.3l-0.4,0.6l0,0.1l-0.1,0.2l-0.3,0.4L12.1,99l-0.1,0.1
	l0,0.1l-0.5,0.6l-0.1,0.2l-0.1,0.1l-0.1,0.2l-0.1,0.1l0,0.1l-0.1,0.1l-0.1,0l-1-0.2l-0.1,0l-0.1,0l-0.7-0.2l-0.2-0.1l-0.2,0.5l0,0.1
	l-0.1,0.1l-0.1,0.1l0,0l0,0.1l-0.1,0.1l-0.1,0.1l0.3,0.1l0.2,0.1l-0.1,0.1l-0.1,0.3l-0.1,0.3l-0.1,0.3L8,102.8l0,0l0.1,0.1l0.2,0.1
	l0,0l0.1,0l0.1,0.1l0.1,0.1l0.1,0.1h0l0.1,0.1l0,0l0.1,0.1l0,0l-0.1,0.1h0l0.1,0.1l0.1,0.1h0l0.1,0.1l0,0l0.1,0h0l0.1,0l0.2,0l0.1,0
	l0.2,0.1h0l0,0l0,0l0.1,0l0,0l-0.3,0.4l0,0l-0.1,0.1l-0.1,0.2l-0.1,0.1l-0.1,0.1l-0.1,0.2l-0.1,0.2l-0.1,0.1L9,105.4L9,105.5
	l-0.1,0.1l0,0l-0.1,0.1l-0.1,0.1l0,0.1L8.6,106l-0.1,0.2l-0.2,0.2l-0.1,0.1l-0.1,0.1L8,106.9l0.3,0.2l0.2,0.1l0.2,0.1l0.2,0.1
	l0.3,0.1l-0.2,0.1l-0.1,0l-0.1,0l-0.4,0.1l0.4,0.2l0.5,0.2l0,0l0.1,0.1l0.3,0.1l-0.4,1l0,0.1l-0.1,0.2l-0.1,0.2l-0.1,0.2l0.2,0
	l0.1,0.1L10,110l0.1-0.1l0.2,0.1l0.7,0.4l-0.3,1l-0.3,1l-0.1,0.3l0,0l-0.2,0l-0.1,0l-0.1,0h0l-0.1,0l-0.2,0l-0.1,0h0l0,0.1l0,0.1
	l0,0.1l-0.1,0.3l0,0.1v0l0,0.2l0,0.2l0,0.2l0,0.2l0,0.2l0,0.2v0.1l0,0.1h0v0.2l0,0.2v0.3l0,0.2v0.1l0,0.1l0,0l0.1,0l1.1,0.4l1.9,0.4
	l0.6,0v-0.1l0.1,0h0l0.1,0l0.7,0l0-0.1l1.6,0.6l0,0.1l-0.1,0.2l-0.2,0.5l-0.2,0.7l-0.1,0.2l0,0.1l-0.1,0.4l-0.1,0.3l-0.1,0.3
	l-0.1,0.2l-0.1,0.2l0,0l0,0l0,0l-0.1,0.3v0l-0.1,0.3l-0.1,0.2l-0.1,0.2l-0.1,0.2l-0.1,0.3l-0.1,0.2l-0.1,0.2l0,0l-0.1,0.2l-0.1,0.2
	v0l-0.1,0.2l0,0l0,0l0.2,0.2h0l0.1,0l0.1,0.1l0.1,0.1l0.3,0.2l0,0l0.1,0.1l0.1,0l-0.1,0.1l0,0.1l-0.1,0.1v0l-0.1,0.1v0l-0.1,0.1l0,0
	l0,0.1l0,0l0,0l0,0l0,0l-0.2,0.4l0.2,0.2l0,0l-0.1,0.2l0,0.1l0,0l0,0l0.1,0.1l0,0l0,0l0,0.1l-0.1,0.1l-0.1,0.1l-0.1,0.1l-0.1,0.1
	l0,0.1l-0.3,0.4l-0.1,0.1l2,0.3l0.1,0.1l0,0.1l0.3,0.1l0.1,0l0.6,0.4l0.1,0l0.1,0.1l0.2,0.1l0.1,0.1l0.1,0.1l0.1,0.1l0,0l0,0
	l-0.3,0.6l-0.1,0.2l-0.1,0.2l0,0l-0.1,0.3l-0.4,1.5l0.7,0.2l0.4,0.1l0,0l0.1,0l0.1,0l0.1,0l0.1,0.1l0.1,0l0.1,0l0.1,0l0,0l0.4,0.1v0
	l0,0l0,0l0.1,0.6l0.1,0.4l0,0.1l0,0.3l0,0.2l0,0.1l0,0.2l0.1,0.4l0,0.1l0,0.2l0,0.4l0.2,1l0,0.2l0,0.1l0,0.1l0,0l0,0.2l0,0.6v0
	l0,0.1v0.1l0,0.1l0,0l0.3,0.5l0.4,0l0,0l0,0.1l0,0l0,0.3l0.1,0.3l0,0.1l0,0.1v0l0,0.1l0,0.1l0.1,0.2l0.1,0.2v0l0.1,0.2l0,0l0.1,0.2
	l0.1,0.1l0.1,0.1l0.1,0.1l0.1,0.2l0,0.1l0.2,0.1L22,140l0.3,0.1h0.1l0.1,0l0.3,0.1l0.1,0h0l0.1,0l0.2,0l0.2,0h0.1l0.1,0h0l0.2,0
	l0.2,0l0.1,0l0.1,0l0.1,0l0.2,0l0.1,0l0.1,0h0l0.2,0l0.2,0l0,0h0l0.1,0h0.1l0,0l0.3,0l0,0l0.1,0l0.2,0l0,0l0.1,0l0.1,0v0l0.2,0l0,0
	h0l0.1,0l0.1,0h0l0.4,0.1l0.2,0h0l0.1,0h0h0.1h0h0.1H28h0h0.1h0h0h0.1h0.1h0.1h0.1h0h0.5l0.2,0h0.1h0.1l0.1,0h0.1h0.2h0h0.1h0l0.1,0
	h0.1h0.3l0.2,0h0.1l0.1,0l0.3,0.1l0.2,0l0.1,0l0.1,0l0.1,0l0.1,0l0.2,0l0.2,0l0.2,0l0.1,0l0.2,0l0.4,0l0.1,0l0.2,0l0.2,0l0.2,0
	l0.2,0l0.2,0l0.2,0l0.3,0l0.1,0l0.1,0l0.6,0.1l1.3,0.2l0.3,0.1l0.1,0l0.1,0l0.1,0l0.5,0.1l0.2,0h0.1h0.2l0.2,0h0.1h0.1h0.1h0.2h0.1
	h0.1h0.1h0.1h0.1h0.1h0.2l0.1,0h0H40l0,0l0.1,0l0.2,0l0.2,0l0.2,0l0,0l0.1,0l0.1,0l0.2,0l0,0l0.1,0l0.2,0l0.1,0l0.2,0l0.2,0l0.1,0
	l0.1,0l0.1,0l0.1,0h0l0.1,0l0.1,0l0.1,0l0.2,0l0.2,0l0,0l0.2,0.1l0.1,0l0.1,0l0,0l0,0l0,0l0,0l0.1,0l0.1,0l0.1,0l0.1,0l0,0l0.1,0
	l0,0l0,0l0,0l0,0l0,0l0,0l0.1,0l0,0l0,0l0.1,0h0l0,0l0.1,0.1l0,0l0.1,0l0,0l0.1,0.1l0,0l0,0l0,0l0.1,0.1l0,0l0.1,0.1l0,0l0,0l0,0
	l0,0l0.1,0.1l0.1,0.1l0.1,0l0.1,0.1l0,0l0.2,0.1l0,0l0,0l0.1,0l0.1,0l0,0l0,0l0,0l0,0l0.1,0l0,0l0,0l0,0l0,0l0.1,0.1l0.1,0l0,0l0,0
	l0,0l0.4,0.2l0.2,0l0.1,0.1l0,0l0.1,0.1l0.1,0.1l0.1,0.1l0.1,0l0.1,0.1l0.1,0l0.2,0.1l0,0l0.1,0l0.1,0l0.1,0.1l0.2,0.1l0,0l0.1,0
	l0.1,0l0.1,0l0.1,0l0.1,0l0.2,0.1l0.1,0l0.1,0l0.2,0l0.1,0l0.1,0l0.1,0l0.2,0l0.1,0l0.1,0l0.1,0l0.1,0l0.1,0l0.2,0l0.1,0l0,0l0.1,0
	l0.1,0l0,0l0.1,0l0,0l0.1,0l0.1,0h0l0.1,0h0l0.1,0l0.1,0l0.1,0l0.2,0l0.1,0l0.2,0l0.1,0l0.2,0l0.1,0l0.1,0l0.1,0l0.1,0l0.1,0l0.1,0
	l0.2,0l0.1,0l0.2,0l0.1,0l0.2-0.1h0.1l0.5,0l0.1,0h0.1l0.1,0h0l0.2,0h0l0.1,0h0h0.1l0.1,0h0.1h0.1l0.1,0h0.1H56l0.1,0h0.1l0.1,0h0.1
	l0.1,0h0.2l0-1.7l0-1.5l0-0.1l-0.1-1.8l0-1.3l0-2.2l0-0.8l0-1.2l0-1.1l0-0.3l0.1-0.4l0.6-1.9l0.5-1.4l0.2-0.5l0.2-0.7l0.4-1l0.9-2.8
	l1.7-2.9l1.1-2L64,117L64.4,116.1L64.4,116.1z"/>
<path id="A5_00000156582786247776821870000018258058800643321252_" class="st0" d="M46.8,144.4l-0.7,0.1l-0.1,0l-0.2,0h-0.1l-0.3,0
	h-0.1l-0.2,0l-0.1,0l-0.2,0l0,0l-0.3,0.1l-0.1,0.1l-0.2,0.1l-0.2,0.3l-0.1,0.1l0,0l0,0l-0.1,0.1l-0.2,0.3l0,0.1l0,0.1l0,0.1l0,0.1
	l0,0.1l0,0.1l0,0.1l0,0.1l0,0.1l-0.1,0.2l-0.1,0.2l0,0.1l-0.1,0.1l0,0l0,0.1l0,0.1l0,0.1l-0.1,0.2l-0.1,0.2l0,0.1l0,0l0,0.1l0,0.1
	l-0.1,0.2l-0.1,0.2l-0.1,0.2l-0.1,0.2l-0.1,0.2l0,0l0,0l-0.1,0.2l0,0l0,0h0l0,0l-0.1,0l-0.2-0.1l0,0l0,0.1l0,0.1l0,0.1l0,0.1
	l-0.1,0.2l-0.1,0.2l0,0.1l-0.1,0.1l0,0.1l-0.1,0.1l0,0l-0.1,0.1l0,0.1l0,0.1l-0.1,0.1l-0.1,0.1l-0.1,0.1l-0.1,0.1l-0.1,0.1l-0.1,0
	l-0.1,0.1l-0.1,0.1l-0.1,0.1l-0.1,0l-0.2,0.1l-0.1,0.1l-0.1,0.1l-0.2,0.1l-0.1,0.1l-0.1,0.1l-0.1,0.1l-0.3,0.3l-0.3,0.2l-0.1,0.1
	l-0.1,0.1l0,0.1l0,0.1l-0.1,0.1l-0.1,0.1l-0.1,0.2l0,0l0,0.1l0,0.1l0,0l0,0.1l0,0.1l0,0.1l0,0.1l0,0.1l0,0.2l0,0.3l0,0.2l0,0.2
	l-0.1,0.4l0,0.2v0l0,0.1l0,0.1l0,0v0l0,0.1l0,0.1l0,0l0,0.1l0,0.1l0,0.1l0,0.1l0,0.1l0,0.1l0,0.1l0,0.1l0,0.1l0,0.1v0.1l0,0.1l0,0.1
	l0.1,0.5l0,0.1l0.2,0.6l0.1,0.2l0,0.1l0.1,0.1l0.1,0.3l0,0.1l0,0.1l0,0.1l0,0.1l0.1,0.2l0,0.1l0.1,0.2l0,0.1l0.1,0.2l0.1,0.5l0,0.5
	l0,0.1l0.1,0.6l0,0.1l0,0.1l0,0.3v0l0,0l-0.2,0.1l-0.1,0l-0.2,0h-0.2h-0.4l-0.2,0.1l0.1,0.1l-0.1,0.2l0,0.1l0,0.1l0,0.1l0,0.1l0,0.1
	l-0.1,0.2l-0.2,0.6l0,0.1l0,0.1l0,0.1l-0.1,0.1h-0.2h-0.2H36h-0.1l-0.2,0l-0.1,0l0,0.2l-0.1,0.9l0,0.4v0.1l0,0.4l0,0.2l-0.1,0.9
	l0,0.2l0,0.1l0,0.2l0,0.4l0.1,0.1l0.1,0l0.6-0.1l0.1,0l0.1,0l0.2-0.1l0.2,0l0.2,0l0.1,0l0.6,0.1h0l0,0v0l0,0.3l0,0.1l0,0.2l0,0.1
	l0,0.1l0,0.1l0.1,0.2l0,0l0.1,0h0l0,0l0,0l0.1,0l1.2-0.5h0.1l0.1,0h0l0.3,0l0.5,0.2l0.2,0l0.3,0.1h0l0,0l0.4,0.2l0,0h0l0,0l0,0l0,0
	l0,0h0l0,0.1l0,0.1l0,0.1l0,0.1l0.2,0.2l0.6-0.2l0.1,0l0.2,0.1l0.1,0.1l0,0l0.2,0.3l0.3,0.4l0.1,0.1l0.2,0.4l0.1,0.1l0.2,0.3
	l0.2-0.1l0.3-0.1l0.3-0.1l0,0l0,0l0.1,0l0.1,0l0.1,0h0l0.4-0.1l0.1,0l0.1,0l0.3-0.1l0.1-0.1l0.1,0l0,0l0.1,0.2l0.1,0.2l0.1,0.2
	l0,0.1l0.1,0.1l0,0.1l0,0l0.1,0.2l0.1,0.2l0,0l0.1,0.2l0.1,0.1l0.1,0.3l0.1,0.2l0.1,0.2l0,0.1l0.1,0.1l0,0.1l0.1,0.3l0.1,0.3
	l0.1,0.3l0.2,0.4l0.1-0.1l0.3-0.1l0,0l0.1,0l0.3-0.1l0.2-0.1l0,0l0.1,0l0,0l0.1,0l0,0l0,0l0.1,0l0.1,0l0,0l0.1,0.3l0.1,0.4l0.1,0.3
	l0.1,0.2l0.1,0.3l0.1,0.2l0.1,0.3h0l0.1,0.3l0.1,0.3l0,0.1l0.1,0.2l0,0.1l0.2-0.1l0.1-0.1l0.1,0l0.1-0.1l0.1,0l0.1,0l0.2-0.1
	l0.1-0.1l0.1,0l0.1,0l0,0l0.1,0l0.1,0l0.1,0l0.3-0.1l0.4-0.1l0.1,0l0.4,0l0.2,0l0.2,0l0.1,0l0.1,0l0.1,0l0.4,0.1l0,0l0.1,0l0,0
	l0.1,0l0.1,0l0.2,0h0.1l0.3,0l0.1-0.1l0.1,0l0.1-0.1l0.1-0.1l0.1-0.1l0.1,0l0.1-0.1l0.1-0.1l0.1-0.1l0.1-0.1l0.2-0.1l0.1-0.1h0
	l0.3-0.2l0.2-0.1l0,0l0.1,0l0.1-0.1l0.1-0.1l0.1-0.1l0.1-0.1l0.2-0.1l0.1-0.1l0.1-0.1l0,0l0.1,0l0.1,0l0.1-0.1l0.1,0l0.2-0.1l0,0
	l0.1-0.1l0.2-0.1l0.1-0.1l0.1-0.1l0.1-0.1l0.1-0.1l0.2-0.1l0.2-0.1l0.1-0.1l0.1-0.1l0.1-0.1l0.1-0.1l0.1-0.1l0.1-0.1l0.1-0.1
	l0.1-0.1l0.2-0.2l0.3-0.3l0.3-0.3l0.4-0.3l0.1-0.1l0.1-0.1l0.1-0.1l0.1-0.1l0.1-0.1l0,0l0.2-0.1l0.1-0.1l0.1-0.1l0,0l0,0l0.1-0.1
	l0,0l0,0l0,0l0-0.1l0-0.1l0-0.1l0-0.1l0.1-0.1l0,0l0,0l0-0.1l0-0.1l0-0.1l0-0.1l0-0.1l0-0.1l0-0.1l0,0l0-0.1l0-0.1l0-0.1l0.1-0.1
	l0-0.1l0.1-0.1l0-0.1l0.1-0.2l0-0.1l0.1-0.1l0.1-0.1l0.1-0.1l0.1-0.1l0.1-0.1l0.1-0.1l0.1-0.1l0,0l0.2-0.1l0.1-0.1l0.1-0.1l0.1-0.1
	l0.1-0.1l0.1-0.1l0,0l0.3-0.2l0.3-0.2l0.1-0.1l0.1-0.1l0.1-0.1l0.1-0.1l0.3-0.2l0.1-0.1l0,0l0,0l0.1,0l0.1-0.1l0.1-0.1l0.1,0
	l0.1-0.1l0.1-0.1l0.1-0.1l0.2-0.1l0,0l0.1-0.1l0.2-0.1l0.1-0.1l0.1-0.1l0.1-0.1l0.1-0.1l0.2-0.1l0.2-0.1l0.1-0.1l0.2-0.1l0.2-0.4
	l0,0l0.1-0.1l0.1-0.1l0.1-0.1l0.1-0.1l0.1-0.1l0.1-0.1l0.1-0.1l0.1-0.1l0.1-0.1l0,0l0,0l0.1-0.1l0.2-0.1l0.1-0.1l0.1,0l0.1-0.1
	l0.1-0.1l0.1-0.1l0.1-0.1l0.1-0.1l0.1-0.1l0.1-0.1l0.1-0.1l0.1-0.1l0.1-0.1l0.1-0.1l0,0l0.1-0.1l0.1-0.1l0.1-0.1l0,0l0.1-0.1
	l0.1-0.1l0,0l0,0l0.1-0.1l0.1-0.1l0.1-0.1l0.1-0.1l0,0l0.2-0.1L72,163l0.1-0.1l0.1-0.1l0.1-0.1l0,0l0.5-0.3l0.2-0.1l0.1-0.1l0.2-0.1
	l0.1-0.1l0.1-0.1l0.1-0.1l0.1-0.1l0.1-0.1l0.1-0.1l0.1-0.1l0.1-0.1l0.2-0.1l0.2-0.1l0.1-0.1l0.1-0.1l0.2-0.1l0,0l0.2-0.1l0.3-0.2
	l0.1,0l0.1,0l0.1,0l0.1-0.1l0.1-0.1l0.1-0.1l0.2-0.1l0.1,0l0.1-0.1l0.1-0.1l0.1,0l0.1,0l0.1,0l0.1-0.1l0.2-0.1l0.1,0l0.1-0.1L77,160
	l0.1-0.1l0.1-0.1l0.2-0.1l0.1-0.1l0.1-0.1l0.2-0.1l0.1-0.1l0.1-0.1l0.1-0.1l0.1-0.1l0.1-0.1l0.1-0.1l0.1,0l0.1-0.1l0.1,0l0.1-0.1
	l0.1,0l0.1-0.1l0.1-0.1l0.3-0.2l0.1-0.1l0.1-0.1l0.1-0.1l0.1-0.1l0.1-0.1l0.1-0.1l0.1-0.1l0.2-0.1v0L80,158l0.1-0.1l0.1-0.1l0.1-0.1
	l0.1,0l0.1-0.1l0.1-0.1l0.2-0.1l0.1-0.1l0.1,0l0.1,0l0.1,0l0.1,0l0.1-0.1l0,0l0.1-0.1l0.1,0l0.1,0l0,0l0.1,0l0.1,0l0.2-0.1l0.4-0.1
	l0.2-0.1l0.1,0L83,157l0.4,0h0.1l0.1,0h0.1h0.1h0.1l0.1,0h0.1h0.4l-0.1,0l-0.1,0l-0.1-0.1l-0.1-0.1l0-0.1l0-0.1l0-0.1l0-0.1l0-0.1
	l0-0.1v-0.1v-0.1v-0.1v-0.2l0-0.3l0-0.2v-0.1l0-0.1v-0.1l0-0.1v-0.1l0-0.2l0-0.1l0.1-0.1l0.1-0.1l0-0.1l0.1-0.1l0.1-0.1l0.1-0.1
	l0.1-0.1l0.2-0.3l0,0v0l0.1-0.2l0.2-0.2l0.1-0.1l0.1-0.1l0.1-0.2l0.1-0.1l0.1-0.1L86,152l0.1-0.1l0-0.1l0.1-0.1l0-0.1l0.1-0.1
	l0.1-0.1l0-0.1l0-0.1h0l0.1-0.2l0.1-0.1l0.1-0.1l0-0.1l0-0.1l0-0.1l0-0.1l0.1-0.1l0.1-0.1l0.1-0.2l0.2-0.4l0,0l-0.2,0h0h-0.1l-0.1,0
	l-0.2,0l-0.1,0l-0.2,0l-0.1,0l-0.1,0h-0.1l-0.1,0l-0.1,0l-0.2,0l-0.1,0l-0.2,0l-0.2,0l-0.1,0l-0.1,0l-0.1,0l-0.2,0h-0.1l0,0l-0.1,0
	l-0.1,0l-0.1,0l-0.1,0l-0.1,0h-0.1l-0.1,0l-0.1,0l-0.3,0l-0.3,0l-0.7,0.1h0l-0.3,0l-0.2,0h0l-0.3,0l0,0l-0.7,0.1l-0.2-1l-0.2-0.8h0
	l0-0.2l0-0.1l-0.1-0.4l0-0.2l0-0.1l0-0.1l0-0.1l0-0.2l0-0.1v0l0,0v0l0-0.1l-1.8,0.6l-0.4,0.1l-0.3,0.1l-0.1,0.1l-0.3,0.1l-0.1,0
	l-0.1,0.1l-0.1,0.1l-0.1,0.1l-0.1,0l-0.1,0l-0.5,0.2l-1,0.3l-0.1,0l-0.1,0l-1.5,0.6l-0.2,0.1l-0.2,0l-0.1,0.1l-0.1,0.1l-0.2,0.1
	l-0.2,0.1l-0.2,0.1l-0.2,0.1l-0.1,0l-0.1,0l-0.1,0l-0.1,0.1l-0.2,0.1l-0.1,0.1l-0.1,0l-0.1,0l-0.1,0l-0.1,0l-0.2,0.1l-0.2,0.1
	l-0.1,0l-0.2,0.1l-0.2,0.1l-0.1-0.1l-0.2-0.5l0-0.3l0-0.2l-0.1-0.6l0-0.3l-0.1-0.4l0-0.1l-0.1-0.6l-0.6-1.7l-0.2-0.6h0h0h0l0,0h0
	l0,0l0,0l0,0l0,0v0h0l-0.1-0.2l-0.1-0.3l-0.1-0.1l0-0.1l-0.1-0.3l-0.1-0.2l0,0v0v0v0v0v0h0v0h0l0,0l0,0l0,0h0l-0.1-0.3l-0.1-0.2
	l-0.1,0l-0.1,0l0,0l-0.1,0v0l-0.1-0.1l0,0l-0.2,0.1l-1.1,0.3l-1.9,0.8l-1,0.5l-1.2,0.4l-0.2,0.1l-0.1,0l-3,0.4l-0.2,0l-0.1,0l-0.1,0
	l-0.7,0h-0.1l-0.2,0l-0.4-0.3l0,0h-0.2l-0.1,0h-0.1l-0.1,0h-0.1l-0.1,0h-0.1h-0.1l-0.1,0h-0.1h-0.1l-0.1,0h-0.1h0l-0.1,0h0l-0.2,0h0
	l-0.1,0h-0.1l-0.1,0l-0.5,0h-0.1l-0.2,0.1l-0.1,0l-0.2,0l-0.1,0l-0.2,0l-0.1,0l-0.1,0l-0.1,0l-0.1,0l-0.1,0l-0.1,0l-0.2,0l-0.1,0
	l-0.2,0l-0.1,0l-0.2,0l-0.1,0l-0.1,0l-0.1,0h0l-0.1,0h0l-0.1,0l-0.1,0l0,0l-0.1,0l0,0l-0.1,0l-0.1,0l0,0l-0.1,0l-0.2,0l-0.1,0
	l-0.1,0l-0.1,0l-0.1,0l-0.1,0l-0.2,0l-0.1,0l-0.1,0l-0.1,0l-0.2,0l-0.1,0l-0.1,0l-0.2-0.1l-0.1,0l-0.1,0l-0.1,0l-0.1,0l-0.1,0l0,0
	l-0.2-0.1l-0.1-0.1l-0.1,0l-0.1,0l0,0l-0.2-0.1l-0.1,0l-0.1-0.1l-0.1,0l-0.1-0.1l-0.1-0.1l-0.1-0.1l0,0l-0.1-0.1L46.8,144.4z"/>
<path id="A4_00000136393221105415320540000001123656254450774176_" class="st0" d="M108.1,149.8l-4.9-5.4l-0.1-0.1l-0.3-0.4
	l-4.2,3.1v0l0,0l0,0l0,0l0,0l0,0l0,0h0v0h0l0,0l0,0v0l0,0v0l0,0v0l0,0l0,0v0v0h0l0,0.1l0,0.1v0v0v0v0v0v0l0,0v0v0l0,0v0v0l0,0v0v0
	l0,0v0l0,0l-0.1,0.1l-0.1,0.1l-0.1,0.1l-0.1,0.1l-0.1,0.1l-0.2,0.1l-0.2,0.1l0,0l-0.2,0.1l-0.1,0.1l-0.2,0.1l-0.1,0l-0.1,0l-0.1,0.1
	l-0.1,0.1l0,0l-0.1,0l-0.1,0l-0.1,0l-0.1,0l-0.1,0l-0.1,0l-0.1,0l-0.1,0l-0.1,0l-0.1,0l-0.1,0l0,0l-0.5,0.1l-0.2,0.1l-0.1,0l-0.1,0
	l-0.1,0l-0.1,0l-0.1,0l-0.1,0l-0.1,0l-0.2,0l-0.1,0l-0.2,0l-0.1,0l-0.1,0l-0.1,0l-0.1,0l-0.1,0l-0.1,0v0l-0.1,0l0,0l-0.2,0l-0.1,0
	l-0.2,0l-0.2,0h-0.1l-0.1,0h-0.1h-0.1l-0.1,0h-0.2l-0.1,0H91l-0.2,0h-0.1h-0.1h-0.1l-0.2,0H90H90l-0.1,0h-0.1h-0.1l-0.2,0l-0.2,0
	l-0.2,0l-0.4-0.1l-0.1,0l-0.2,0l-0.1,0l-0.1,0l-1,0.2l0,0l-0.2,0.4l-0.1,0.2l-0.1,0.1l-0.1,0.1l0,0.1l0,0.1l0,0.1l0,0.1l-0.1,0.1
	l-0.1,0.1l-0.1,0.2h0l0,0.1l0,0.1l-0.1,0.1l-0.1,0.1l0,0.1l-0.1,0.1l0,0.1L86,152l-0.1,0.2l-0.1,0.1l-0.1,0.1l-0.1,0.2l-0.1,0.1
	l-0.1,0.1l-0.2,0.2l-0.1,0.2v0l0,0l-0.2,0.3l-0.1,0.1l-0.1,0.1l-0.1,0.1l-0.1,0.1l0,0.1l-0.1,0.1l-0.1,0.1l0,0.1l0,0.2v0.1l0,0.1
	v0.1l0,0.1v0.1l0,0.2l0,0.3v0.2v0.1v0.1v0.1l0,0.1l0,0.1l0,0.1l0,0.1l0,0.1l0,0.1l0.1,0.1l0.1,0.1l0.1,0l0.1,0l0.1,0.2l0,0.2l0,0.1
	v0.1l0,0.1v0.1l0,0.1v0v0l0,0.1v0.1l0,0.1v0.1l0,0.1l0,0.1l0,0.1v0.1l0,0.1v0.2l0,0.1v0.1l0,0.1l0,0.1v0.1l0,0.1l0,0.1v0v0.1v0.1
	l0,0.1v0.1l0,0.1v0.1l0,0.1v0.1v0.1l0,0.1v0.1l0,0.2l0,0.1l0,0.1l0,0.1l0,0.1l0,0.1l0,0.1l0,0.1l0,0.1l0,0.1l0,0v0l0,0l0,0.1v0
	l0.1,0.1l0,0.1l0,0.1l0.1,0.1l0.1,0.2l0.1,0.1l0,0.1l0.1,0.2l0.1,0.1l0.1,0.2l0.2,0.4l0.4,0l0.2,0l0.1,0l0.1,0l0.1,0l0.1,0l0.1,0
	l0.1,0l0.1,0l0.1,0l0.1,0l0.1,0l0.1,0l0.1,0l0.1,0l0.1,0l0.1,0l0.1,0l0.1,0h0.1l0.2,0l0.1,0l0.1,0l0.1,0l0.1,0l0.1,0l0.1,0l0.1,0
	l0.1,0l0.1,0l0.1,0l0.1,0l0.1,0l0.1,0l0.1,0l0.1,0l0.2,0h0l0.2,0l0.3,0l0.1,0l0.1,0l0.1,0l0.1,0l0.1,0l0.1,0l0.4,0l0.1,0l0.1,0
	l0.2,0l0.1,0l0.1,0l0.1,0l0.1,0l0.1,0l0.1,0l0.2,0l0.1,0l0.2,0l0.1,0l0.1,0l0.1,0l0.3,0l0.3,0l0.2,0l0.1,0l0.1,0l0.1,0l0.1,0l0.1,0
	l0.1,0l0.1,0l0.1,0l0.1,0l0.1,0l0.1,0l0.1,0l0.1,0l0.1,0l0.1,0l0.1,0l0.2,0l0,0.2l0,0.2l0,0.1l0,0.1l0,0.1l0,0.1l0,0.1l0,0.1l0,0.2
	l0,0.1l0,0.2l0,0.2l0,0.2l0,0.2l0,0l0.1,0.1l0.1,0.1l0.1,0.1l0.1,0.1l0.1,0.2l0.1,0.1l0.1,0.2l0.1,0.1l0.1,0.1l0,0.1l0.1,0.1l0,0.1
	l0,0.1l0.1,0.1l0.1,0.1l0.1,0.3l0.1,0.2l0.1,0.1l0,0.1l0.1,0.2l0,0.2l0.1,0.3l0.1,0.3l0.1,0.2v0.1l0,0.2v0.1l0,0.4l0,0.1v0.1v0.1
	l0,0.1v0.1l0,0.2l0,0.2l0,0.2l0,0.2v0.2l0,0.2l0,0.1v0.1l0,0.1l0,0.2l0,0.3l-0.1,0.4v0.4v0.1v0.1v0.1v0.2v0.1v0.1v0.2v0.2v0.1l0,0.1
	v0.1v0.1l0,0.1l-0.1,0.4l0,0.1l-0.1,0.2l0,0.1l0,0.1l-0.1,0.2l0,0.1l0,0.1l0,0.1l0,0.1l0,0.2l0,0.1l-0.1,0.2l0,0v0.1l0,0.2l0,0.3
	l0,0.3l0,0.2l0,0.2v0l0,0.1v0.1l0,0.1l0,0.2l0,0.2l0,0.2l0,0.1l0,0.1l0,0.1l0,0.1l0,0.3v0.1l0,0.1l0,0.2l0,0.1l0,0.1l0,0.1l0,0.1
	l0,0.2l0,0.1l0,0.1l0,0.1l0,0.1l0,0.2l0.1,0.4l0,0.3l0,0.1l0,0.2l0,0.1l0,0.1l0,0.1l0,0.1l0,0.1l0,0.1l0,0.1l0,0.2l0,0.1l0,0.1
	l0,0.1l0,0.1l0,0.1l0,0.1l0,0.1l0,0.1l0,0.1l0,0.1l0,0.1l0,0.1l0,0.1l0,0.1l0,0.1l0,0.1l0,0.1l0,0.2l0,0.1l0,0.1l0,0.1l0,0.1l0,0.1
	l0,0.1l0,0.1l0,0.1l0,0.1l0,0.1l0,0.1l0,0.1l0.1,0.2l0,0.1l0,0.1l0,0.1l0,0.1l0,0.1l0,0.1l0,0.1l0,0.1l0,0.1l0,0.2l0,0.1l0,0.2
	l0.1,0.5l0,0.1l0,0.1l0.2,0l0-0.1l0.2,0.1l0.2,0.1h0l0.2,0.1l0.2,0.1l0.1,0l0.1,0l0.1,0l0.1,0l0.2,0l0.1,0l0.1,0l0.1,0l0.1,0l0.1,0
	l0.2,0.1l0.1,0l0.1,0l0.1,0l0.1,0l0.1,0l0.1,0l0.1,0l0.1,0l0.1,0l0.2,0.1l0,0l0.1,0l0.1,0l0.3,0.1l0.1,0l0.2,0.1l0.1,0l0.1,0l0.2,0
	l0.4,0.1l0.4,0.1l0.1,0l0.1,0l0.2,0.1l0.1,0l0.1,0l0.1,0l0.1,0l0.1,0l0.1,0h0l0.1,0l0.3,0.1l0.1,0l0.3,0.1l0.1,0l0.2,0.1l0.1,0l0,0
	h0l0.1,0l0.1,0l0.1,0l0.1,0l0.1,0l0.1,0h0.1l0.1,0h0l0.1,0h0.1l0.1,0l0.1,0h0.1l0.2,0l0.2,0l0.2,0l0.2-0.1l0.1,0h0l0.1,0l0,0
	l0.2-0.1l0.1-0.1l0.1-0.1l0.1-0.1l0.1-0.1l0.2-0.1l0.1-0.1l0.1-0.1l0,0l0.1,0l0.7-0.5l0.2-0.1l0.3-0.2l0.6-0.4h0l0.6-0.4l0.1-0.1
	l0.1,0l0,0l0,0l0.1-0.1l0,0l0,0l0.1-0.1l0.1,0l0,0l0,0l0,0l0.1-0.1l0,0l0.1-0.1l0.2-0.1l0.7-0.4l0.2-0.1l0.2-0.1l0.4-0.3l0.1-0.1
	l0.2-0.1l0.8-0.5l0.4-0.3l0.1-0.1l0.2-0.1l0.6-0.4l0,0l0.3-0.2l0.4-0.3l0.2-0.1l0.1-0.1l0.1-0.1l0.1-0.1l0.1-0.1l0.1-0.1l0.1-0.1
	l0.1-0.1l0,0l0.1-0.1l0.1-0.1l0,0l0.1-0.1l0,0l0.1-0.1l0.1-0.1l0.1,0l0.1,0l0.1-0.1l0.2-0.1l0.3-0.2l0.2-0.1l0.2-0.1l0.1-0.1l0.1,0
	l0.4-0.3l0,0l0.2-0.1l0.1,0l0.6-0.4l0.2-0.1l0.5-0.4l0.1-0.1l0.1-0.1l0.1-0.1l0.1-0.1l0.1-0.1l0.2-0.1l0.1-0.1l0.1-0.1l0.1-0.1
	l0.1-0.1l0.1-0.1l0.1-0.1l0.4-0.3l0.4-0.3l0,0l0.1-0.1l0.1-0.1l0.2-0.2l0.3-0.2l0.5-0.4v0l0.6-0.4l0.7-0.5l0.1-0.1l0.1,0l0.2-0.2
	l0.4-0.3l0,0l0.2-0.1l0,0l0,0l0,0l0,0l0.1-0.1h0l0.1-0.1l0,0l0,0l0.1-0.1l0,0v0l0.1-0.1l0.1-0.1l5.3-3.7l0.1,0l-9.3-10.2l-8.6-6.7
	l-0.1-0.1l-1.8-1.5l-0.3-0.3l-4.3-3.5L108.1,149.8z"/>
<path id="A3_00000029026551975196975400000001773941404427175050_" class="st0" d="M78.3,147.4L78.3,147.4l1.8-0.6l0,0.1v0l0,0v0
	l0,0.1l0,0.2l0,0.1l0,0.1l0,0.1l0,0.2l0.1,0.4l0,0.1l0,0.2h0l0.2,0.8l0.2,1l0.7-0.1l0,0l0.3,0h0l0.2,0l0.3,0h0l0.7-0.1l0.3,0l0.3,0
	l0.1,0l0.1,0h0.1l0.1,0l0.1,0l0.1,0l0.1,0l0.1,0l0,0h0.1l0.2,0l0.1,0l0.1,0l0.1,0l0.2,0l0.2,0l0.1,0l0.2,0l0.1,0l0.1,0H86l0.1,0
	l0.1,0l0.2,0l0.1,0l0.2,0l0.1,0h0.1h0l0.2,0l1-0.2l0.1,0l0.1,0l0.2,0l0.1,0l0.4,0.1l0.2,0l0.2,0l0.2,0h0.1h0.1l0.1,0H90h0.2l0.2,0
	h0.1h0.1h0.1l0.2,0h0.2l0.1,0h0.2l0.1,0h0.1h0.1l0.1,0h0.1l0.2,0l0.2,0l0.1,0l0.2,0l0,0l0.1,0v0l0.1,0l0.1,0l0.1,0l0.1,0l0.1,0
	l0.1,0l0.2,0l0.1,0l0.2,0l0.1,0l0.1,0l0.1,0l0.1,0l0.1,0l0.1,0l0.1,0l0.2-0.1l0.5-0.1l0,0l0.1,0l0.1,0l0.1,0l0.1,0l0.1,0l0.1,0
	l0.1,0l0.1,0l0.1,0l0.1,0l0.1,0l0,0l0.1-0.1l0.1-0.1l0.1,0l0.1,0l0.2-0.1l0.1-0.1l0.2-0.1l0,0l0.2-0.1l0.2-0.1l0.1-0.1l0.1-0.1
	l0.1-0.1l0.1-0.1l0.1-0.1l0,0v0l0,0v0v0l0,0v0v0l0,0v0v0l0,0v0v0v0v0v0v0l0-0.1l0-0.1h0v0v0l0,0l0,0v0l0,0v0l0,0v0l0,0l0,0h0v0h0
	l0,0l0,0l0,0l0,0l0,0l0,0v0l4.2-3.1l-1.7-2.1l-2-2.5l-1.1-5l-0.5-4.1l-0.1-0.5l0.6-2.3l-4.8,0.3l-0.4,0l-0.2,0l-0.2,0l-0.2,0l-0.2,0
	l-0.2,0l-0.2,0l-0.2,0l-0.2,0l-0.2,0l-0.2,0l-0.1,0l-0.2,0l-0.2,0l-0.1,0l-0.2,0l-0.2,0l-0.2,0l-0.2,0l-0.2,0l-0.2,0l-0.2,0l-0.2,0
	l-0.2,0l-0.2,0l0.1,1.4l-0.4,0.1h0l0,0h0h0h0l0,0h0l0,0l0,0h0h0l0,0h0h0l0,0h0l0,0h0h0l0,0l0,0l0,0h0h0l0,0l0,0l0,0h0l0,0h0l0,0l0,0
	h0h0v0h0h0v0h0h0v0h0h0v0h0l0,0l0,0h0h0v0h0l0,0l0,0h0l-0.2,0.1l0,0l0,0l0,0l0,0l0,0l0,0l0,0l0,0l0,0h0l0,0l0,0l0,0l0,0l0,0l0,0l0,0
	l0,0l0,0l0,0l0,0l0,0l0,0l0,0l0,0l0,0l0,0v0h0v0h0v0l0,0l0,0l0,0l0,0v0l0,0l0,0l0,0l0,0l0,0l0,0l0,0v0l0,0l0,0l0,0l0,0l-0.1,0.2l0,0
	v0l0,0l0,0v0l0,0v0l0,0v0l0,0v0v0h0v0v0v0l0,0l0,0v0l0,0l0,0l0,0v0l0,0v0v0l0,0v0v0l0,0v0v0v0l0,0v0v0v0v0v0l0,0v0v0v0v0v0v0v0l0,0
	v0v0l0,0.4l-0.2,0l-0.2,0l-0.2,0l-0.2,0l-0.2,0l-0.3,0l-0.2-0.1l-0.3,0l-0.2,0v0v0v0l0,0v0v0v0v0l0,0v0v0v0l0,0v0v0l0,0v0l0,0
	l-0.3,0.3h0l0,0h0h0l0,0h0h0h0h0l0,0h0h0h0h0h0l0,0h0l0,0l-0.4-0.3h0v0l0,0l0,0l0,0v0l0,0l0,0v0h0v0l0,0l0,0v0l0,0l0,0v0l0,0l0,0
	l0,0v0v0v0h0v0v0l0,0v0v0l0,0v0v0v0l0,0v0v0v0v0v0l0,0v0v0v0v0l0,0v0v0l0,0v0v0l0,0v0v0l0,0v0v0h0v0v0l0,0v0v0l0,0l0,0v0v0l0,0v0
	l0,0l0,0v0l0,0v0v0h0v0v0l0,0v0h0v0l0,0v0h0v0v0h0v0l0,0l-0.1-0.2l-0.1-0.1l-0.1-0.1l-0.1-0.1l-0.1-0.1l-0.1-0.1l-0.1-0.1l0-0.1
	l-0.1-0.1l-0.1-0.1l-0.1-0.1l-0.1-0.1l-0.1-0.1l-0.2-0.2l-0.2-0.2l-0.1-0.1l-0.1-0.1L82,129l-0.8-0.9l0,0L81,128l-0.1-0.1l-0.1-0.1
	l-0.1-0.1l-0.1-0.1l-0.1-0.1l-0.1-0.1l-0.1-0.1l-0.1-0.1l-0.1-0.1l-0.1-0.1l-0.1-0.1l-0.1-0.1l-0.1-0.1l-0.1-0.1l-0.1-0.1l-0.1-0.1
	l-0.1-0.1l-0.1-0.1l-0.1-0.1l-0.1-0.1l-0.1-0.1l-0.1-0.1l-0.1-0.1l-0.1-0.1l-0.1-0.1l-0.1-0.1l-0.2-0.2l-0.1-0.1l-0.1-0.1l-0.1-0.1
	l-0.1-0.1l-0.1-0.1l-0.1-0.1l0,0l0,0l-0.2-0.2l-0.1-0.1l0,0l-0.1-0.1l-0.2-0.1l-0.1-0.1l-0.1-0.1l-0.1-0.1l-0.1-0.1l-0.6-0.5
	l-0.2-0.1l0,0l0,0l-0.1,0l0,0l-0.1-0.1l-0.1-0.1l-0.1-0.1l-0.1-0.1l-0.1-0.1l-0.1-0.1l-0.1-0.1l-0.1-0.1l-0.1-0.1l-0.1-0.1l-0.1-0.1
	l-0.1-0.1l-0.1-0.1l-0.1-0.1l-0.1-0.1l-0.1-0.1l-0.1,0l-0.1-0.1l0,0l-0.1,0l-0.1,0l-0.1,0l-0.1-0.1l-0.1,0l-0.1-0.1L74,122l-0.1-0.1
	l-0.1-0.1l-0.2-0.1l-0.1-0.1v0l0,0l0,0l-0.1,0l0,0h0l-0.1-0.1l-0.1-0.1l-0.1-0.1l0,0l0,0h0l0,0l-0.1,0l0,0l0,0l0,0l-0.1-0.1
	l-0.1-0.1l-0.1-0.1l0,0l-0.2-0.1l-0.2-0.1l-0.2-0.1l-0.1,0l-0.1-0.1l-0.1,0l-0.1-0.1l0,0l-0.1,0l-0.1-0.1l-0.1-0.1l-0.1-0.1
	l-0.1-0.1l-0.1-0.1l-0.2-0.1l-0.1,0l-0.2-0.1l-0.1-0.1l-0.1-0.1l-0.1-0.1l-0.1-0.1l-0.2-0.1l-0.1-0.1l-0.2-0.1l-0.8-0.5l-0.1-0.1
	l-0.1-0.1l-0.1-0.1l-0.1-0.1l-0.1-0.1l-0.1-0.2l-0.1,0L68,118l-0.1-0.1l-0.1-0.1l-0.1-0.1l-0.1-0.1l-0.1-0.1l0,0l-0.1-0.1l-0.1-0.1
	l-0.1-0.1l-0.1-0.1l-0.1-0.1l-0.1-0.1l-0.1-0.1l-0.1-0.1l-0.1-0.1l-0.1-0.1l-0.2-0.2l-0.1-0.1l-0.1-0.1l-0.1-0.1l-0.1-0.1l-0.1-0.1
	l-0.1-0.1l-0.3-0.3l-0.1-0.1l-0.1-0.1l-0.2-0.1l-0.1-0.1L65,115l-0.2,0.4l-0.1,0.1l-0.3,0.5l0,0.1l0.1,0.1L64,117l-1.7,2.9l-1.1,2
	l-1.7,2.9l-0.9,2.8l-0.4,1l-0.2,0.7l-0.2,0.5l-0.5,1.4l-0.6,1.9l-0.1,0.4l0,0.3l0,1.1l0,1.2l0,0.8l0,2.2l0,1.3l0.1,1.8l0,0.1l0,1.5
	l0,1.7l0.4,0.3l0.2,0h0.1l0.7,0l0.1,0l0.1,0l0.2,0l3-0.4l0.1,0l0.2-0.1l1.2-0.4l1-0.5l1.9-0.8l1.1-0.3l0.2-0.1l0,0l0.1,0.1v0l0.1,0
	l0,0l0.1,0l0.1,0l0.1,0.2l0.1,0.3h0l0,0l0,0l0,0h0v0h0v0v0v0v0v0l0,0l0.1,0.2l0.1,0.3l0,0.1l0.1,0.1l0.1,0.3l0.1,0.2h0v0l0,0l0,0
	l0,0l0,0h0l0,0h0h0h0l0.2,0.6l0.6,1.7l0.1,0.6l0,0.1l0.1,0.4l0,0.3l0.1,0.6l0,0.2l0,0.3l0.2,0.5l0.1,0.1l0.2-0.1l0.2-0.1l0.1,0
	l0.2-0.1l0.2-0.1l0.1,0l0.1,0l0.1,0l0.1,0l0.1-0.1l0.2-0.1l0.1-0.1l0.1,0l0.1,0l0.1,0l0.2-0.1l0.2-0.1l0.2-0.1l0.2-0.1l0.1-0.1
	l0.1-0.1l0.2,0l0.2-0.1l1.5-0.6l0.1,0l0.1,0l1-0.3l0.5-0.2l0.1,0l0.1,0l0.1-0.1l0.1-0.1l0.1-0.1l0.1,0l0.3-0.1l0.1-0.1l0.3-0.1
	L78.3,147.4z"/>
<path id="A2_00000065775651640140120410000000021808084948972982_" class="st0" d="M82.7,156.9l-0.1,0l-0.2,0.1l-0.4,0.1l-0.2,0.1
	l-0.1,0l-0.1,0l0,0l-0.1,0l-0.1,0l-0.1,0.1l0,0l-0.1,0.1l-0.1,0l-0.1,0l-0.1,0l-0.1,0l-0.1,0.1l-0.2,0.1l-0.1,0.1l-0.1,0.1l-0.1,0
	l-0.1,0.1l-0.1,0.1L80,158l-0.1,0.1v0l-0.2,0.1l-0.1,0.1l-0.1,0.1l-0.1,0.1l-0.1,0.1l-0.1,0.1l-0.1,0.1l-0.1,0.1l-0.3,0.2l-0.1,0.1
	l-0.1,0.1l-0.1,0l-0.1,0.1l-0.1,0l-0.1,0.1l-0.1,0l-0.1,0.1l-0.1,0.1l-0.1,0.1l-0.1,0.1l-0.1,0.1l-0.1,0.1l-0.2,0.1l-0.1,0.1
	l-0.1,0.1l-0.2,0.1l-0.1,0.1L77,160l-0.1,0.1l-0.1,0.1l-0.1,0l-0.2,0.1l-0.1,0.1l-0.1,0l-0.1,0l-0.1,0l-0.1,0.1l-0.1,0.1l-0.1,0
	l-0.2,0.1l-0.1,0.1l-0.1,0.1l-0.1,0.1l-0.1,0l-0.1,0l-0.1,0l-0.3,0.2l-0.2,0.1l0,0l-0.2,0.1l-0.1,0.1l-0.1,0.1l-0.2,0.1l-0.2,0.1
	l-0.1,0.1l-0.1,0.1l-0.1,0.1l-0.1,0.1l-0.1,0.1l-0.1,0.1l-0.1,0.1l-0.1,0.1l-0.2,0.1l-0.1,0.1l-0.2,0.1l-0.5,0.3l0,0l-0.1,0.1
	l-0.1,0.1L72,163l-0.2,0.2l-0.2,0.1l0,0l-0.1,0.1l-0.1,0.1l-0.1,0.1l-0.1,0.1l0,0l0,0l-0.1,0.1l-0.1,0.1l0,0l-0.1,0.1l-0.1,0.1
	l-0.1,0.1l0,0l-0.1,0.1l-0.1,0.1l-0.1,0.1l-0.1,0.1l-0.1,0.1l-0.1,0.1l-0.1,0.1l-0.1,0.1l-0.1,0.1l-0.1,0.1l-0.1,0.1l-0.1,0
	l-0.1,0.1l-0.2,0.1l-0.1,0.1l0,0l0,0l-0.1,0.1l-0.1,0.1l-0.1,0.1l-0.1,0.1l-0.1,0.1l-0.1,0.1l-0.1,0.1l-0.1,0.1l-0.1,0.1l0,0
	l-0.2,0.4l0.2,0.2l0.1,0.1l0.1,0.1l0.1,0.1l0.1,0.1l0.1,0.1l0.1,0.1l0.2,0.1l0,0.1l0.1,0.1l0.1,0.1l0.1,0.1l0.1,0.1l0,0l0.1,0.1
	l0.1,0.1l0.1,0.1l0.1,0.1l0.1,0.1l0.1,0.1l0.1,0.1l0.1,0.1l0.1,0.1l0.1,0.1l0.1,0.1l0.1,0.1l0.1,0.1l0.1,0.1l0.1,0.1l0.1,0.1
	l0.1,0.1l0.2,0.2l0.1,0.1l0.2,0.2l0.2,0.2l0.1,0.1l0.2,0.2l0.1,0.1l0.1,0.1l0.1,0.1l0.2,0.1l0.1,0.1l0.1,0.1l0.2,0.2l0,0l0.1,0
	l0.2,0.2l0.1,0.1l0.1,0.1l0.1,0.1l0.1,0.1l0.1,0.1l0.1,0.1l0.2,0.2l0,0.1l0.3,0.3l0.2,0.2l0.1,0.1l0.1,0.1l0.1,0.1l0.1,0.1l0.2,0.2
	l0.1,0.1l0.1,0.1l0.1,0.1l0.1,0.1l0.1,0.1l0.3,0.3l0.1,0.1l0.2,0.2l0.2,0.2l0,0l0.1,0.1l0.1,0.1l0.1,0.1l0.2,0.2l0.1,0.1l0.1,0.1
	l0.1,0.1l0.1,0.1l0.1,0.1l0.1,0.1l0.1,0.1l0.2,0.2l0.1,0.1l0,0l0,0l0,0.1l0.1,0.1l0.1,0.1l0.1,0.1l0.1,0.1l0.1,0.1l0.1,0.1l0.1,0.1
	l0.1,0.1l0.1,0.1l0.1,0.1l0.1,0.1l0.1,0.1l0.1,0.1l0.1,0l0.1,0.1l0.1,0.1l0.2,0.2l0.3,0.3l0,0.1l0.1,0.1l0.1,0.1l0.1,0.1l0.1,0.1
	l0.1,0.1l0.1,0.1l0.1,0.1l0.1,0.1L81,179l0.2,0.2l0.1,0.1l0.1,0.1l0.1,0.1l0.1,0.1l0.1,0.1l0.1,0.1l0.1,0.1l0.1,0.1L82,180l0.1,0.1
	l0.1,0.1l0.1,0.1l0.2,0.2l0.1,0.1l0,0l0.1,0.1l0,0l0,0l0.1,0.1l0.1,0.1L83,181l0.1,0.1l0.1,0.1l0.1,0.1l0.1,0.1l0,0.1l0.1,0.1
	l0.1,0.1l0.1,0.1l0.1,0.1l0.2,0.2l0.5,0.4l0.3,0.3l0.1,0.1l0.2,0.2l0,0.1l0,0.1l0,0.1l0,0.1l0,0.1l0.1,0.1l0,0l0.1,0.1l0,0.1
	l0.1,0.1l0,0.1l0,0.1l0,0.1l0,0.1l0,0.1l0,0.1l0.1,0.1l0.1,0.1l0.1,0.2l0,0.1l0,0.1l0,0l0.1,0.2l0,0l0,0.1l0.1,0.2l0,0.1l0.1,0.1
	l0,0.1l0,0.1l0,0.1l0,0.1v0l0,0.2l0,0.2v0l0,0v0.1l0,0.1l0,0.2l0,0.4l0,0.1l0,0.1l0,0.1l0,0.1l0,0.1l0,0.2l0,0.3l0,0.2l0,0.2l0,0.1
	l0,0l0,0.1l0,0.1l0,0.2l0,0.1l0,0.1l0,0.2l0.2,0.4l0.2,0l0.3-0.1l-0.1,0.4l0,0.1l0,0.1l0,0.1l0,0.2l-0.1,0.4l-0.1,0.3l0,0.1l0,0.2
	l0,0l0,0l0,0.1l0,0.1l0,0.1l0,0.1l0,0.1l-0.1,0.3v0l0,0.2l0,0.2v0.1l0,0.1l0,0.1l0,0.1v0l0,0l0,0.1v0l0.1,0.1l0.1-0.1l0.2-0.1
	l0.2-0.1l0.1,0h0l0.1,0h0h0.1l0.1,0l0.1,0l0.1,0l0.1,0l0.1,0l0.1,0l0.1,0l0.1,0h0h0.1l0.1,0l0,0l0.2-0.1h0.1l0.1,0l0.2,0.1l0.1,0
	h0.1l0.1,0l0.2-0.1l0,0l0.1-0.1l0.1,0l0.1,0l0,0l0.2,0l0,0l0.1,0l0,0l0.2-0.1l0.1-0.1l0.1-0.1l0,0l0.1,0l0,0h0l0.1,0l0,0l0.2-0.1
	l0.1,0l0.1,0l0.1-0.1l0.1,0l0,0l0.1,0l0.1,0l0,0l0,0l0.1,0l0,0l0.1,0l0.1-0.1l0.1,0h0l0.1,0l0.1,0l0.1,0l0.1-0.1l0,0l0,0l0,0l0.1,0
	l0,0l0,0l0,0l0.1,0l0,0l0.1,0l0,0l0.1,0l0,0l0.1,0l0,0l0,0l0,0h0l0,0l0,0l0.1,0l0,0l0.1-0.1l0,0l0.1,0l0,0l0.1,0l0,0l0.1-0.1l0,0
	l0.1,0l0,0l0.1-0.1l0,0l0.1-0.1l0,0l0,0h0l0.1-0.1l0.2-0.1l0.1-0.1l0.3-0.1l0,0l0.1-0.1l0.2-0.1l0.1,0.3l0,0l0,0l0,0l0,0l0.1,0l0,0
	l0.1,0l0.1,0l0,0l0.1,0l0.2,0l0.1,0l0.1,0l0.1,0.1l0.1,0l0.1,0l0.2-0.1l0.1,0l0,0l0.1-0.1l0.1,0l0.1,0l0.2,0.1l0,0l0.1,0h0l0.1,0
	l0.1,0l0.1,0l0,0l0,0l0,0l0,0l0,0h0l0,0l0.1-0.1l0.1,0l0,0l0.1,0l0.1-0.1l0,0l0-0.1l0,0l0-0.1l0,0l0-0.1v0l0,0l0-0.1l0-0.1v0
	l0.1-0.1l0,0l0,0l0,0l0.1-0.1l0.1-0.1h0h0l0.1,0l0-0.1l0.1-0.1l0-0.1l-0.1-0.5l0-0.2l0-0.1l0-0.2l0-0.1l0-0.1l0-0.1l0-0.1l0-0.1
	l0-0.1l0-0.1l0-0.1l0-0.1l-0.1-0.2l0-0.1l0-0.1l0-0.1l0-0.1l0-0.1l0-0.1l0-0.1l0-0.1l0-0.1l0-0.1l0-0.1l0-0.1l0-0.2l0-0.1l0-0.1
	l0-0.1l0-0.1l0-0.1l0-0.1l0-0.1l0-0.1l0-0.1l0-0.1l0-0.1l0-0.1l0-0.1l0-0.1l0-0.1l0-0.1l0-0.1l0-0.2l0-0.1l0-0.1l0-0.1l0-0.1l0-0.1
	l0-0.1l0-0.1l0-0.2l0-0.1l0-0.3l-0.1-0.4l0-0.2l0-0.1l0-0.1l0-0.1l0-0.1l0-0.2l0-0.1l0-0.1l0-0.1l0-0.1l0-0.2l0-0.1v-0.1l0-0.3
	l0-0.1l0-0.1l0-0.1l0-0.1l0-0.2l0-0.2l0-0.2l0-0.1V180l0-0.1v0l0-0.2l0-0.2l0-0.3l0-0.3l0-0.2v-0.1l0,0l0.1-0.2l0-0.1l0-0.2l0-0.1
	l0-0.1l0-0.1l0-0.1l0.1-0.2l0-0.1l0-0.1l0.1-0.2l0-0.1l0.1-0.4l0-0.1V176v-0.1l0-0.1v-0.1v-0.2v-0.2v-0.1v-0.1V175v-0.1v-0.1v-0.1
	v-0.4l0.1-0.4l0-0.3l0-0.2l0-0.1v-0.1l0-0.1l0-0.2v-0.2l0-0.2l0-0.2l0-0.2l0-0.2v-0.1l0-0.1v-0.1v-0.1l0-0.1l0-0.4V171l0-0.2v-0.1
	l-0.1-0.2l-0.1-0.3l-0.1-0.3l0-0.2l-0.1-0.2l0-0.1l-0.1-0.1l-0.1-0.2l-0.1-0.3l-0.1-0.1l-0.1-0.1l0-0.1l0-0.1l-0.1-0.1l0-0.1
	l-0.1-0.1l-0.1-0.1l-0.1-0.2l-0.1-0.1l-0.1-0.2l-0.1-0.1l-0.1-0.1l-0.1-0.1l-0.1-0.1l0,0l0-0.2l0-0.2l0-0.2l0-0.2l0-0.1l0-0.2l0-0.1
	l0-0.1l0-0.1l0-0.1l0-0.1l0-0.1l0-0.2l0-0.2l-0.2,0l-0.1,0l-0.1,0l-0.1,0l-0.1,0l-0.1,0l-0.1,0l-0.1,0l-0.1,0l-0.1,0l-0.1,0l-0.1,0
	l-0.1,0l-0.1,0l-0.1,0l-0.1,0l-0.1,0l-0.2,0l-0.3,0l-0.3,0l-0.1,0l-0.1,0l-0.1,0l-0.2,0l-0.1,0l-0.2,0l-0.1,0l-0.1,0l-0.1,0l-0.1,0
	l-0.1,0l-0.1,0l-0.2,0l-0.1,0l-0.1,0l-0.4,0l-0.1,0l-0.1,0l-0.1,0l-0.1,0l-0.1,0l-0.1,0l-0.3,0l-0.2,0h0l-0.2,0l-0.1,0l-0.1,0
	l-0.1,0l-0.1,0l-0.1,0l-0.1,0l-0.1,0l-0.1,0l-0.1,0l-0.1,0l-0.1,0l-0.1,0l-0.1,0l-0.1,0l-0.1,0l-0.2,0h-0.1l-0.1,0l-0.1,0l-0.1,0
	l-0.1,0l-0.1,0l-0.1,0l-0.1,0l-0.1,0l-0.1,0l-0.1,0l-0.1,0l-0.1,0l-0.1,0l-0.1,0l-0.1,0l-0.1,0l-0.1,0l-0.2,0l-0.4,0l-0.2-0.4
	l-0.1-0.2l-0.1-0.1l-0.1-0.2l0-0.1l-0.1-0.1l-0.1-0.2l-0.1-0.1l0-0.1l0-0.1l-0.1-0.1v0l0-0.1l0,0v0l0,0l0-0.1l0-0.1l0-0.1l0-0.1
	l0-0.1l0-0.1l0-0.1l0-0.1l0-0.1l0-0.2v-0.1l0-0.1v-0.1v-0.1l0-0.1v-0.1l0-0.1v-0.1l0-0.1v-0.1v-0.1v0l0-0.1l0-0.1v-0.1l0-0.1l0-0.1
	v-0.1l0-0.1v-0.2l0-0.1v-0.1l0-0.1l0-0.1l0-0.1v-0.1l0-0.1v-0.1l0-0.1v0v0l0-0.1v-0.1l0-0.1v-0.1l0-0.1l0-0.2l-0.1-0.2h-0.4h-0.1
	l-0.1,0h-0.1h-0.1h-0.1l-0.1,0h-0.1l-0.4,0L82.7,156.9z"/>
<path id="A1_00000000193264933084430740000011605967559059654827_" class="st0" d="M137.7,171.3l0.3-0.2l0,0l-0.2-0.2l-0.2-0.3
	l-0.4-0.5l-0.1-0.1l-0.2-0.3l-0.1,0l-0.1-0.1l0,0l-0.4-0.5l-0.2-0.2l-0.2-0.2l-0.1-0.1l-0.1-0.1l-0.2-0.3l-0.2-0.3l2.3-1.7l0.6-0.4
	l0.7-0.5l0.1-0.1l0.2-0.1l-1.9-1.8l-1.8-1.6v0l-0.5-0.5l-0.1,0l-0.1,0l-0.4-0.4l-0.1-0.1l-0.3-0.3l-0.1-0.1l0,0l-0.6-0.5l-0.4-0.3
	l0,0l-0.5-0.4l0,0l-0.4-0.3l-1.5-1.3l-0.2-0.2l-0.1-0.1l0,0l-0.7-0.6l0,0l-0.1-0.1l-0.1,0l-0.4-0.3l0,0v0l-0.2-0.1l-0.1-0.1
	l-0.2-0.2l0,0l-0.5-0.4l0,0l-0.1-0.1l0,0l-2.3-1.9l-0.4-0.3l-0.2-0.2l-0.1-0.1l-1.6-1.3l-0.1-0.1l-0.1-0.1l0,0l-0.2-0.2l-0.5-0.4
	l-0.4-0.3l-0.1-0.1l3-3.9l1.7-2.3l0.2-0.3l0.9-1.2l0.8-1.1l0.9-1.2l1.2-1.4l0.1-0.2l0.1-0.1l0-0.1l0.1-0.2l0-0.1l0.1-0.1l0,0l0.1,0
	l0.2-0.3l0,0l0.3-0.4l0.2-0.3l0.2-0.3l0.1-0.1l0.3-0.4l0.1-0.1l1.6-2l0.3-0.5l0.2-0.3l0.4-0.8l0.4-0.8l0.1-0.3l0.1-0.2l0.4-1.1
	l0-0.1l0.1-0.3l0.1-0.4l0.2-1.2l0-0.5l0-0.5l0-0.6l0-0.5l0-0.4l-0.1-0.5l-0.1-0.4l-0.2-0.9l-0.1-0.4l-0.1-0.6l0-0.1l0-0.2l-0.2-1.2
	l-0.1-0.5l-0.2-1.2l-0.1-0.7l-0.1-0.2l0-0.1l-0.1-0.3l0-0.2l-0.1-0.5l-0.1-0.8l0-0.8l0,0h0h0l0-0.1l0-1.1l0-0.6l0-0.6V113l0-0.5
	l0.1-0.7l0.2-1.2l0-0.1l0.2-1l0.1-0.7l-0.1-0.2l0-0.1l0-0.3l0.2-1.1l0,0l0-0.1l0.1-0.5l0.1-0.3l0.4-1.7l0.3-1.5l0,0l0-0.1l0-0.1l0,0
	l0,0l0,0l0-0.1l0.5-2.1l0.1-0.2l0-0.2l0,0l0.2-1.1l0.1-0.6l0.4-1.9l0-0.2l0-0.2l0.2-0.6v0l0.1-0.2l0-0.1l0-0.1l0.1-1l0.1-0.6l0-0.4
	v-0.1l0-0.3l0-0.4v-0.1v0v0l0-0.4v0l-5.8-0.1l0.1,0.1l-2.5,7.6l-7.1,7.2l-12.1,6.8v0l-5,3.3l-0.4,0.2l-5,4.4l-2.2,3.6l-0.6,2.2
	l-0.6,2.3l0.1,0.5l0.5,4.1l1.1,5l2,2.5l1.7,2.1l0.3,0.4l0.1,0.1l4.9,5.4l1.6,1.8l4.3,3.5l0.3,0.3l1.8,1.5l0.1,0.1l0.1,0.1l8.4,6.6
	l9.3,10.2L137.7,171.3z"/>
</svg>
